<?xml version="1.0" standalone="no"?>
<!DOCTYPE svg PUBLIC "-//W3C//DTD SVG 1.1//EN" "http://www.w3.org/Graphics/SVG/1.1/DTD/svg11.dtd" >
<svg xmlns="http://www.w3.org/2000/svg">
<metadata>Generated by IcoMoon</metadata>
<defs>
<font id="nuevo" horiz-adv-x="1024">
<font-face units-per-em="1024" ascent="819" descent="-205" />
<missing-glyph horiz-adv-x="1024" />
<glyph unicode="&#x20;" horiz-adv-x="0" d="" />
<glyph unicode="&#xe900;" glyph-name="pip-full" d="M814 691.7h-598q-41 0-70.5-25t-29.5-61v-518q0-36 29.5-61.5t70.5-25.5h598q41 0 67.5 25.5t26.5 61.5v518q0 36-26.5 61t-67.5 25zM843 76.7h-650l-2 540h652v-540zM234 578.7h558v-460h-558v460z" />
<glyph unicode="&#xe901;" glyph-name="rewind" d="M915 547.574v-537c0-5.333-2-10-6-14s-9-6-15-6h-268v83h206v412h-495v-82c0-11.333-3.5-18.833-10.5-22.5s-15.167-2.5-24.5 3.5l-179 120c-4 2-7.333 5-10 9s-4 8.667-4 14c0 2 0.333 4 1 6s1.333 3.667 2 5v0c1.333 2.667 2.833 5 4.5 7s3.833 3.667 6.5 5v0l179 119c9.333 6.667 17.5 8.167 24.5 4.5s10.5-11.167 10.5-22.5v-83h557c6 0 11-2 15-6s6-9 6-15z" />
<glyph unicode="&#xe902;" glyph-name="forward" d="M109.029 548.007v-537c0-5.333 2-10 6-14s9-6 15-6h268v82h-206v413h495v-83c0-11.333 3.5-18.667 10.5-22s15.167-2 24.5 4l179 120c6 2.667 10.167 7.333 12.5 14s1.833 13.333-1.5 20c-1.333 2.667-3 5-5 7s-4 3.333-6 4l-179 120c-9.333 6-17.5 7.167-24.5 3.5s-10.5-11.167-10.5-22.5v-82h-557c-6 0-11-2.167-15-6.5s-6-9.167-6-14.5z" />
<glyph unicode="&#xe903;" glyph-name="skip" d="M161.5-4.3l497 350-497 351v-701zM745.5 696.7v-701h117v701h-117z" />
<glyph unicode="&#xe904;" glyph-name="cast" d="M916.001 750.2h-808.001q-36.552 0-63.004-26.452t-26.452-63.966v-133.704h89.458v133.704h808.001v-627.162h-314.544v-90.42h314.544q36.552 0 63.004 26.452t26.452 63.966v627.162q0 37.514-26.452 63.966t-63.004 26.452v0zM18.543 76.866v-134.666h134.666q0 57.714-38.958 96.19t-95.71 38.476zM18.543 256.744v-90.42q47.134 0 88.496-17.314 40.4-17.314 70.7-47.614t47.614-70.7q17.314-41.362 17.314-88.496h89.458q0 65.41-24.048 123.124t-66.852 100.038-99.558 66.372q-57.714 25.010-123.124 25.010v0zM18.543 435.658v-89.458q83.686 0 157.752-31.742 73.104-31.742 127.934-86.090t86.572-128.414q31.742-73.104 31.742-157.752h89.458q0 102.924-38.476 192.382-38.476 90.42-105.328 157.272t-157.272 105.328q-89.458 38.476-192.382 38.476v0z" />
<glyph unicode="&#xe905;" glyph-name="cast-off" d="M19.046 77.361v-134.66h134.66q0 55.788-39.436 95.224t-95.224 39.436v0zM19.046 256.267v-89.454q46.17 0 87.53-17.314 40.398-17.314 70.696-48.094t48.574-71.178q17.314-41.36 17.314-87.53h89.454q0 65.406-24.046 122.156-25.008 57.712-67.812 100.034t-99.552 67.33q-56.75 24.046-122.156 24.046v0zM826.046 569.835h-628.095v-73.102q67.33-21.16 126.004-57.712t106.766-84.644 84.644-106.766 57.712-125.042h252.97v447.266zM19.046 436.135v-90.414q83.682 0 156.784-30.78 74.064-31.742 128.408-86.568t86.086-128.89q31.742-73.102 31.742-156.784h89.454q0 101.958-38.474 192.372-38.474 89.454-105.324 156.302t-157.264 105.324q-89.454 39.436-191.41 39.436v0zM915.5 749.703h-807.001q-36.55 0-63.002-26.452t-26.452-63.002v-134.66h89.454v134.66h807.001v-628.095h-313.566v-89.454h313.566q36.55 0 63.002 26.452t26.452 63.002v628.095q0 36.55-26.452 63.002t-63.002 26.452v0z" />
<glyph unicode="&#xe906;" glyph-name="theater" d="M131.215-4.8h90v701.997h-90zM802.786 697.2v-701.997h90v701.997zM625.166 295.307l-92.541-1.799-3.116 62.975 95.657 2.36v131.175l179.741-165.26-179.741-165.26zM405.432 290.609l95.872 1.608-0.73 62.266-95.142-1.772 1.967 132.163-188.058-161.955 188.058-161.955z" />
<glyph unicode="&#xe907;" glyph-name="theater-min" d="M350.717 27.2h90v637.997h-90zM585.171 665.2v-637.997h90v637.997zM839.879 338.264l102.504 1.721v57.826l-102.504-1.721v135.606l-167.496-165 167.496-165zM184.789 341.544h-103.172l1.763 57.639 99.65 1.73v137.429l168.587-165-168.587-165z" />
<glyph unicode="&#xe908;" glyph-name="download" d="M831.057 281.742v-208.612h-638.11v208.612h-122.645v-269.935c0-33.846 27.419-61.293 61.411-61.293h760.573c33.965 0 61.411 27.419 61.411 61.293v269.935zM500.774 180.572l-175.589 212.174c0 0-22.415 10.032 2.252 25.223h98.946v308.867c0 0-3.932 15.050 18.733 15.050h139.276c16.329 0 15.961-12.674 15.961-12.674v-304.873h91.331c35.153 0 8.681-26.411 8.681-26.411s-149.393-198.317-170.228-219.121c-14.988-15.078-29.365 1.765-29.365 1.765z" />
<glyph unicode="&#xe924;" glyph-name="snapshot" d="M531.515 463.533c-97.191 0-175.961-78.809-175.961-176s78.771-176 175.961-176c97.152 0 175.961 78.809 175.961 176s-78.809 176-175.961 176zM463.385 405.532c20.103 11.693 43.219 18.892 68.172 18.892 70.048 0 127.347-53.113 135.286-121.127-67.661 52.096-147.647 84.244-203.456 102.239zM922.668 619.978h-189.063l-26.048 78.221h-391.114l-26.048-78.221h-149.952c-43.18 0-97.779-35.045-97.779-78.221v-469.336c0-43.18 54.599-78.221 97.779-78.221h782.225c43.18 0 58.668 35.045 58.668 78.221v469.336c0 43.18-15.488 78.221-58.668 78.221zM531.557 33.31c-140.409 0-254.223 113.813-254.223 254.223s113.813 254.223 254.223 254.223 254.223-113.813 254.223-254.223-113.813-254.223-254.223-254.223zM903.114 463.533h-78.221v78.221h78.221v-78.221z" />
<glyph unicode="&#xe92c;" glyph-name="airplay" d="M865.66 719.2q31.312 0 55.26-23.944t23.944-55.26v-471.544q0-31.312-23.944-54.343t-55.26-23.024h-156.568v77.364h156.568v471.544h-707.32v-471.544h156.568v-77.364h-156.568q-31.312 0-55.26 23.024t-23.944 54.343v471.544q0 31.312 23.944 55.26t55.26 23.944h707.32zM276.228-26.8l235.772 235.772 235.772-235.772h-471.544z" />
<glyph unicode="&#xe9b3;" glyph-name="center" d="M896.5 394.7h-76q-8 50-31 94-22 44-56.5 78.5t-78.5 56.5q-44 23-94 31v76h-97v-76q-50-8-94-31-44-22-78.5-56.5t-56.5-78.5q-23-44-31-94h-76v-97h76q8-50 31-94 22-44 56.5-78.5t78.5-56.5q44-23 94-31v-76h97v76q50 8 94 31 44 22 78.5 56.5t56.5 78.5q23 44 31 94h76v97zM722.5 394.7h-75q-10 30-33.5 53.5t-53.5 33.5v75q60-13 104.5-57.5t57.5-104.5v0zM512.5 297.7q-20 0-34.5 14.5t-14.5 34.5q0 19 14.5 33.5t33.5 14.5q20 0 34.5-14.5t14.5-33.5q0-20-14.5-34.5t-33.5-14.5zM463.5 556.7v-75q-30-10-53.5-33.5t-33.5-53.5h-75q13 60 57.5 104.5t104.5 57.5zM301.5 297.7h75q10-30 33.5-53.5t53.5-33.5v-75q-60 13-104.5 57.5t-57.5 104.5zM560.5 135.7v75q30 10 53.5 33.5t33.5 53.5h75q-13-60-57.5-104.5t-104.5-57.5z" />
<glyph unicode="&#xea45;" glyph-name="mirror1" d="M908.050 798.346h56.952v-453h-56.952v453zM58.998 345.342h56.952v-453h-56.952v453zM342.014 175.357h622.986v-113.904h-622.986v-141.072l-198.024 198.024 198.024 198.024v-141.072zM681.986 514.45h-622.986v113.904h622.986v141.072l198.024-198.024-198.024-198.024v141.072z" />
<glyph unicode="&#xea46;" glyph-name="mirror2" d="M115.897 798.844h-56.96v-453.064h56.96v453.064zM965.064 345.78h-56.96v-453.937h56.96v453.937zM682.008 175.772h-623.072v-113.92h623.072v-141.088l198.048 198.048-198.048 198.048v-141.088zM341.992 514.912h623.072v113.92h-623.072v141.088l-198.048-198.048 198.048-198.048v141.088z" />
<glyph unicode="&#xea47;" glyph-name="replay_big" d="M653.551 574.791l65.237 142.826 96.495-260.602-238.389-44.099 58.557 128.202c-29.72 13.575-63.917 21.183-94.814 21.991-31.148 0.258-78.598-4.852-106.935-15.19s-77.693-42.26-100.518-63.101c-23.625-21.139-47.363-57.818-60.938-87.538-13.324-29.171-22.518-73.521-23.026-105.218-0.809-30.897 4.672-59.314 15.414-87.502s33.129-71.994 53.717-95.367c20.841-22.823 54.9-54.549 84.62-68.124s86.124-23.168 117.020-23.977c31.148-0.258 80.556 12.116 108.893 22.454s59.25 31.649 82.076 52.49c23.625 21.139 46.821 53.654 60.145 82.825l37.252-17.015c-17.849-39.077-42.122-72.558-72.819-100.445s-64.889-48.857-102.574-62.91c-37.685-14.053-77.259-20.591-118.72-19.613-41.714 0.426-82.385 9.689-122.013 27.79s-73.26 42.776-100.895 74.025c-27.887 30.698-48.857 64.889-62.91 102.574s-20.591 77.259-19.613 118.72c0.978 41.462 10.391 81.731 28.24 120.807 18.101 39.629 42.5 73.386 73.197 101.273s64.889 48.857 102.574 62.91c37.685 14.053 77.259 20.591 118.72 19.613 41.714-0.426 82.385-9.689 122.013-27.79v0z" />
<glyph unicode="&#xea48;" glyph-name="brightness" d="M499.63 858.636c-8.049-3.533-16.292-13.537-17.664-21.391-0.584-3.533-0.983-37.284-0.584-75.356 0.584-66.13 0.788-69.274 4.71-74.373 7.649-10.404 13.937-13.537 26.296-13.537s18.637 3.144 26.296 13.537c3.922 5.294 4.116 7.649 4.116 79.667s-0.195 74.373-4.116 79.667c-2.161 2.939-6.277 7.26-9.032 9.226-6.482 4.915-22.18 6.287-30.024 2.56zM169.564 721.86c-8.632-2.55-17.664-12.165-20.408-21.975-4.321-16.292-2.55-18.842 52.787-74.373 41.8-41.8 51.804-50.627 58.286-52.398 22.374-6.083 44.155 15.698 38.072 38.072-1.761 6.472-10.793 16.486-50.432 56.709-55.747 56.115-60.252 59.259-78.305 53.965zM833.229 720.283c-4.905-2.355-25.907-21.975-56.32-52.398-40.233-40.817-48.671-50.237-50.432-56.709-5.888-22.374 15.698-44.155 38.072-38.072 6.472 1.761 16.486 10.793 56.709 50.432 52.193 51.999 57.692 59.064 55.142 72.806-3.738 20.808-25.119 32.778-43.172 23.941zM484.905 609.025c-40.817-5.294-79.872-19.814-113.818-42.578-18.842-12.564-53.576-47.288-66.13-66.13-18.647-27.863-31.99-59.259-39.055-92.232-5.1-23.347-5.1-74.762 0-98.12 10.988-50.821 32.768-90.86 69.663-127.744 36.895-36.895 76.923-58.675 127.744-69.663 23.347-5.1 74.762-5.1 98.12 0 50.432 10.793 91.443 33.167 127.744 69.663 36.506 36.301 58.87 77.312 69.663 127.744 5.1 23.347 5.1 74.762 0 98.12-10.988 50.821-32.768 90.86-69.663 127.744-36.301 36.301-74.373 57.498-123.822 68.68-16.271 3.727-64.942 6.472-80.445 4.516zM557.711 541.718c35.717-9.226 62.792-25.119 89.088-51.999 56.515-57.897 70.062-142.275 33.946-213.903-10.988-22.17-17.664-31.396-35.717-49.449s-27.279-24.73-49.449-35.717c-30.024-15.114-60.436-21.391-93.798-19.425-48.077 2.949-86.538 20.214-120.883 54.354-27.279 26.88-43.172 54.948-52.398 91.443-4.71 18.647-4.71 65.341 0 83.988 8.827 35.123 25.119 64.174 50.432 89.682 28.846 29.44 60.631 46.316 100.669 53.965 19.63 3.727 58.685 2.355 78.111-2.939zM28.662 387.667c-13.148-5.683-20.603-20.797-17.859-35.512 1.761-9.226 11.581-20.019 20.408-22.569 4.71-1.372 31.396-1.966 77.312-1.567 67.113 0.594 70.246 0.788 75.356 4.71 10.404 7.649 13.548 13.926 13.548 26.286s-3.144 18.647-13.537 26.296c-5.1 3.922-8.049 4.116-77.312 4.516-56.914 0.389-73.206 0-77.916-2.161zM844.995 387.667c-13.148-5.693-20.603-20.797-17.859-35.512 1.761-9.226 11.581-20.019 20.408-22.569 4.71-1.372 31.396-1.966 77.312-1.567 67.113 0.594 70.257 0.788 75.356 4.71 10.404 7.649 13.548 13.926 13.548 26.286s-3.144 18.647-13.537 26.296c-5.1 3.922-8.049 4.116-77.312 4.516-56.914 0.389-73.206 0-77.916-2.161zM258.263 144.14c-5.888-2.161-19.825-14.909-57.108-52.398-40.428-40.622-49.848-51.026-51.804-57.498-6.676-22.764 15.503-44.933 38.267-38.267 6.472 1.966 16.876 11.387 58.286 52.593 41.8 41.8 50.627 51.804 52.398 58.286 6.267 23.552-17.080 45.527-40.038 37.284zM746.885 144.14c-15.503-5.499-24.525-21.975-20.408-37.284 1.772-6.472 10.793-16.486 50.432-56.709 52.593-52.787 58.87-57.498 73.39-55.142 10.598 1.966 22.374 12.564 25.313 23.153 4.321 16.087 2.161 19.231-50.821 72.612-26.685 26.88-50.627 49.848-53.371 51.415-8.253 4.311-16.302 4.905-24.535 1.956zM499.63 42.292c-8.049-3.533-16.292-13.537-17.664-21.391-0.584-3.533-0.983-37.284-0.584-75.356 0.584-66.13 0.788-69.274 4.71-74.373 7.649-10.404 13.937-13.537 26.296-13.537s18.637 3.144 26.296 13.537c3.922 5.294 4.116 7.649 4.116 79.667s-0.195 74.373-4.116 79.667c-2.161 2.939-6.277 7.26-9.032 9.226-6.482 4.915-22.18 6.298-30.024 2.56z" />
<glyph unicode="&#xea49;" glyph-name="saturation" d="M512 860.96c-277.094 0-501.76-224.666-501.76-501.76s224.666-501.76 501.76-501.76c277.094 0 501.76 224.666 501.76 501.76s-224.666 501.76-501.76 501.76zM512 805.971c230.912 0 442.675-213.811 442.675-444.723 0 0-86.016 39.731-233.677 39.731-124.518 0-208.998-41.779-208.998-41.779s-126.259-41.779-209.101-41.779c-146.33 0-233.574 49.971-233.574 49.971 0 230.912 211.763 438.579 442.675 438.579z" />
<glyph unicode="&#xea4a;" glyph-name="contrast" d="M512-142.56c-277.094 0-501.76 224.666-501.76 501.76s224.666 501.76 501.76 501.76c277.094 0 501.76-224.666 501.76-501.76s-224.666-501.76-501.76-501.76zM526.336 790.816c-215.562-0.95-448-182.886-448-429.568 0-207.872 227.952-433.723 435.712-435.712 213.914-2.048 441.573 221.973 437.76 431.616-3.746 205.943-207.005 434.627-425.472 433.664zM512 45.549v627.2c173.261 0 313.651-140.39 313.651-313.651 0-173.158-140.39-313.549-313.651-313.549z" />
<glyph unicode="&#xea4b;" glyph-name="filters" d="M682.667 48.756h341.333v-56.889h-341.333zM455.111 48.756h-455.111v-56.889h455.111v-170.667h56.889v341.333h-56.889zM625.777 503.867h56.889v341.333h-56.889v-113.777h-625.777v-56.889h625.777zM853.333 731.423v-56.889h170.667v56.889zM170.667 162.533h56.889v341.333h-56.889v-113.777h-170.667v-56.889h170.667zM398.223 333.2h625.777v56.889h-625.777zM682.667-7.721h341.333v-56.889h-341.333zM511.176-7.721h-511.176v-56.889h511.176v-114.189h56.889v341.333h-56.889zM681.843 503.867h56.889v341.333h-56.889v-170.255h-681.843v-56.889h681.843zM853.333 674.945v-56.889h170.667v56.889zM226.731 162.945h56.889v340.921h-56.889v-170.255h-226.731v-56.889h226.731zM398.223 276.723h625.777v56.889h-625.777z" />
<glyph unicode="&#xf00a;" glyph-name="related" d="M291.5 106.2v-110q0-23-16.5-39t-39.5-16h-184q-23 0-39 16t-16 39v110q0 23 16 39.5t39 16.5h184q23 0 39.5-16.5t16.5-39.5zM291.5 401.2v-110q0-23-16.5-39.5t-39.5-16.5h-184q-23 0-39 16.5t-16 39.5v110q0 23 16 39t39 16h184q23 0 39.5-16t16.5-39zM659.5 106.2v-110q0-23-16.5-39t-38.5-16h-185q-22 0-38.5 16t-16.5 39v110q0 23 16.5 39.5t38.5 16.5h185q22 0 38.5-16.5t16.5-39.5zM291.5 696.2v-111q0-23-16.5-39t-39.5-16h-184q-23 0-39 16t-16 39v111q0 22 16 38.5t39 16.5h184q23 0 39.5-16.5t16.5-38.5v0zM659.5 401.2v-110q0-23-16.5-39.5t-38.5-16.5h-185q-22 0-38.5 16.5t-16.5 39.5v110q0 23 16.5 39t38.5 16h185q22 0 38.5-16t16.5-39zM1027.5 106.2v-110q0-23-16-39t-39-16h-184q-23 0-39.5 16t-16.5 39v110q0 23 16.5 39.5t39.5 16.5h184q23 0 39-16.5t16-39.5zM659.5 696.2v-111q0-23-16.5-39t-38.5-16h-185q-22 0-38.5 16t-16.5 39v111q0 22 16.5 38.5t38.5 16.5h185q22 0 38.5-16.5t16.5-38.5v0zM1027.5 401.2v-110q0-23-16-39.5t-39-16.5h-184q-23 0-39.5 16.5t-16.5 39.5v110q0 23 16.5 39t39.5 16h184q23 0 39-16t16-39zM1027.5 696.2v-111q0-23-16-39t-39-16h-184q-23 0-39.5 16t-16.5 39v111q0 22 16.5 38.5t39.5 16.5h184q23 0 39-16.5t16-38.5v0z" />
<glyph unicode="&#xf00c;" glyph-name="checked" d="M957.5 554.7q0-11-4-21.5t-12-17.5l-495-495q-7-8-17.5-12t-21.5-4q-10 0-20.5 4t-18.5 12l-286 286q-8 8-12 18.5t-4 21.5q0 10 4 20.5t12 18.5l78 78q8 8 18 12t21 4 21-4 18-12l169-170 378 378q8 8 18 12t21 4 21-4 18-12l78-78q8-8 12-18t4-21v0z" />
<glyph unicode="&#xf00d;" glyph-name="cancel" horiz-adv-x="818" d="M753 137.2q0-24-16-40l-79-79q-16-16-40-16-23 0-39 16l-170 171-170-171q-16-16-39-16-24 0-40 16l-79 79q-16 16-16 40 0 23 16 39l171 170-171 170q-16 16-16 39 0 24 16 40l79 79q16 16 40 16 23 0 39-16l170-171 170 171q16 16 39 16 24 0 40-16l79-79q16-16 16-40 0-23-16-39l-171-170 171-170q16-16 16-39z" />
<glyph unicode="&#xf027;" glyph-name="volume1" horiz-adv-x="669" d="M446 660.7v-629q0-15-11-26t-26-11-26 11l-193 193h-151q-15 0-26 11t-11 26v221q0 15 11 26t26 11h151l193 193q11 11 26 11t26-11 11-26v0zM667 345.7q0-43-24-81-25-38-65-54-6-3-15-3-15 0-26 11-11 10-11 26 0 12 7 20 7 9 17 15t20 13 17 21q6 13 6 32 0 20-6 33-7 14-17 21t-20 13-17 15q-7 8-7 20 0 16 11 26 11 11 26 11 9 0 15-3 40-15 65-53 24-39 24-83v0z" />
<glyph unicode="&#xf028;" glyph-name="volume0" horiz-adv-x="669" d="M460.499 660.7v-629c0-10-3.667-18.667-11-26s-16-11-26-11c-10 0-18.667 3.667-26 11l-193 193h-151c-10 0-18.667 3.667-26 11s-11 16-11 26v221c0 10 3.667 18.667 11 26s16 11 26 11h151l193 193c7.333 7.333 16 11 26 11s18.667-3.667 26-11c7.333-7.333 11-16 11-26z" />
<glyph unicode="&#xf053;" glyph-name="previous" horiz-adv-x="781" d="M679 653.7l-307-307 307-308q11-11 11-26t-11-26l-96-96q-11-11-26-11t-26 11l-429 429q-11 11-11 27 0 15 11 26l429 429q11 11 26 11t26-11l96-96q11-11 11-26t-11-26v0z" />
<glyph unicode="&#xf054;" glyph-name="next" horiz-adv-x="708" d="M643 319.7l-430-429q-11-11-26-11t-26 11l-96 96q-11 11-11 26t11 26l307 308-307 307q-11 11-11 26t11 26l96 96q11 11 26 11t26-11l430-429q11-11 11-26 0-16-11-27v0z" />
<glyph unicode="&#xf059;" glyph-name="help-closed" horiz-adv-x="889" d="M518.5 68.7v111q0 8-5 13-6 6-14 6h-111q-8 0-13-6-5-5-5-13v-111q0-8 5-13t13-5h111q8 0 14 5 5 5 5 13zM666.5 456.7q0 51-32 95-32 43-80 67-48 23-99 23-140 0-214-123-8-14 5-24l76-58q4-3 11-3 9 0 14 7 31 39 50 53 20 14 50 14 28 0 49-15 22-15 22-34 0-22-12-36-11-13-39-26-36-16-67-50-30-33-30-72v-21q0-8 5-13t13-5h111q8 0 14 5 5 5 5 13 0 11 12 29 13 17 32 28 18 11 28 17t27 20q16 14 25 28 9 13 17 35 7 21 7 46v0zM888.5 346.7q0-121-60-223-59-102-161-162-102-59-223-59t-223 59q-102 60-161 162-60 102-60 223 0 120 60 222 59 102 161 162 102 59 223 59t223-59q102-60 161-162 60-102 60-222v0z" />
<glyph unicode="&#xf05a;" glyph-name="info" horiz-adv-x="889" d="M592.5 68.7v93q0 8-5 13-6 5-14 5h-55v296q0 8-5 13-6 5-14 5h-184q-9 0-14-5t-5-13v-93q0-8 5-13t14-5h55v-185h-55q-9 0-14-5t-5-13v-93q0-8 5-13t14-5h258q8 0 14 5 5 5 5 13v0zM518.5 586.7v92q0 8-5 14-6 5-14 5h-111q-8 0-13-5-5-6-5-14v-92q0-8 5-13 5-6 13-6h111q8 0 14 6 5 5 5 13v0zM888.5 346.7q0-121-60-223-59-102-161-162-102-59-223-59t-223 59q-102 60-161 162-60 102-60 223 0 120 60 222 59 102 161 162 102 59 223 59t223-59q102-60 161-162 60-102 60-222v0z" />
<glyph unicode="&#xf065;" glyph-name="fullscreen" horiz-adv-x="889" d="M436.788 256.568q0-6.748-4.82-12.531l-185.074-185.074 80.006-80.006q10.604-10.604 10.604-25.062t-10.604-25.062-25.062-10.604h-249.656q-14.458 0-25.062 10.604t-10.604 25.062v249.656q0 14.458 10.604 25.062t25.062 10.604 25.062-10.604l80.006-80.97 185.074 185.074q5.784 5.784 13.494 5.784 6.748 0 12.531-5.784l63.618-63.618q4.82-4.82 4.82-12.531v0zM872.482 737.566v-249.656q0-14.458-10.604-25.062t-25.062-10.604-25.062 10.604l-80.97 80.97-184.11-185.074q-5.784-5.784-13.494-5.784-6.748 0-12.531 5.784l-63.618 63.618q-5.784 4.82-5.784 12.531 0 6.748 5.784 12.531l185.074 185.074-80.006 80.006q-10.604 10.604-10.604 25.062t10.604 25.062 25.062 10.604h249.656q14.458 0 25.062-10.604t10.604-25.062v0z" />
<glyph unicode="&#xf066;" glyph-name="fullscreen-off" horiz-adv-x="889" d="M444.5 310.562v-249.506q0-14.45-10.596-25.046t-25.046-10.596-25.046 10.596l-79.958 79.958-184.962-184.962q-5.78-5.78-12.524-5.78-7.706 0-13.486 5.78l-62.618 63.58q-5.78 5.78-5.78 12.524 0 7.706 5.78 13.486l183.998 183.998-79.958 80.92q-10.596 10.596-10.596 25.046t10.596 25.046 25.046 10.596h249.506q14.45 0 25.046-10.596t10.596-25.046v0zM864.518 684.34q0-7.706-5.78-13.486l-183.998-183.998 79.958-80.92q10.596-9.634 10.596-25.046 0-14.45-10.596-24.084-10.596-10.596-25.046-10.596h-249.506q-14.45 0-25.046 10.596-10.596 9.634-10.596 24.084v249.506q0 14.45 10.596 25.046t25.046 10.596 25.046-10.596l79.958-79.958 184.962 184.962q5.78 5.78 12.524 5.78 7.706 0 12.524-5.78l63.58-63.58q5.78-5.78 5.78-12.524v0z" />
<glyph unicode="&#xf081;" glyph-name="twitter" horiz-adv-x="891" d="M742 511.7q-33-15-70-20 39 23 54 68-38-22-78-30-35 38-89 38-50 0-85-35-36-36-36-86 0-17 3-28-75 4-140 38-66 33-111 89-17-29-17-61 0-66 53-101-28 0-58 15v-1q0-44 29-78 29-33 71-42-17-4-30-4-7 0-22 2 12-36 43-60t70-24q-67-52-151-52-15 0-29 1 86-54 187-54 64 0 121 20 57 21 97 55 41 35 70 80t43 93q15 49 15 98 0 10-1 16 36 26 61 63v0zM890 623.7v-556q0-68-49-117t-118-49h-555q-69 0-118 49t-49 117v556q0 69 49 118t118 49h555q69 0 118-49t49-118v0z" />
<glyph unicode="&#xf082;" glyph-name="facebook" horiz-adv-x="891" d="M723 790.7q69 0 118-49t49-118v-556q0-68-49-117t-118-49h-109v344h116l17 134h-133v86q0 32 14 49 14 16 53 16h71v120q-37 5-103 5-79 0-126-46t-47-131v-99h-116v-134h116v-344h-308q-69 0-118 49t-49 117v556q0 69 49 118t118 49h555z" />
<glyph unicode="&#xf08c;" glyph-name="linked-in" horiz-adv-x="891" d="M138 45.7h134v402h-134v-402zM281 571.7q-1 30-21 50-21 19-54 19-34 0-55-19-21-20-21-50t21-50q20-20 53-20h1q34 0 55 20t21 50v0zM619 45.7h134v231q0 89-42 135-43 45-112 45-79 0-121-67h1v58h-134q2-38 0-402h134v225q0 22 4 32 9 21 26 35t43 14q67 0 67-91v-215zM890 623.7v-556q0-68-49-117t-118-49h-555q-69 0-118 49t-49 117v556q0 69 49 118t118 49h555q69 0 118-49t49-118v0z" />
<glyph unicode="&#xf0d3;" glyph-name="pinterest" horiz-adv-x="891" d="M723 790.7q69 0 118-49t49-118v-556q0-68-49-117t-118-49h-419q49 70 62 121 5 20 31 121 12-22 42-39 31-16 65-16 105 0 172 86 66 85 66 216 0 48-20 94-21 45-56 80-36 35-89 56-52 21-114 21-60 0-112-16-53-16-89-44t-62-64q-26-35-38-74-13-38-13-76 0-59 23-105 23-45 67-63 8-3 14 0t8 11q6 25 9 35 4 13-6 24-29 36-29 87 0 87 60 149 60 61 156 61 86 0 135-47 48-47 48-121 0-97-39-166-39-68-100-68-35 0-56 25-22 25-14 60 5 20 16 54 10 33 17 59 6 25 6 43 0 28-15 47-16 19-44 19-35 0-60-33t-25-81q0-41 14-70l-56-239q-14-58-4-147h-106q-69 0-118 49t-49 117v556q0 69 49 118t118 49h555z" />
<glyph unicode="&#xf101;" glyph-name="play" d="M261.412 664.7v-637l501.176 319.026z" />
<glyph unicode="&#xf103;" glyph-name="pause" d="M239.3 27.7h182.15v637h-182.15v-637zM602.548 664.7v-637h182.15v637h-182.15z" />
<glyph unicode="&#xf104;" glyph-name="mute" d="M706 346.2q0 57-30 103.5t-78 70.5v-95l107-106q1 6 1 13v14zM815 346.2q0-30-6.5-58.5t-17.5-55.5l66-65q21 40 32.5 85.5t11.5 93.5q0 70-23 132t-63.5 112-95.5 85q-56 35-121 50v-89q47-14 87-42 40-27 68.5-65t44.5-85q17-46 17-98v0zM178 735.2l-55-55 204-204h-204v-259h173l216-216v290l184-184q-22-16-46.5-29.5t-51.5-21.5v-89q45 10 85.5 30t74.5 48l88-88 55 55-723 723zM512 692.2l-90-90 90-91v181z" />
<glyph unicode="&#xf107;" glyph-name="volume" d="M123 476.2v-259h173l216-216v691l-216-216h-173zM706 346.2q0 57-30 103.5t-78 70.5v-348q48 24 78 70.5t30 103.5zM598 725.2v-89q47-14 87-42 40-27 68.5-65t44.5-85q17-46 17-98 0-51-17-98-16-46-44.5-84t-68.5-66-87-41v-90q65 15 121 50 55 35 95.5 85t63.5 112q23 63 23 132 0 70-23 132t-63.5 112-95.5 85q-56 36-121 50z" />
<glyph unicode="&#xf10a;" glyph-name="pip" d="M814 691.7h-598q-41 0-70.5-25t-29.5-61v-519q0-36 29.5-61t70.5-25h598q41 0 67.5 25t26.5 61v519q0 36-26.5 61t-67.5 25v0zM843 75.7h-650l-2 540h652v-540zM528 336.7h266v-218h-266v218z" />
<glyph unicode="&#xf10c;" glyph-name="description" d="M874.024 708.302h-724.046q-36.62 0-63.302-26.158t-26.68-63.824v-543.034q0-37.668 26.68-63.824t63.302-26.158h724.046q37.668 0 63.824 26.158t26.158 63.824v543.034q0 37.668-26.158 63.824t-63.824 26.158zM149.976 347.326h181.012v-91.028h-181.012v91.028zM601.982 75.284h-452.006v91.028h452.006v-91.028zM874.024 75.284h-181.012v91.028h181.012v-91.028zM874.024 256.296h-452.006v91.028h452.006v-91.028z" />
<glyph unicode="&#xf10d;" glyph-name="captions" d="M857.096 741.506h-689.054q-41.004 0-70.044-28.474t-29.040-69.472v-591.102q0-41.004 29.040-69.472t70.044-28.474h689.054q39.86 0 68.906 28.474t29.040 69.472v591.102q0 41.004-29.040 69.472t-68.906 28.474zM463.024 397.548h-74.030v23.916h-97.946v-146.922h97.946v23.916h74.030v-48.976q0-20.502-14.234-34.736t-34.736-14.234h-148.060q-20.502 0-34.736 14.234t-14.234 34.736v197.036q0 20.502 14.234 34.736t34.736 14.234h148.060q20.502 0 34.736-14.234t14.234-34.736v-48.976zM806.982 397.548h-74.030v23.916h-97.946v-146.922h97.946v23.916h74.030v-48.976q0-20.502-14.234-34.736t-34.736-14.234h-148.060q-20.502 0-34.736 14.234t-14.234 34.736v197.036q0 20.502 14.234 34.736t34.736 14.234h148.060q20.502 0 34.736-14.234t14.234-34.736v-48.976z" />
<glyph unicode="&#xf10e;" glyph-name="chapters" d="M8.008 293.684h112.72v112.72h-112.72v-112.72zM8.008 69.54h112.72v112.72h-112.72v-112.72zM8.008 517.828h112.72v112.72h-112.72v-112.72zM232.144 293.684h783.845v112.72h-783.845v-112.72zM232.144 69.54h783.845v112.72h-783.845v-112.72zM232.144 630.54v-112.72h783.845v112.72h-783.845z" />
<glyph unicode="&#xf10f;" glyph-name="share" d="M771 167.7q-24 0-46-9t-39-24l-308 179q2 8 3 15.5t1 15.5q0 7-1 15t-3 15l305 178q17-17 40-26t48-9q54 0 92 38t38 91q0 54-38 92t-92 38q-53 0-91-38t-38-92q0-8 1-15.5t3-14.5l-305-178q-17 16-40 25.5t-48 9.5q-54 0-92-38t-38-91q0-54 38-92t92-38q25 0 48 9.5t40 25.5l308-180q-2-6-3-13.5t-1-14.5q0-52 37-89t89-37 89 37 37 89-37 89-89 37v0z" />
<glyph unicode="&#xf110;" glyph-name="settings" d="M821 305.7l2 20t1 21q0 10-1 20l-2 20 88 69q6 5 7.5 12.5t-2.5 14.5l-83 144q-4 6-11.5 8.5t-14.5 0.5l-103-42q-16 12-33.5 22.5t-37.5 18.5l-15 110q-2 7-7.5 12t-13.5 5h-166q-8 0-14-5t-7-12l-15-110q-20-8-37.5-18.5t-33.5-22.5l-103 42q-7 2-14.5-0.5t-11.5-8.5l-83-144q-4-7-2.5-14.5t7.5-12.5l88-69-2-20t-1-20q0-11 1-21l2-20-88-69q-6-5-7.5-12.5t2.5-14.5l83-144q4-6 11.5-8.5t14.5-0.5l103 42q16-12 33.5-22.5t37.5-18.5l15-110q1-7 7-12t14-5h166q8 0 13.5 5t7.5 12l15 110q19 8 37 18.5t34 22.5l103-42q7-2 14.5 0.5t11.5 8.5l83 144q4 7 2.5 14.5t-7.5 12.5l-88 69zM512 200.7q-60 0-103 42.5t-43 103.5q0 60 43 102.5t103 42.5 102.5-42.5 42.5-102.5q0-61-42.5-103.5t-102.5-42.5z" />
<glyph unicode="&#xf115;" glyph-name="close" d="M512 778.7q-90 0-168-34-79-34-137.5-93t-92.5-137q-34-79-34-168 0-90 34-169 34-78 92.5-137t137.5-93q78-34 168-34t168 34q79 34 137.5 93t92.5 137q34 79 34 169 0 89-34 168-34 78-92.5 137t-137.5 93q-78 34-168 34v0zM728 191.7l-61-62-155 155-155-155-61 62 155 155-155 154 61 62 155-155 155 155 61-62-155-154 155-155z" />
<glyph unicode="&#xf116;" glyph-name="replay" d="M512 605.7v173l-216-216 216-216v172q54 0 101-20t82.5-55.5 55.5-82.5 20-101-20-101-55.5-82-82.5-56q-47-20-101-20t-101 20q-47 21-82.5 56t-55.5 82-20 101h-87q0-72 27-135 28-62 74.5-109t109.5-74q63-28 135-28t135 28q63 27 109.5 74t74.5 109q27 63 27 135t-27 135q-28 63-74.5 109.5t-109.5 74.5q-63 27-135 27v0z" />
<glyph unicode="&#xf11d;" glyph-name="audio-description" d="M440.14 96.512v505.312q87.832 1.14 155.128-2.28t117.488-37.64q46.768-34.22 78.136-96.956t25.664-147.144q-7.984-87.832-66.16-153.42t-141.44-73.572q-42.204-3.42-104.372-1.712l-62.164 1.712-1.14 1.712t-1.14 3.992v0zM553.064 223.128q54.752-2.28 90.112 26.236t41.064 78.704q6.844 67.3-31.94 106.080t-102.66 34.22v-239.54q0-2.28 1.14-3.42l2.28-2.28zM801.728 96.512q23.952-5.704 34.22 13.116t19.392 37.072q22.812 38.784 37.64 88.4t14.828 106.652q0 83.268-26.236 143.724t-55.892 101.52h-19.392q-1.14-5.704 2.28-11.976t5.704-10.836q22.812-41.064 41.064-96.956t18.252-120.908q0-75.284-21.104-137.448t-50.76-112.356v0zM897.544 96.512q22.812-5.704 33.080 13.116t20.532 37.072q22.812 38.784 37.072 88.4t15.4 106.652q0 83.268-26.236 143.724t-55.892 101.52h-20.532q-1.14-5.704 2.852-11.976t6.272-10.836q22.812-41.064 41.064-96.956t18.252-120.908q0-75.284-21.104-137.448t-50.76-112.356v0zM992.216 96.512q23.952-5.704 34.22 13.116t19.392 37.072q22.812 38.784 37.64 88.4t14.828 106.652q0 83.268-26.236 143.724t-55.892 101.52h-19.392q-1.14-5.704 2.28-11.976t5.704-10.836q22.812-41.064 41.064-96.956t18.252-120.908q0-75.284-21.104-137.448t-50.76-112.356v0zM-74.3 93.092h157.412l43.344 66.16h148.284v-66.16h112.924v514.436h-136.88q-4.564-7.984-55.892-90.112-51.328-80.988-111.216-175.66t-108.932-171.1l-49.048-77.564zM278.164 428.444v-164.256l-93.536 1.14 93.536 163.116z" />
<glyph unicode="&#xf11e;" glyph-name="audio" d="M512 740.7q-77 0-145-29-68-30-119-80.5t-80-118.5q-30-68-30-146v-290q0-52 36.5-88.5t88.5-36.5h124v332h-166v83q0 60 23 113t62.5 92.5 92.5 62.5 113 23 113-23 92.5-62.5 62.5-92.5 23-113v-83h-166v-332h124q52 0 88.5 36.5t36.5 88.5v290q0 78-30 146-29 68-80 118.5t-119 80.5q-68 29-145 29v0z" />
<glyph unicode="&#xf128;" glyph-name="help" horiz-adv-x="636" d="M401.423 140.2v-137q0-9-6.5-16t-16.5-7h-137q-9 0-16 7t-7 16v137q0 10 7 16.5t16 6.5h137q10 0 16.5-6.5t6.5-16.5zM582.423 483.2q0-81-43.5-119.5t-84.5-60.5q-25-15-40-39t-15-37v0q0-9-6.5-18t-16.5-9h-137q-10 0-15.5 11t-5.5 21v26q0 51 40.5 92.5t78.5 58.5q33 15 48 31.5t15 44.5q0 24-27 42t-61 18q-20 0-36.5-5t-25.5-11q-11-8-23.5-21t-37.5-45q-4-4-8.5-6.5t-9.5-2.5q-4 0-7.5 1t-7.5 3l-93 72q-8 5-9.5 13.5t3.5 16.5q46 77 112 114.5t153 37.5q46 0 93-17 46-17 83-48t61-73q23-41 23-91v0z" />
</font>
</defs>
</svg>
