<?xml version="1.0" standalone="no"?>
<!DOCTYPE svg PUBLIC "-//W3C//DTD SVG 1.1//EN" "http://www.w3.org/Graphics/SVG/1.1/DTD/svg11.dtd" >
<svg xmlns="http://www.w3.org/2000/svg">
<metadata>Generated by IcoMoon</metadata>
<defs>
<font id="nuevo" horiz-adv-x="1024">
<font-face units-per-em="1024" ascent="960" descent="-64" />
<missing-glyph horiz-adv-x="1024" />
<glyph unicode="&#x20;" horiz-adv-x="0" d="" />
<glyph unicode="&#xe659;" glyph-name="replay" d="M1024.5 527.667l-21 21-91-91q-6 89-44 167-38 77-99.5 134.5t-141.5 91.5q-80 33-171 33-95 0-178-36t-145-98-98-145q-36-84-36-178 0-95 36-178t98-145 145-98 178-36q50 0 98 11 48 10 92.5 30.5t83.5 49.5q40 30 72 68l-22 19q-31-35-68-63t-78-47-86-29-92-10q-88 0-166 34t-136 92-92 136-34 166 34 166 92 136 136 92q78 33 166 33 84 0 159-30 74-31 131.5-84t93.5-125 42-155l-79 79-21-21 106-105h21l115 115z" />
<glyph unicode="&#xe901;" glyph-name="audio" d="M963 391.667q-5 101-42 190t-97.5 155-140.5 104-171 38-171-38-140.5-104-97.5-155-42-190q-26-9-43.5-32.5t-17.5-52.5v-241q0-38 26.5-64.5t63.5-26.5h91v60h60v302h-60v60h-59q5 88 37 165 33 77 85.5 134t121.5 90q68 33 146 33t146-33q69-33 121.5-90t85.5-134q32-77 37-165h-59v-60h-60v-302h60v-60h91q37 0 63.5 26.5t26.5 64.5v241q0 29-17.5 52.5t-43.5 32.5v0zM120 34.667h-30q-12 0-21 9t-9 22v241q0 12 9 21t21 9h30v-302zM964 65.667q0-13-9-22t-21-9h-30v302h30q12 0 21-9t9-21v-241z" />
<glyph unicode="&#xe902;" glyph-name="chapters" d="M1024 697.667v-60h-723v60h723zM181 667.667q0-37-26.5-63.5t-64.5-26.5q-37 0-63.5 26.5t-26.5 63.5 26.5 63.5 63.5 26.5q38 0 64.5-26.5t26.5-63.5zM120 667.667q0 12-8.5 21t-21.5 9q-12 0-21-9t-9-21 9-21 21-9q13 0 21.5 9t8.5 21zM301 396.667h723v60h-723v-60zM181 426.667q0-37-26.5-63.5t-64.5-26.5q-37 0-63.5 26.5t-26.5 63.5 26.5 63.5 63.5 26.5q38 0 64.5-26.5t26.5-63.5v0zM120 426.667q0 12-8.5 21t-21.5 9q-12 0-21-9t-9-21 9-21 21-9q13 0 21.5 9t8.5 21zM301 155.667h723v60h-723v-60zM181 185.667q0-37-26.5-63.5t-64.5-26.5q-37 0-63.5 26.5t-26.5 63.5 26.5 63.5 63.5 26.5q38 0 64.5-26.5t26.5-63.5zM120 185.667q0 12-8.5 21t-21.5 9q-12 0-21-9t-9-21 9-21 21-9q13 0 21.5 9t8.5 21z" />
<glyph unicode="&#xe903;" glyph-name="uniE903" d="M162 76.667l496 350-496 350v-700zM745 776.667v-700h117v700h-117z" />
<glyph unicode="&#xe904;" glyph-name="chromecast1" d="M915.001 829.668h-806.001q-36.548 0-62.998-26.45t-26.45-62.998v-134.654h89.448v134.654h806.001v-627.104h-313.552v-89.448h313.552q36.548 0 62.998 26.45t26.45 62.998v627.104q0 36.548-26.45 62.998t-62.998 26.45zM19.551 158.322v-134.654h134.654q0 56.748-38.954 95.7t-95.7 38.954zM19.551 337.22v-89.448q47.128 0 87.526-17.312 41.358-17.312 71.656-47.61t47.61-71.656q17.312-40.396 17.312-87.526h89.448q0 65.404-25.008 123.112-24.046 56.748-66.366 99.066t-100.028 67.328q-56.748 24.046-122.15 24.046zM19.551 516.116v-89.448q83.678 0 157.738-31.74 73.098-30.778 127.44-85.602t86.082-127.922q31.74-74.060 31.74-157.738h89.448q0 102.914-38.472 192.363t-105.318 156.294-156.294 105.318q-90.41 38.472-192.363 38.472z" />
<glyph unicode="&#xe905;" glyph-name="chromecast2" d="M19.551 158.322v-134.654h134.654q0 55.786-39.434 95.22t-95.22 39.434v0zM19.551 337.22v-89.448q46.168 0 87.526-17.312 40.396-18.274 70.694-48.572t47.61-70.694q18.274-41.358 18.274-87.526h89.448q0 65.404-25.008 122.15-24.046 56.748-66.846 99.548t-99.548 66.846q-57.708 25.008-122.15 25.008v0zM825.553 650.77h-627.104v-73.098q66.366-22.122 125.036-57.708 59.632-36.548 107.724-84.64t83.678-107.724q36.548-58.67 58.67-125.036h251.996v448.206zM19.551 516.116v-89.448q83.678 0 156.776-31.74t127.922-86.564 86.564-127.922 31.74-156.776h89.448q0 101.952-38.472 191.402-38.472 90.41-105.318 157.256t-157.256 105.318q-89.448 38.472-191.402 38.472v0zM915.001 829.668h-806.001q-36.548 0-62.998-26.45t-26.45-62.998v-134.654h89.448v134.654h806.001v-627.104h-313.552v-89.448h313.552q36.548 0 62.998 26.45t26.45 62.998v627.104q0 36.548-26.45 62.998t-62.998 26.45v0z" />
<glyph unicode="&#xe906;" glyph-name="theater" d="M140.671 75.667h81.088v701.997h-81.088zM802.242 777.667v-701.997h81.088v701.997zM645.16 377.978l-87.401-1.664-1.664 57.118 89.065 3.328v121.359l159.125-152.893-159.125-152.893zM378.519 373.050l87.401 4.993-1.664 54.979-85.737-1.664 1.664 124.089-159.125-152.061 159.125-152.061z" />
<glyph unicode="&#xe907;" glyph-name="theater-min" d="M331.157 107.667h73.696v637.997h-73.696zM619.611 745.667v-637.997h73.696v637.997zM835.44 402.177l88.503 1.512v50.817l-88.503-1.512v119.169l-144.617-145 144.617-145zM188.56 405.255h-88.503l1.512 50.388 85.482 1.512v120.141l144.617-144.244-144.617-144.244z" />
<glyph unicode="&#xe908;" glyph-name="pause" d="M323 70.667h74v712h-74v-712zM622 782.667v-712h79v712h-79z" />
<glyph unicode="&#xe909;" glyph-name="play" d="M220 776.667v-700l584 352zM271 679.667l420-252-420-253v505z" />
<glyph unicode="&#xe90a;" glyph-name="settings" d="M512 577.667q-62 0-106.5-44.5t-44.5-106.5 44.5-106.5 106.5-44.5 106.5 44.5 44.5 106.5-44.5 106.5-106.5 44.5zM512 336.667q-37 0-63.5 26.5t-26.5 63.5 26.5 63.5 63.5 26.5 63.5-26.5 26.5-63.5-26.5-63.5-63.5-26.5v0zM1020 367.667q2 15 3 29.5t1 29.5-1 29.5-3 29.5l-156 47q-5 18-12 35t-16 34l77 143q-18 23-39 44t-44 39l-143-77q-17 9-34 16t-36 12l-46 156q-15 2-29.5 3t-29.5 1-29.5-1-29.5-3l-46-156q-19-5-36-12t-34-16l-143 77q-23-18-44-39t-39-44l77-143q-9-17-16-34t-12-35l-156-47q-2-15-3-29.5t-1-29.5 1-29.5 3-29.5l155-46q6-19 13-36t16-34l-77-143q18-23 39-44t44-39l143 77q17-9 34-16t36-13l46-155q15-2 29.5-3t29.5-1 29.5 1 29.5 3l46 155q19 6 36 13t34 16l143-77q23 18 44 39t39 44l-77 143q9 17 16 34t12 36l156 46zM816 369.667l-9-31q-5-15-11-29.5t-13-28.5l-15-29 15-28 57-107q-4-5-8.5-9.5t-9.5-8.5l-135 73-29-16q-14-7-28.5-13t-29.5-11l-31-9-9-31-35-117h-26l-35 117-9 31-31 9q-15 5-29.5 11t-28.5 13l-29 16-135-73q-5 4-9.5 9t-8.5 9l72 135-15 29q-7 14-13 28.5t-11 29.5l-9 31-148 44v26l148 44 9 31q5 15 11 30t13 28l15 29-72 135q4 5 8.5 9.5t9.5 8.5l135-73 29 16q14 7 28 13t30 11l31 9 9 31 35 117h26l35-117 9-31 31-9q15-5 29.5-11t28.5-13l29-15 135 72q5-4 9.5-8.5t8.5-9.5l-57-107-15-28 15-29q7-14 13-28t11-30l9-31 31-9 117-35v-26l-148-44z" />
<glyph unicode="&#xe90b;" glyph-name="volume3" d="M164.825 577.165q-43 0-68-21.5t-25-57.5v-130q0-19 7-36t20-30q13-14 30.5-21t35.5-7h105l343-342v989l-339-344h-109zM552.825 774.165v-697l-258 257h-130q-13 0-23 10t-10 24v130q0 4 4.5 11t28.5 7h134l254 258zM687.825 272.165v60q26 0 43.5 18t17.5 43-17.5 43-43.5 18v60q50 0 85.5-35.5t35.5-85.5-35.5-85.5-85.5-35.5zM930.825 393.165q0-50-19-94t-52-76.5-76-51.5q-44-19-94-19v60q75 0 128 53t53 128q0 74-53 127t-128 53v61q50 0 94-19 43-19 76-52t52-77 19-93z" />
<glyph unicode="&#xe90c;" glyph-name="volume2" d="M172.501 577.167q-43 0-68-21.5t-25-57.5v-130q0-19 7-36t20-30q13-14 30.5-21t35.5-7h105l343-342v989l-339-344h-109zM560.501 774.167v-697l-258 257h-130q-13 0-23 10t-10 24v130q0 4 4.5 11t28.5 7h134zM695.501 272.167v60q26 0 43.5 18t17.5 43-17.5 43-43.5 18v60q50 0 85.5-35.5t35.5-85.5-35.5-85.5-85.5-35.5z" />
<glyph unicode="&#xe90d;" glyph-name="airplay" d="M812.564 743.667c17.739 0 33.394-6.784 46.965-20.347s20.349-29.223 20.347-46.965v-400.747c0-17.739-6.784-33.137-20.347-46.183s-29.223-19.571-46.965-19.566h-133.062l-1.486 41.967 162.792 2.973-2.973 445.34h-656.126l-1.486-449.803 164.275 1.486v-41.967h-133.062c-17.739 0-33.394 6.52-46.965 19.566s-20.349 28.438-20.347 46.183v400.747c0 17.739 6.784 33.394 20.347 46.965s29.223 20.349 46.965 20.347zM311.626 109.667l200.373 200.373 200.373-200.373z" />
<glyph unicode="&#xe90e;" glyph-name="volume" d="M158.333 581.667q-43 0-68-21.5t-25-57.5v-130q0-19 7-36t20-30q13-14 30.5-21t35.5-7h105l343-342v989l-339-344h-109zM546.333 778.667v-697l-258 257h-130q-13 0-23 10t-10 24v130q0 4 4.5 11t28.5 7h134z" />
<glyph unicode="&#xe90f;" glyph-name="mute" d="M154.833 577.167q-43 0-68-21.5t-25-57.5v-130q0-19 7-36t20-30q13-14 30.5-21t35.5-7h105l343-342v989l-339-344h-109zM542.833 774.167v-697l-258 257h-130q-13 0-23 10t-10 24v130q0 4 4.5 11t28.5 7h134l254 258zM960.833 572.167l-305-275 43-41 306 275zM698.833 572.167l-44-40 298-282 45 40z" />
<glyph unicode="&#xe910;" glyph-name="fullscreen" d="M1024 554.667h-85v213h-299v86h384v-299zM640-0.333v86h299v213h85v-299h-384zM0 298.667h85v-213h299v-86h-384v299zM384 853.667v-86h-299v-213h-85v299h384z" />
<glyph unicode="&#xe911;" glyph-name="fullscreen-back" d="M640 853.667h85v-214h299v-85h-384v299zM1024 298.667v-85h-299v-214h-85v299h384zM384-0.333h-85v214h-299v85h384v-299zM0 554.667v85h299v214h85v-299h-384z" />
<glyph unicode="&#xe912;" glyph-name="mirror1" d="M309 410.667l42-42-99-99h620v-60l-620-1 99-99-42-42-172 172 172 171zM715 785.667l-42-42 99-100h-620v-60h620l-99-99 42-42 172 171-172 172z" />
<glyph unicode="&#xe913;" glyph-name="mirror2" d="M715 410.667l-42-42 99-99h-620v-60l620-1-99-99 42-42 172 172-172 171zM309 785.667l42-42-99-100h620v-60h-620l99-99-42-42-172 171 172 172z" />
<glyph unicode="&#xe914;" glyph-name="captions" d="M951 740.667h-878v-628h878v628zM1014 802.667v-752h-1004v752h1004zM428 356.667l53-35q-13-19-30-34t-38-26q-21-12-43-17.5t-46-5.5q-39 0-72 14t-61 41q-28 28-41.5 61t-13.5 72 13.5 72 41.5 61q28 27 61 41t72 14q24 0 46-5.5t43-17.5q21-11 38-26t30-34l-53-35q-18 28-44.5 41.5t-59.5 13.5q-26 0-48.5-9t-40.5-27-27.5-40.5-9.5-48.5 9.5-48.5 27.5-40.5 40.5-27 48.5-9q33 0 59.5 13.5t44.5 41.5v0zM805 356.667l52-35q-13-19-30-34t-38-26q-20-12-42.5-17.5t-46.5-5.5q-39 0-72 14t-61 41q-27 28-41 61t-14 72 14 72 41 61q28 27 61 41t72 14q24 0 46.5-5.5t42.5-17.5q21-11 38-26t30-34l-52-35q-19 28-45 41.5t-60 13.5q-26 0-48-9t-41-27q-18-18-27-40.5t-9-48.5 9-48.5 27-40.5q19-18 41-27t48-9q34 0 60 13.5t45 41.5v0z" />
<glyph unicode="&#xe915;" glyph-name="pip1" d="M812 769.667h-594q-41 0-70.5-24.5t-29.5-60.5v-515q0-36 29.5-61t70.5-25h594q41 0 67.5 25t26.5 61v515q0 36-26.5 60.5t-67.5 24.5zM846 143.667h-668v566h668v-566zM537 404.667h264v-217h-264v217z" />
<glyph unicode="&#xe916;" glyph-name="pip2" d="M812 769.667h-594q-41 0-70.5-24.5t-29.5-60.5v-515q0-36 29.5-61t70.5-25h594q41 0 67.5 25t26.5 61v515q0 36-26.5 60.5t-67.5 24.5zM846 143.667h-668v566h668v-566zM219 673.667h582v-486h-582v486z" />
<glyph unicode="&#xe917;" glyph-name="rewind" d="M912.067 632.274l1-526c0-6-2-10.833-6-14.5s-8.667-5.833-14-6.5h-268l2 58 231 2v451h-517l-4-99c0-11.333-3.333-18.833-10-22.5s-14.667-2.5-24 3.5l-178 119c-6 3.333-10.167 8.333-12.5 15s-2.167 13.333 0.5 20c1.333 2 3 4 5 6s4.333 3.667 7 5l178 119c9.333 6 17.333 7.333 24 4s10-10.667 10-22l3-93 556-1c5.333-0.667 9.333-2.5 12-5.5s4-7.167 4-12.5z" />
<glyph unicode="&#xe918;" glyph-name="forward" d="M111.529 632.274l-1-526c0-6 2-10.833 6-14.5s8.667-5.833 14-6.5h268l-1 58-232 2v451h518l3-99c0-11.333 3.333-18.833 10-22.5s14.667-2.5 24 3.5l178 119c6.667 3.333 11.167 8.333 13.5 15s1.833 13.333-1.5 20c-1.333 2-3 4-5 6s-4.333 3.667-7 5l-178 119c-9.333 6-17.333 7.333-24 4s-10-10.667-10-22l-2-93-556-1c-6-0.667-10.333-2.5-13-5.5s-4-7.167-4-12.5z" />
<glyph unicode="&#xe91a;" glyph-name="download" d="M946.477 559.834c-18.185 0-32.921-14.741-32.921-32.921v-453.491h-803.106v453.491c0 18.18-14.736 32.921-32.921 32.921s-32.921-14.736-32.921-32.921v-486.411c0-18.18 14.736-32.921 32.921-32.921h868.943c18.185 0 32.921 14.741 32.921 32.921v486.411c0 18.185-14.741 32.921-32.921 32.921zM488.673 214.845c6.175-6.175 14.544-9.643 23.282-9.643 8.728 0 17.102 3.468 23.282 9.643l142.093 142.098c12.858 12.858 12.858 33.702 0 46.55-12.86 12.86-33.702 12.858-46.555 0l-85.888-85.888 0.019 495.226c0 18.18-14.736 32.921-32.921 32.921-18.18 0-32.921-14.741-32.921-32.921l-0.019-495.231-85.79 85.794c-12.858 12.858-33.697 12.86-46.555 0-12.858-12.858-12.858-33.697 0-46.55l141.983-141.995z" />
<glyph unicode="&#xe92b;" glyph-name="camera" d="M966.398 161.6v416.535c0 31.356-12.759 59.829-33.286 80.314s-48.964 33.286-80.314 33.286h-131.208l-64.489 96.749c-6.889 10.224-18.402 16.851-31.503 16.851h-227.2c-12.343-0.073-24.235-5.985-31.503-16.851l-64.489-96.749h-131.208c-31.356 0-59.829-12.759-80.314-33.286s-33.286-48.964-33.286-80.314v-416.535c0-31.356 12.759-59.829 33.286-80.314s48.964-33.286 80.314-33.286h681.604c31.356 0 59.829 12.759 80.314 33.286s33.286 48.964 33.286 80.314zM890.664 161.6c0-10.45-4.202-19.88-11.097-26.769s-16.319-11.097-26.769-11.097h-681.604c-10.45 0-19.88 4.202-26.769 11.097s-11.097 16.319-11.097 26.769v416.535c0 10.45 4.202 19.88 11.097 26.769s16.319 11.097 26.769 11.097h151.467c13.101 0 24.613 6.627 31.503 16.851l64.489 96.749h186.683l64.489-96.749c7.268-10.865 19.159-16.777 31.503-16.851h151.467c10.45 0 19.88-4.202 26.769-11.097s11.097-16.319 11.097-26.769zM701.327 388.802c0 52.256-21.242 99.665-55.438 133.895s-81.639 55.438-133.895 55.438-99.665-21.242-133.895-55.438-55.438-81.639-55.438-133.895 21.242-99.665 55.438-133.895 81.639-55.438 133.895-55.438 99.665 21.242 133.895 55.438 55.438 81.639 55.438 133.895zM625.593 388.802c0-31.393-12.685-59.714-33.286-80.314s-48.922-33.286-80.314-33.286-59.714 12.685-80.314 33.286-33.286 48.922-33.286 80.314 12.685 59.714 33.286 80.314 48.922 33.286 80.314 33.286 59.714-12.685 80.314-33.286 33.286-48.922 33.286-80.314z" />
<glyph unicode="&#xe9b3;" glyph-name="uniE9B3" d="M897 493.667h-76q-8 50-31 94-22 44-56.5 78.5t-78.5 56.5q-44 23-94 31v76h-97v-76q-50-8-94-31-44-22-78.5-56.5t-56.5-78.5q-23-44-31-94h-76v-97h76q8-50 31-94 22-44 56.5-78.5t78.5-56.5q44-23 94-31v-76h97v76q50 8 94 31 44 22 78.5 56.5t56.5 78.5q23 44 31 94h76v97zM723 493.667h-75q-10 30-33.5 53.5t-53.5 33.5v75q60-13 104.5-57.5t57.5-104.5v0zM513 396.667q-20 0-34.5 14.5t-14.5 34.5q0 19 14.5 33.5t33.5 14.5q20 0 34.5-14.5t14.5-33.5q0-20-14.5-34.5t-33.5-14.5zM464 655.667v-75q-30-10-53.5-33.5t-33.5-53.5h-75q13 60 57.5 104.5t104.5 57.5zM302 396.667h75q10-30 33.5-53.5t53.5-33.5v-75q-60 13-104.5 57.5t-57.5 104.5zM561 234.667v75q30 10 53.5 33.5t33.5 53.5h75q-13-60-57.5-104.5t-104.5-57.5z" />
<glyph unicode="&#xea11;" glyph-name="uniEA11" d="M397 20.667l-397 392 197 194 200-197 430 423 197-195-627-617zM108 412.667l289-285 519 510-89 88-430-423-200 198-89-88z" />
<glyph unicode="&#xea48;" glyph-name="brightness" d="M499.63 965.103c-8.049-3.533-16.292-13.537-17.664-21.391-0.584-3.533-0.983-37.284-0.584-75.356 0.584-66.13 0.788-69.274 4.71-74.373 7.649-10.404 13.937-13.537 26.296-13.537s18.637 3.144 26.296 13.537c3.922 5.294 4.116 7.649 4.116 79.667s-0.195 74.373-4.116 79.667c-2.161 2.939-6.277 7.26-9.032 9.226-6.482 4.915-22.18 6.287-30.024 2.56zM169.564 828.327c-8.632-2.55-17.664-12.165-20.408-21.975-4.321-16.292-2.55-18.842 52.787-74.373 41.8-41.8 51.804-50.627 58.286-52.398 22.374-6.083 44.155 15.698 38.072 38.072-1.761 6.472-10.793 16.486-50.432 56.709-55.747 56.115-60.252 59.259-78.305 53.965zM833.229 826.75c-4.905-2.355-25.907-21.975-56.32-52.398-40.233-40.817-48.671-50.237-50.432-56.709-5.888-22.374 15.698-44.155 38.072-38.072 6.472 1.761 16.486 10.793 56.709 50.432 52.193 51.999 57.692 59.064 55.142 72.806-3.738 20.808-25.119 32.778-43.172 23.941zM484.905 715.492c-40.817-5.294-79.872-19.814-113.818-42.578-18.842-12.564-53.576-47.288-66.13-66.13-18.647-27.863-31.99-59.259-39.055-92.232-5.1-23.347-5.1-74.762 0-98.12 10.988-50.821 32.768-90.86 69.663-127.744 36.895-36.895 76.923-58.675 127.744-69.663 23.347-5.1 74.762-5.1 98.12 0 50.432 10.793 91.443 33.167 127.744 69.663 36.506 36.301 58.87 77.312 69.663 127.744 5.1 23.347 5.1 74.762 0 98.12-10.988 50.821-32.768 90.86-69.663 127.744-36.301 36.301-74.373 57.498-123.822 68.68-16.271 3.727-64.942 6.472-80.445 4.516zM557.711 648.185c35.717-9.226 62.792-25.119 89.088-51.999 56.515-57.897 70.062-142.275 33.946-213.903-10.988-22.17-17.664-31.396-35.717-49.449s-27.279-24.73-49.449-35.717c-30.024-15.114-60.436-21.391-93.798-19.425-48.077 2.949-86.538 20.214-120.883 54.354-27.279 26.88-43.172 54.948-52.398 91.443-4.71 18.647-4.71 65.341 0 83.988 8.827 35.123 25.119 64.174 50.432 89.682 28.846 29.44 60.631 46.316 100.669 53.965 19.63 3.727 58.685 2.355 78.111-2.939zM28.662 494.134c-13.148-5.683-20.603-20.797-17.859-35.512 1.761-9.226 11.581-20.019 20.408-22.569 4.71-1.372 31.396-1.966 77.312-1.567 67.113 0.594 70.246 0.788 75.356 4.71 10.404 7.649 13.548 13.926 13.548 26.286s-3.144 18.647-13.537 26.296c-5.1 3.922-8.049 4.116-77.312 4.516-56.914 0.389-73.206 0-77.916-2.161zM844.995 494.134c-13.148-5.693-20.603-20.797-17.859-35.512 1.761-9.226 11.581-20.019 20.408-22.569 4.71-1.372 31.396-1.966 77.312-1.567 67.113 0.594 70.257 0.788 75.356 4.71 10.404 7.649 13.548 13.926 13.548 26.286s-3.144 18.647-13.537 26.296c-5.1 3.922-8.049 4.116-77.312 4.516-56.914 0.389-73.206 0-77.916-2.161zM258.263 250.607c-5.888-2.161-19.825-14.909-57.108-52.398-40.428-40.622-49.848-51.026-51.804-57.498-6.676-22.764 15.503-44.933 38.267-38.267 6.472 1.966 16.876 11.387 58.286 52.593 41.8 41.8 50.627 51.804 52.398 58.286 6.267 23.552-17.080 45.527-40.038 37.284zM746.885 250.607c-15.503-5.499-24.525-21.975-20.408-37.284 1.772-6.472 10.793-16.486 50.432-56.709 52.593-52.787 58.87-57.498 73.39-55.142 10.598 1.966 22.374 12.564 25.313 23.153 4.321 16.087 2.161 19.231-50.821 72.612-26.685 26.88-50.627 49.848-53.371 51.415-8.253 4.311-16.302 4.905-24.535 1.956zM499.63 148.759c-8.049-3.533-16.292-13.537-17.664-21.391-0.584-3.533-0.983-37.284-0.584-75.356 0.584-66.13 0.788-69.274 4.71-74.373 7.649-10.404 13.937-13.537 26.296-13.537s18.637 3.144 26.296 13.537c3.922 5.294 4.116 7.649 4.116 79.667s-0.195 74.373-4.116 79.667c-2.161 2.939-6.277 7.26-9.032 9.226-6.482 4.915-22.18 6.298-30.024 2.56z" />
<glyph unicode="&#xea49;" glyph-name="saturation" d="M512 967.427c-277.094 0-501.76-224.666-501.76-501.76s224.666-501.76 501.76-501.76c277.094 0 501.76 224.666 501.76 501.76s-224.666 501.76-501.76 501.76zM512 912.438c230.912 0 442.675-213.811 442.675-444.723 0 0-86.016 39.731-233.677 39.731-124.518 0-208.998-41.779-208.998-41.779s-126.259-41.779-209.101-41.779c-146.33 0-233.574 49.971-233.574 49.971 0 230.912 211.763 438.579 442.675 438.579z" />
<glyph unicode="&#xea4a;" glyph-name="contrast" d="M512-36.093c-277.094 0-501.76 224.666-501.76 501.76s224.666 501.76 501.76 501.76c277.094 0 501.76-224.666 501.76-501.76s-224.666-501.76-501.76-501.76zM526.336 897.283c-215.562-0.95-448-182.886-448-429.568 0-207.872 227.952-433.723 435.712-435.712 213.914-2.048 441.573 221.973 437.76 431.616-3.746 205.943-207.005 434.627-425.472 433.664zM512 152.016v627.2c173.261 0 313.651-140.39 313.651-313.651 0-173.158-140.39-313.549-313.651-313.549z" />
<glyph unicode="&#xea4b;" glyph-name="filters" d="M682.667 155.223h341.333v-56.889h-341.333zM455.111 155.223h-455.111v-56.889h455.111v-170.667h56.889v341.333h-56.889zM625.777 610.334h56.889v341.333h-56.889v-113.777h-625.777v-56.889h625.777zM853.333 837.89v-56.889h170.667v56.889zM170.667 269h56.889v341.333h-56.889v-113.777h-170.667v-56.889h170.667zM398.223 439.667h625.777v56.889h-625.777zM682.667 98.746h341.333v-56.889h-341.333zM511.176 98.746h-511.176v-56.889h511.176v-114.189h56.889v341.333h-56.889zM681.843 610.334h56.889v341.333h-56.889v-170.255h-681.843v-56.889h681.843zM853.333 781.412v-56.889h170.667v56.889zM226.731 269.412h56.889v340.921h-56.889v-170.255h-226.731v-56.889h226.731zM398.223 383.19h625.777v56.889h-625.777z" />
<glyph unicode="&#xea82;" glyph-name="share" d="M864 234.667q-34 0-63.5-13t-51.5-36l-431 216q1 6 1.5 12.5t0.5 12.5-0.5 12.5-1.5 12.5l431 216q22-23 51.5-36t63.5-13q66 0 113 47t47 113-47 113-113 47-113-47-47-113q0-6 0.5-12.5t1.5-12.5l-431-216q-22 23-51.5 36t-63.5 13q-66 0-113-47t-47-113 47-113 113-47q34 0 63.5 13t51.5 36l431-216q-1-6-1.5-12.5t-0.5-12.5q0-66 47-113t113-47 113 47 47 113-47 113-113 47z" />
<glyph unicode="&#xf00a;" glyph-name="related" d="M293 189.167v-110q0-23-16.5-39t-38.5-16h-183q-23 0-39 16t-16 39v110q0 22 16 38.5t39 16.5h183q22 0 38.5-16.5t16.5-38.5v0zM293 481.167v-109q0-23-16.5-39t-38.5-16h-183q-23 0-39 16t-16 39v109q0 23 16 39t39 16h183q22 0 38.5-16t16.5-39zM658 189.167v-110q0-23-16-39t-39-16h-182q-23 0-39 16t-16 39v110q0 22 16 38.5t39 16.5h182q23 0 39-16.5t16-38.5v0zM293 774.167v-110q0-23-16.5-39t-38.5-16h-183q-23 0-39 16t-16 39v110q0 23 16 39t39 16h183q22 0 38.5-16t16.5-39zM658 481.167v-109q0-23-16-39t-39-16h-182q-23 0-39 16t-16 39v109q0 23 16 39t39 16h182q23 0 39-16t16-39zM1024 189.167v-110q0-23-16-39t-39-16h-183q-22 0-38.5 16t-16.5 39v110q0 22 16.5 38.5t38.5 16.5h183q23 0 39-16.5t16-38.5v0zM658 774.167v-110q0-23-16-39t-39-16h-182q-23 0-39 16t-16 39v110q0 23 16 39t39 16h182q23 0 39-16t16-39zM1024 481.167v-109q0-23-16-39t-39-16h-183q-22 0-38.5 16t-16.5 39v109q0 23 16.5 39t38.5 16h183q23 0 39-16t16-39zM1024 774.167v-110q0-23-16-39t-39-16h-183q-22 0-38.5 16t-16.5 39v110q0 23 16.5 39t38.5 16h183q23 0 39-16t16-39z" />
<glyph unicode="&#xf00c;" glyph-name="checked" d="M955 605.667q0-10-4-20.5t-12-17.5l-492-492q-7-8-17.5-12t-20.5-4q-11 0-21.5 4t-17.5 12l-285 285q-8 7-12 17.5t-4 21.5q0 10 4 20.5t12 17.5l78 78q8 8 18 12t21 4q10 0 20.5-4t18.5-12l168-168 374 375q8 8 18.5 12t20.5 4q11 0 21-4t18-12l78-78q8-7 12-17.5t4-21.5v0z" />
<glyph unicode="&#xf00d;" glyph-name="close2" horiz-adv-x="808" d="M744 219.667q0-23-16-39l-78-78q-16-16-39-16-22 0-39 16l-168 168-169-168q-16-16-38-16-23 0-39 16l-78 78q-16 16-16 39 0 22 16 39l168 168-168 168q-16 17-16 39 0 23 16 39l78 78q16 16 39 16 22 0 38-16l169-168 168 168q17 16 39 16 23 0 39-16l78-78q16-16 16-39 0-22-16-39l-168-168 168-168q16-17 16-39v0z" />
<glyph unicode="&#xf059;" glyph-name="help2" horiz-adv-x="879" d="M513 151.667v110q0 8-5 13-6 6-14 6h-109q-8 0-14-6-5-5-5-13v-110q0-8 5-13 6-5 14-5h109q8 0 14 5 5 5 5 13zM659 536.667q0 50-32 93-31 43-79 66-47 24-97 24-139 0-212-122-9-14 4-24l76-57q4-4 11-4 9 0 14 7 30 39 49 53 20 14 49 14 28 0 49-15 22-15 22-34 0-22-12-35-11-13-39-26-36-16-66-49-30-34-30-72v-21q0-8 5-13 6-5 14-5h109q8 0 14 5 5 5 5 13 0 11 12 29 12 17 31 28 18 10 28 16t27 20q16 14 25 28 9 13 16 34 7 22 7 47v0zM879 426.667q0-120-59-220-59-101-160-160t-221-59q-119 0-220 59t-160 160q-59 100-59 220t59 221q59 100 160 159t220 59q120 0 221-59t160-159q59-101 59-221z" />
<glyph unicode="&#xf05a;" glyph-name="info" horiz-adv-x="879" d="M586 151.667v92q0 8-5 13t-13 5h-55v293q0 8-5 13-6 5-14 5h-183q-8 0-13-5t-5-13v-91q0-8 5-14 5-5 13-5h55v-183h-55q-8 0-13-5t-5-13v-92q0-8 5-13t13-5h257q8 0 13 5t5 13v0zM513 664.667v91q0 8-5 14-6 5-14 5h-109q-8 0-14-5-5-6-5-14v-91q0-8 5-13 6-5 14-5h109q8 0 14 5 5 5 5 13zM879 426.667q0-120-59-220-59-101-160-160t-221-59q-119 0-220 59t-160 160q-59 100-59 220t59 221q59 100 160 159t220 59q120 0 221-59t160-159q59-101 59-221z" />
<glyph unicode="&#xf081;" glyph-name="twitter" horiz-adv-x="881" d="M734 563.667q-33-14-70-19 39 23 54 67-38-22-77-30-35 38-88 38-50 0-85-35t-35-85q0-17 3-28-74 4-139 38-65 33-110 88-17-28-17-60 0-66 52-101-27 1-57 15v-1q0-43 29-76 28-34 70-42-16-4-29-4-7 0-22 2 12-36 42-60 31-23 70-24-67-51-150-51-15 0-28 1 85-54 184-54 64 0 121 21 56 20 96 54t69 79q29 44 43 93 14 48 14 96 0 10-1 16 37 25 61 62v0zM880 674.667v-550q0-68-48-117-49-48-117-48h-550q-68 0-117 48-48 49-48 117v550q0 68 48 117 49 48 117 48h550q68 0 117-48 48-49 48-117z" />
<glyph unicode="&#xf082;" glyph-name="facebook" horiz-adv-x="881" d="M715 839.667q68 0 117-48 48-49 48-117v-550q0-68-48-117-49-48-117-48h-108v341h115l17 133h-132v85q0 32 14 48 13 16 52 16l70 1v118q-36 5-102 5-78 0-124-45-47-46-47-130v-98h-115v-133h115v-341h-305q-68 0-117 48-48 49-48 117v550q0 68 48 117 49 48 117 48h550z" />
<glyph unicode="&#xf08d;" glyph-name="linked" horiz-adv-x="1042" d="M214 100.667h134v401h-134v-401zM356 624.667q0 30-20 50-21 20-54 20-34 0-55-20t-21-50q0-29 21-49 20-20 53-20h1q34 0 55 20 20 20 20 49v0zM694 100.667h134v230q0 89-42 134-43 46-112 46-78 0-121-68h2v59h-134q2-39 0-401h134v224q0 22 4 32 8 20 26 35 17 14 42 14 67 0 67-91v-214zM965 676.667v-554q0-69-49-118t-118-49h-554q-69 0-118 49t-49 118v554q0 69 49 118t118 49h554q69 0 118-49t49-118z" />
<glyph unicode="&#xf0d3;" glyph-name="pinterest" horiz-adv-x="881" d="M715 839.667q68 0 117-48 48-49 48-117v-550q0-68-48-117-49-48-117-48h-415q48 70 62 120l30 120q12-22 42-38t65-16q103 0 169 84 66 85 66 214 0 48-20 93-21 45-56 80t-87 56-113 21q-60 0-112-17-51-16-87-44-36-27-62-62-26-36-38-74t-12-76q0-58 22-103 23-44 67-63 8-3 14 0t8 11q6 25 8 35 4 13-6 24-28 36-28 86 0 86 59 147t155 61q85 0 133-46 48-47 48-121 0-96-39-164-38-67-99-67-35 0-56 25t-13 59q5 20 15 53 11 34 17 59 6 24 6 42 0 28-15 47t-43 19q-35 0-59-33-25-32-25-80 0-41 14-69l-56-237q-14-58-4-146h-105q-68 0-117 48-48 49-48 117v550q0 68 48 117 49 48 117 48h550z" />
<glyph unicode="&#xf10c;" glyph-name="desc" d="M854 768.667h-684q-36 0-61-25t-25-60v-514q0-35 25-60t61-25h684q36 0 61 25t25 60v514q0 35-25 60t-61 25zM170 426.667h171v-86h-171v86zM598 169.667h-428v86h428v-86zM854 169.667h-171v86h171v-86zM854 340.667h-428v86h428v-86z" />
<glyph unicode="&#xf115;" glyph-name="close" d="M512 854.667q-89 0-167-34-78-33-136-91t-91-136q-34-78-34-167t34-167q33-78 91-136t136-91q78-34 167-34t167 34q78 33 136 91t91 136q34 78 34 167t-34 167q-33 78-91 136t-136 91q-78 34-167 34v0zM726 273.667l-61-61-153 153-153-153-61 61 153 153-153 153 61 61 153-153 153 153 61-61-153-153 153-153z" />
<glyph unicode="&#xf11d;" glyph-name="uniF11D" d="M450 209v438q76 1 134.5-1.5t101.5-33.5q41-29 68.5-83.5t21.5-127.5q-6-77-56.5-134t-123.5-63q-36-4-90-2l-54 2-1 1.5t-1 3.5v0zM548 319q47-2 77.5 23t35.5 68q7 58-27 92t-89 30v-208q0-2 0.5-3.5t2.5-1.5v0zM764 209q20-6 29 10.5t17 32.5q20 34 32.5 77t12.5 93q1 71-22 124t-49 89h-17q-1-6 2-11l6-10q20-36 35.5-84t15.5-105q0-65-18.5-119t-43.5-97v0zM847 209q20-6 29 10.5t17 32.5q20 34 32.5 77t12.5 93q1 71-22 124t-49 89h-17q-1-6 2-11l6-10q20-36 35.5-84t15.5-105q0-65-18.5-119t-43.5-97v0zM929 209q20-6 29 10.5t18 32.5q19 34 32 77t13 93q0 71-23 124t-48 89h-18q0-6 3-11t5-10q20-36 35.5-84t15.5-105q1-65-17.5-119t-44.5-97v0zM3 206h137l37 57h129v-57h98v446h-118q-5-7-49-78-45-70-97-152t-94-149l-43-67zM309 497v-143l-81 1 81 142z" />
<glyph unicode="&#xf128;" glyph-name="help" horiz-adv-x="636" d="M401 220.667v-137q0-9-6.5-16t-16.5-7h-137q-9 0-16 7t-7 16v137q0 10 7 16.5t16 6.5h137q10 0 16.5-6.5t6.5-16.5zM582 563.667q0-81-43.5-119.5t-84.5-60.5q-25-15-40-39t-15-37v0q0-9-6.5-18t-16.5-9h-137q-10 0-15.5 11t-5.5 21v26q0 51 40.5 92.5t78.5 58.5q33 15 48 31.5t15 44.5q0 24-27 42t-61 18q-20 0-36.5-5t-25.5-11q-11-8-23.5-21t-37.5-45q-4-4-8.5-6.5t-9.5-2.5q-4 0-7.5 1t-7.5 3l-93 72q-8 5-9.5 13.5t3.5 16.5q46 77 112 114.5t153 37.5q46 0 93-17 46-17 83-48t61-73q23-41 23-91v0z" />
</font>
</defs>
</svg>
