<?xml version="1.0" standalone="no"?>
<!DOCTYPE svg PUBLIC "-//W3C//DTD SVG 1.1//EN" "http://www.w3.org/Graphics/SVG/1.1/DTD/svg11.dtd" >
<svg xmlns="http://www.w3.org/2000/svg">
<metadata>Generated by IcoMoon</metadata>
<defs>
<font id="nuevo" horiz-adv-x="1024">
<font-face units-per-em="1024" ascent="819" descent="-205" />
<missing-glyph horiz-adv-x="1024" />
<glyph unicode="&#x20;" horiz-adv-x="0" d="" />
<glyph unicode="&#xe900;" glyph-name="pip-full" d="M814 696.667h-598q-42 0-71.5-25t-29.5-61v-519q0-36 29.5-61.5t71.5-25.5h598q41 0 68 25.5t27 61.5v519q0 36-27 61t-68 25v0zM843 80.667h-650l-2 540h652v-540zM234 582.667h558v-460h-558v460z" />
<glyph unicode="&#xe901;" glyph-name="rewind" d="M915 547.774v-537c0-5.333-2-10-6-14s-9-6-15-6h-268v83h206v412h-495v-82c0-11.333-3.5-18.833-10.5-22.5s-15.167-2.5-24.5 3.5l-179 120c-4 2-7.333 5-10 9s-4 8.667-4 14c0 2 0.333 4 1 6s1.333 3.667 2 5v0c1.333 2.667 2.833 5 4.5 7s3.833 3.667 6.5 5v0l179 119c9.333 6.667 17.5 8.167 24.5 4.5s10.5-11.167 10.5-22.5v-83h557c6 0 11-2 15-6s6-9 6-15z" />
<glyph unicode="&#xe902;" glyph-name="forward" d="M109.029 548.207v-537c0-5.333 2-10 6-14s9-6 15-6h268v82h-206v413h495v-83c0-11.333 3.5-18.667 10.5-22s15.167-2 24.5 4l179 120c6 2.667 10.167 7.333 12.5 14s1.833 13.333-1.5 20c-1.333 2.667-3 5-5 7s-4 3.333-6 4l-179 120c-9.333 6-17.5 7.167-24.5 3.5s-10.5-11.167-10.5-22.5v-82h-557c-6 0-11-2.167-15-6.5s-6-9.167-6-14.5z" />
<glyph unicode="&#xe903;" glyph-name="skip" d="M162 0.667l496 350-496 350v-700zM746 700.667v-700h116v700h-116z" />
<glyph unicode="&#xe904;" glyph-name="cast" d="M891 729.667h-758q-35 0-60-24.5t-25-59.5v-126h85v126h758v-590h-295v-84h295q35 0 60 24.5t25 59.5v590q0 35-25 59.5t-60 24.5zM48 97.667v-126h127q0 53-36.5 89.5t-90.5 36.5zM48 266.667v-85q45 0 83-16 39-16 67-44.5t45-67.5q16-38 16-82h84q0 61-23 115t-62.5 94-93.5 63-116 23v0zM48 434.667v-84q79 0 149-30 69-29 120-80.5t81-120.5 30-148h84q0 96-36 181-37 84-99.5 147t-147.5 99q-84 36-181 36v0z" />
<glyph unicode="&#xe905;" glyph-name="casting" d="M49 97.667v-126h126q0 52-37 89t-89 37v0zM49 266.667v-84q43 0 82-17 38-17 66.5-45.5t45.5-66.5q16-38 16-82h85q0 61-24 115-23 53-63 93t-93 64q-54 23-115 23v0zM807 561.667h-590v-69q63-21 118-55t100.5-79 79.5-101q34-55 54-118h238v422zM49 434.667v-84q78 0 147-30t120.5-81 81.5-120 30-148h84q0 96-36 180-37 85-99.5 147.5t-147.5 99.5q-84 36-180 36v0zM891 729.667h-758q-35 0-59.5-24.5t-24.5-59.5v-127h84v127h758v-590h-295v-84h295q35 0 59.5 24.5t24.5 59.5v590q0 35-24.5 59.5t-59.5 24.5v0z" />
<glyph unicode="&#xe906;" glyph-name="compress" horiz-adv-x="892" d="M284.717 31.667h90v637.997h-90zM519.171 669.667v-637.997h90v637.997zM773.879 342.731l102.504 1.721v57.826l-102.504-1.721v135.606l-167.496-165 167.496-165zM118.789 346.011h-103.172l1.763 57.639 99.65 1.73v137.429l168.587-165-168.587-165z" />
<glyph unicode="&#xe907;" glyph-name="expand" horiz-adv-x="892" d="M65.214-0.333h90v701.997h-90zM736.785 701.667v-701.997h90v701.997zM559.165 299.774l-92.541-1.799-3.116 62.975 95.657 2.36v131.175l179.741-165.26-179.741-165.26zM339.431 295.076l95.872 1.608-0.73 62.266-95.142-1.772 1.967 132.163-188.058-161.955 188.058-161.955z" />
<glyph unicode="&#xe908;" glyph-name="download-button2" d="M824.606 287.512v-204.394h-625.209v204.394h-120.165v-264.477c0-33.162 26.865-60.054 60.169-60.054h745.196c33.278 0 60.169 26.865 60.169 60.054v264.477zM501.001 188.388l-172.039 207.884c0 0-21.962 9.829 2.206 24.713h96.946v302.622c0 0-3.853 14.746 18.354 14.746h136.46c15.999 0 15.638-12.418 15.638-12.418v-298.709h89.484c34.442 0 8.505-25.877 8.505-25.877s-146.373-194.307-166.786-214.691c-14.685-14.773-28.771 1.729-28.771 1.729z" />
<glyph unicode="&#xe90c;" glyph-name="airplay" d="M842.905 699.667q29.296 0 51.705-22.402t22.402-51.705v-441.202q0-29.296-22.402-50.845t-51.705-21.542h-146.494v72.387h146.494v441.202h-661.81v-441.202h146.494v-72.387h-146.494q-29.296 0-51.705 21.542t-22.402 50.845v441.202q0 29.296 22.402 51.705t51.705 22.402h661.81zM291.399 1.667l220.601 220.601 220.601-220.601h-441.202z" />
<glyph unicode="&#xe90d;" glyph-name="airplay1" d="M842.905 699.667q29.296 0 51.705-22.402t22.402-51.705v-441.202q0-29.296-22.402-50.845t-51.705-21.542h-146.494v72.387h146.494v441.202h-661.81v-441.202h146.494v-72.387h-146.494q-29.296 0-51.705 21.542t-22.402 50.845v441.202q0 29.296 22.402 51.705t51.705 22.402h661.81zM291.399 1.667l220.601 220.601 220.601-220.601h-441.202z" />
<glyph unicode="&#xe922;" glyph-name="camera4" d="M531.516 467.999c-97.191 0-175.961-78.809-175.961-176s78.771-176 175.961-176c97.152 0 175.961 78.809 175.961 176s-78.809 176-175.961 176zM463.386 410c20.103 11.693 43.219 18.892 68.172 18.892 70.048 0 127.347-53.113 135.284-121.127-67.661 52.096-147.643 84.244-203.456 102.235zM922.669 624.446h-189.063l-26.048 78.221h-391.111l-26.048-78.221h-149.952c-43.18 0-97.779-35.045-97.779-78.221v-469.332c0-43.18 54.599-78.221 97.779-78.221h782.221c43.18 0 58.668 35.045 58.668 78.221v469.332c0 43.18-15.488 78.221-58.668 78.221zM531.558 37.778c-140.409 0-254.221 113.812-254.221 254.221s113.812 254.221 254.221 254.221 254.221-113.812 254.221-254.221-113.812-254.221-254.221-254.221zM903.112 467.999h-78.221v78.221h78.221v-78.221z" />
<glyph unicode="&#xe9b3;" glyph-name="center" d="M896.5 399.167h-76q-8 50-31 94-22 44-56.5 78.5t-78.5 56.5q-44 23-94 31v76h-97v-76q-50-8-94-31-44-22-78.5-56.5t-56.5-78.5q-23-44-31-94h-76v-97h76q8-50 31-94 22-44 56.5-78.5t78.5-56.5q44-23 94-31v-76h97v76q50 8 94 31 44 22 78.5 56.5t56.5 78.5q23 44 31 94h76v97zM722.5 399.167h-75q-10 30-33.5 53.5t-53.5 33.5v75q60-13 104.5-57.5t57.5-104.5v0zM512.5 302.167q-20 0-34.5 14.5t-14.5 34.5q0 19 14.5 33.5t33.5 14.5q20 0 34.5-14.5t14.5-33.5q0-20-14.5-34.5t-33.5-14.5zM463.5 561.167v-75q-30-10-53.5-33.5t-33.5-53.5h-75q13 60 57.5 104.5t104.5 57.5zM301.5 302.167h75q10-30 33.5-53.5t53.5-33.5v-75q-60 13-104.5 57.5t-57.5 104.5zM560.5 140.167v75q30 10 53.5 33.5t33.5 53.5h75q-13-60-57.5-104.5t-104.5-57.5z" />
<glyph unicode="&#xea45;" glyph-name="mirror1" d="M902.012 796.667h55.988v-446h-55.988v446zM66 350.667h55.988v-446h-55.988v446zM344.988 183.655h613.012v-111.026h-613.012v-139.494l-194.533 194.533 194.533 195.482v-139.494zM679.012 517.679h-613.012v111.026h613.012v139.494l194.533-194.533-194.533-195.482v139.494z" />
<glyph unicode="&#xea46;" glyph-name="mirror2" d="M121.988 796.667h-55.988v-446h55.988v446zM958 350.667h-55.988v-446h55.988v446zM679.012 183.655h-613.012v-111.026h613.012v-139.494l194.533 194.533-194.533 195.482v-139.494zM344.988 517.679h613.012v111.026h-613.012v139.494l-194.533-194.533 194.533-195.482v139.494z" />
<glyph unicode="&#xea47;" glyph-name="replay-big" d="M653.551 579.258l65.237 142.826 96.495-260.602-238.389-44.099 58.557 128.202c-29.72 13.575-63.917 21.183-94.814 21.991-31.148 0.258-78.598-4.852-106.935-15.19s-77.693-42.26-100.518-63.101c-23.625-21.139-47.363-57.818-60.938-87.538-13.324-29.171-22.518-73.521-23.026-105.218-0.809-30.897 4.672-59.314 15.414-87.502s33.129-71.994 53.717-95.367c20.841-22.823 54.9-54.549 84.62-68.124s86.124-23.168 117.020-23.977c31.148-0.258 80.556 12.116 108.893 22.454s59.25 31.649 82.076 52.49c23.625 21.139 46.821 53.654 60.145 82.825l37.252-17.015c-17.849-39.077-42.122-72.558-72.819-100.445s-64.889-48.857-102.574-62.91c-37.685-14.053-77.259-20.591-118.72-19.613-41.714 0.426-82.385 9.689-122.013 27.79s-73.26 42.776-100.895 74.025c-27.887 30.698-48.857 64.889-62.91 102.574s-20.591 77.259-19.613 118.72c0.978 41.462 10.391 81.731 28.24 120.807 18.101 39.629 42.5 73.386 73.197 101.273s64.889 48.857 102.574 62.91c37.685 14.053 77.259 20.591 118.72 19.613 41.714-0.426 82.385-9.689 122.013-27.79v0z" />
<glyph unicode="&#xea48;" glyph-name="brightness" d="M499.63 884.436c-8.049-3.533-16.292-13.537-17.664-21.391-0.584-3.533-0.983-37.284-0.584-75.356 0.584-66.13 0.788-69.274 4.71-74.373 7.649-10.404 13.937-13.537 26.296-13.537s18.637 3.144 26.296 13.537c3.922 5.294 4.116 7.649 4.116 79.667s-0.195 74.373-4.116 79.667c-2.161 2.939-6.277 7.26-9.032 9.226-6.482 4.915-22.18 6.287-30.024 2.56zM169.564 747.66c-8.632-2.55-17.664-12.165-20.408-21.975-4.321-16.292-2.55-18.842 52.787-74.373 41.8-41.8 51.804-50.627 58.286-52.398 22.374-6.083 44.155 15.698 38.072 38.072-1.761 6.472-10.793 16.486-50.432 56.709-55.747 56.115-60.252 59.259-78.305 53.965zM833.229 746.083c-4.905-2.355-25.907-21.975-56.32-52.398-40.233-40.817-48.671-50.237-50.432-56.709-5.888-22.374 15.698-44.155 38.072-38.072 6.472 1.761 16.486 10.793 56.709 50.432 52.193 51.999 57.692 59.064 55.142 72.806-3.738 20.808-25.119 32.778-43.172 23.941zM484.905 634.825c-40.817-5.294-79.872-19.814-113.818-42.578-18.842-12.564-53.576-47.288-66.13-66.13-18.647-27.863-31.99-59.259-39.055-92.232-5.1-23.347-5.1-74.762 0-98.12 10.988-50.821 32.768-90.86 69.663-127.744 36.895-36.895 76.923-58.675 127.744-69.663 23.347-5.1 74.762-5.1 98.12 0 50.432 10.793 91.443 33.167 127.744 69.663 36.506 36.301 58.87 77.312 69.663 127.744 5.1 23.347 5.1 74.762 0 98.12-10.988 50.821-32.768 90.86-69.663 127.744-36.301 36.301-74.373 57.498-123.822 68.68-16.271 3.727-64.942 6.472-80.445 4.516zM557.711 567.518c35.717-9.226 62.792-25.119 89.088-51.999 56.515-57.897 70.062-142.275 33.946-213.903-10.988-22.17-17.664-31.396-35.717-49.449s-27.279-24.73-49.449-35.717c-30.024-15.114-60.436-21.391-93.798-19.425-48.077 2.949-86.538 20.214-120.883 54.354-27.279 26.88-43.172 54.948-52.398 91.443-4.71 18.647-4.71 65.341 0 83.988 8.827 35.123 25.119 64.174 50.432 89.682 28.846 29.44 60.631 46.316 100.669 53.965 19.63 3.727 58.685 2.355 78.111-2.939zM28.662 413.467c-13.148-5.683-20.603-20.797-17.859-35.512 1.761-9.226 11.581-20.019 20.408-22.569 4.71-1.372 31.396-1.966 77.312-1.567 67.113 0.594 70.246 0.788 75.356 4.71 10.404 7.649 13.548 13.926 13.548 26.286s-3.144 18.647-13.537 26.296c-5.1 3.922-8.049 4.116-77.312 4.516-56.914 0.389-73.206 0-77.916-2.161zM844.995 413.467c-13.148-5.693-20.603-20.797-17.859-35.512 1.761-9.226 11.581-20.019 20.408-22.569 4.71-1.372 31.396-1.966 77.312-1.567 67.113 0.594 70.257 0.788 75.356 4.71 10.404 7.649 13.548 13.926 13.548 26.286s-3.144 18.647-13.537 26.296c-5.1 3.922-8.049 4.116-77.312 4.516-56.914 0.389-73.206 0-77.916-2.161zM258.263 169.94c-5.888-2.161-19.825-14.909-57.108-52.398-40.428-40.622-49.848-51.026-51.804-57.498-6.676-22.764 15.503-44.933 38.267-38.267 6.472 1.966 16.876 11.387 58.286 52.593 41.8 41.8 50.627 51.804 52.398 58.286 6.267 23.552-17.080 45.527-40.038 37.284zM746.885 169.94c-15.503-5.499-24.525-21.975-20.408-37.284 1.772-6.472 10.793-16.486 50.432-56.709 52.593-52.787 58.87-57.498 73.39-55.142 10.598 1.966 22.374 12.564 25.313 23.153 4.321 16.087 2.161 19.231-50.821 72.612-26.685 26.88-50.627 49.848-53.371 51.415-8.253 4.311-16.302 4.905-24.535 1.956zM499.63 68.092c-8.049-3.533-16.292-13.537-17.664-21.391-0.584-3.533-0.983-37.284-0.584-75.356 0.584-66.13 0.788-69.274 4.71-74.373 7.649-10.404 13.937-13.537 26.296-13.537s18.637 3.144 26.296 13.537c3.922 5.294 4.116 7.649 4.116 79.667s-0.195 74.373-4.116 79.667c-2.161 2.939-6.277 7.26-9.032 9.226-6.482 4.915-22.18 6.298-30.024 2.56z" />
<glyph unicode="&#xea49;" glyph-name="saturation" d="M512 886.76c-277.094 0-501.76-224.666-501.76-501.76s224.666-501.76 501.76-501.76c277.094 0 501.76 224.666 501.76 501.76s-224.666 501.76-501.76 501.76zM512 831.771c230.912 0 442.675-213.811 442.675-444.723 0 0-86.016 39.731-233.677 39.731-124.518 0-208.998-41.779-208.998-41.779s-126.259-41.779-209.101-41.779c-146.33 0-233.574 49.971-233.574 49.971 0 230.912 211.763 438.579 442.675 438.579z" />
<glyph unicode="&#xea4a;" glyph-name="contrast" d="M512-116.76c-277.094 0-501.76 224.666-501.76 501.76s224.666 501.76 501.76 501.76c277.094 0 501.76-224.666 501.76-501.76s-224.666-501.76-501.76-501.76zM526.336 816.616c-215.562-0.95-448-182.886-448-429.568 0-207.872 227.952-433.723 435.712-435.712 213.914-2.048 441.573 221.973 437.76 431.616-3.746 205.943-207.005 434.627-425.472 433.664zM512 71.349v627.2c173.261 0 313.651-140.39 313.651-313.651 0-173.158-140.39-313.549-313.651-313.549z" />
<glyph unicode="&#xea4b;" glyph-name="filters" d="M682.667 74.556h341.333v-56.889h-341.333zM455.111 74.556h-455.111v-56.889h455.111v-170.667h56.889v341.333h-56.889zM625.777 529.667h56.889v341.333h-56.889v-113.777h-625.777v-56.889h625.777zM853.333 757.223v-56.889h170.667v56.889zM170.667 188.333h56.889v341.333h-56.889v-113.777h-170.667v-56.889h170.667zM398.223 359h625.777v56.889h-625.777zM682.667 18.079h341.333v-56.889h-341.333zM511.176 18.079h-511.176v-56.889h511.176v-114.189h56.889v341.333h-56.889zM681.843 529.667h56.889v341.333h-56.889v-170.255h-681.843v-56.889h681.843zM853.333 700.745v-56.889h170.667v56.889zM226.731 188.745h56.889v340.921h-56.889v-170.255h-226.731v-56.889h226.731zM398.223 302.523h625.777v56.889h-625.777z" />
<glyph unicode="&#xf001;" glyph-name="muted" d="M712.254 346.345q0 57-30 103.5t-78 70.5v-96l107-106q0 7 0.5 14t0.5 14zM820.254 346.345q0-30-6-59t-17-55l66-66q21 41 32.5 86t11.5 94q0 69-23 132-23 62-63.5 112t-95.5 85q-56 35-121 50v-89q47-14 87-42 39-28 68-66t45-84q16-47 16-98zM184.254 735.345l-55-55 204-204h-204v-260h173l216-216v291l184-184q-22-17-46.5-30t-51.5-21v-89q45 10 85 30t75 48l88-88 55 55zM518.254 692.345l-90-91 90-90z" />
<glyph unicode="&#xf00a;" glyph-name="related" d="M291 110.667v-110q0-23-16.5-39t-38.5-16h-185q-23 0-39 16t-16 39v110q0 23 16 39.5t39 16.5h185q22 0 38.5-16.5t16.5-39.5zM291 405.667v-110q0-23-16.5-39.5t-38.5-16.5h-185q-23 0-39 16.5t-16 39.5v110q0 23 16 39.5t39 16.5h185q22 0 38.5-16.5t16.5-39.5zM659 110.667v-110q0-23-16-39t-39-16h-184q-23 0-39 16t-16 39v110q0 23 16 39.5t39 16.5h184q23 0 39-16.5t16-39.5zM291 700.667v-110q0-23-16.5-39.5t-38.5-16.5h-185q-23 0-39 16.5t-16 39.5v110q0 23 16 39t39 16h185q22 0 38.5-16t16.5-39zM659 405.667v-110q0-23-16-39.5t-39-16.5h-184q-23 0-39 16.5t-16 39.5v110q0 23 16 39.5t39 16.5h184q23 0 39-16.5t16-39.5zM1028 110.667v-110q0-23-16-39t-39-16h-185q-22 0-38.5 16t-16.5 39v110q0 23 16.5 39.5t38.5 16.5h185q23 0 39-16.5t16-39.5zM659 700.667v-110q0-23-16-39.5t-39-16.5h-184q-23 0-39 16.5t-16 39.5v110q0 23 16 39t39 16h184q23 0 39-16t16-39zM1028 405.667v-110q0-23-16-39.5t-39-16.5h-185q-22 0-38.5 16.5t-16.5 39.5v110q0 23 16.5 39.5t38.5 16.5h185q23 0 39-16.5t16-39.5zM1028 700.667v-110q0-23-16-39.5t-39-16.5h-185q-22 0-38.5 16.5t-16.5 39.5v110q0 23 16.5 39t38.5 16h185q23 0 39-16t16-39z" />
<glyph unicode="&#xf00c;" glyph-name="checked" d="M959 559.667q0-11-4.5-21.5t-11.5-18.5l-496-495q-8-8-18.5-12t-20.5-4q-11 0-21.5 4t-18.5 12l-287 287q-7 8-11.5 18t-4.5 21 4.5 21 11.5 18l79 79q8 7 18 11.5t21 4.5 21-4.5 18-11.5l170-170 378 378q8 8 18 12t21 4 21-4 18-12l79-78q7-8 11.5-18.5t4.5-20.5v0z" />
<glyph unicode="&#xf00d;" glyph-name="cancel" horiz-adv-x="819" d="M754 140.667q0-23-17-39l-78-79q-17-16-40-16t-39 16l-170 170-171-170q-16-16-39-16t-40 16l-78 79q-17 16-17 39t17 40l170 170-170 170q-17 17-17 40t17 39l78 79q17 16 40 16t39-16l170-170 171 170q16 16 39 16t40-16l78-79q17-16 17-39t-17-40l-170-170 170-170q17-17 17-40z" />
<glyph unicode="&#xf053;" glyph-name="right" horiz-adv-x="782" d="M680 658.667l-308-308 308-308q11-11 11-26t-11-26l-96-96q-11-11-26-11t-26 11l-430 430q-11 11-11 26t11 26l430 430q11 11 26 11t26-11l96-96q11-11 11-26t-11-26v0z" />
<glyph unicode="&#xf054;" glyph-name="left" horiz-adv-x="709" d="M644 324.667l-430-430q-11-11-26-11t-26 11l-97 96q-11 11-11 26t11 26l308 308-308 308q-11 11-11 26t11 26l97 96q11 11 26 11t26-11l430-430q11-11 11-26t-11-26v0z" />
<glyph unicode="&#xf059;" glyph-name="help" horiz-adv-x="890" d="M519 72.667v111q0 9-5 14t-13 5h-112q-8 0-13-5t-5-14v-111q0-8 5-13t13-5h112q8 0 13 5t5 13zM667 461.667q0 51-32 94-32 44-80 67-48 24-98 24-141 0-215-123-9-14 5-24l76-58q4-4 11-4 9 0 14 7 31 40 50 53 20 14 50 14 28 0 49-15 22-15 22-34 0-22-12-35-11-13-39-26-36-16-67-50-30-34-30-73v-20q0-9 5-14t14-5h111q8 0 13 5t5 14q0 10 12 28 13 18 32 29 18 10 28 16t27 20q17 15 26 28 9 14 16 35 7 22 7 47v0zM889 350.667q0-121-60-223-59-102-161-161-102-60-223-60t-223 60q-102 59-161 161-60 102-60 223t60 223q59 102 161 161 102 60 223 60t223-60q102-59 161-161 60-102 60-223z" />
<glyph unicode="&#xf05a;" glyph-name="info" horiz-adv-x="890" d="M593 72.667v93q0 8-5 13t-13 5h-56v297q0 8-5 13t-13 5h-186q-8 0-13-5t-5-13v-93q0-8 5-13t13-5h56v-186h-56q-8 0-13-5t-5-13v-93q0-8 5-13t13-5h260q8 0 13 5t5 13v0zM519 591.667v92q0 8-5 13-5 6-13 6h-112q-8 0-13-6-5-5-5-13v-92q0-9 5-14t13-5h112q8 0 13 5t5 14zM889 350.667q0-121-60-223-59-102-161-161-102-60-223-60t-223 60q-102 59-161 161-60 102-60 223t60 223q59 102 161 161 102 60 223 60t223-60q102-59 161-161 60-102 60-223z" />
<glyph unicode="&#xf081;" glyph-name="twitter" horiz-adv-x="892" d="M743 516.667q-33-15-70-20 39 23 53 68-37-22-77-30-36 38-89 38-50 0-86-35-36-36-36-86 0-17 3-28-74 4-140 38-65 33-111 89-17-29-17-61 0-66 53-101-27 0-58 15v-1q0-44 29-78t71-42q-17-4-29-4-8 0-23 2 12-37 43-60 31-24 71-25-68-52-152-52-15 0-29 2 86-55 187-55 65 0 122 21 56 21 97 55 40 35 70 79 29 45 43 94t14 98v16q36 26 61 63v0zM891 628.667v-556q0-69-49-118t-118-49h-556q-69 0-118 49t-49 118v556q0 69 49 118t118 49h556q69 0 118-49t49-118z" />
<glyph unicode="&#xf082;" glyph-name="facebook" horiz-adv-x="892" d="M724 795.667q69 0 118-49t49-118v-556q0-69-49-118t-118-49h-109v345h115l18 134h-133v86q0 32 14 49 13 16 53 16h70v120q-36 6-103 6-78 0-126-47-47-46-47-131v-99h-116v-134h116v-345h-308q-69 0-118 49t-49 118v556q0 69 49 118t118 49h556z" />
<glyph unicode="&#xf08c;" glyph-name="linkedin" horiz-adv-x="892" d="M138 50.667h134v402h-134v-402zM281 576.667q-1 30-21 50-20 19-54 19-33 0-55-19-21-20-21-50t21-50q20-20 53-20h1q34 0 55 20t21 50v0zM620 50.667h134v230q0 90-43 135-42 46-111 46-79 0-122-68h2v59h-134q2-38 0-402h134v225q0 22 4 32 8 20 26 35 17 14 43 14 67 0 67-91v-215zM891 628.667v-556q0-69-49-118t-118-49h-556q-69 0-118 49t-49 118v556q0 69 49 118t118 49h556q69 0 118-49t49-118z" />
<glyph unicode="&#xf0d3;" glyph-name="pinterest" horiz-adv-x="892" d="M724 795.667q69 0 118-49t49-118v-556q0-69-49-118t-118-49h-420q49 71 63 122 5 19 30 121 13-23 43-39t65-16q105 0 171 85 67 86 67 217 0 48-21 94-20 45-56 80-35 35-88 56-53 22-114 22-60 0-113-17-52-16-88-44-37-28-63-64-26-35-38-74-13-38-13-77 0-59 23-104t68-64q7-2 13 0 6 3 9 11 6 26 8 36 4 13-6 24-29 36-29 87 0 87 60 149 60 61 157 61 86 0 134-47 49-47 49-121 0-98-39-166t-101-68q-35 0-56 25t-13 60q4 20 15 53 11 34 17 60 7 25 7 43 0 28-16 47-15 19-44 19-35 0-60-33-24-33-24-81 0-42 14-70l-57-240q-14-58-4-147h-106q-69 0-118 49t-49 118v556q0 69 49 118t118 49h556z" />
<glyph unicode="&#xf101;" glyph-name="play" d="M274 653.667v-606l476 303z" />
<glyph unicode="&#xf103;" glyph-name="pause" d="M252 47.667h173v606h-173v-606zM599 653.667v-606h173v606h-173z" />
<glyph unicode="&#xf104;" glyph-name="mute" d="M510.155-22.532q-5.881 0-11.762 2.058t-10.782 5.352l-244.061 205.808h-113.698q-13.722 0-23.034 7.821t-9.312 18.523v266.727q0 10.701 9.312 18.523t23.034 7.821h113.698l244.061 205.808q6.861 5.764 16.662 7.409t18.623-1.646 14.213-9.879 5.392-14.819v-693.16q0-8.231-5.392-14.819t-14.213-9.879q-2.94-0.824-6.372-1.234t-6.372-0.412z" />
<glyph unicode="&#xf107;" glyph-name="volume" d="M702.152-22.532q-5.881 0-11.762 2.058t-10.782 5.352l-244.061 205.808h-113.698q-13.722 0-23.034 7.821t-9.312 18.523v266.727q0 10.701 9.312 18.523t23.034 7.821h113.698l244.061 205.808q6.861 5.764 16.662 7.409t18.623-1.646 14.213-9.879 5.392-14.819v-693.16q0-8.231-5.392-14.819t-14.213-9.879q-2.94-0.824-6.372-1.234t-6.372-0.412z" />
<glyph unicode="&#xf108;" glyph-name="fulscreen" d="M1028.521 479.797h-86.087v215.218h-301.305v86.087h387.391v-301.305zM641.132-79.769v86.087h301.305v215.218h86.087v-301.305h-387.391zM-4.519 221.536h86.087v-215.218h301.305v-86.087h-387.391v301.305zM382.869 781.101v-86.087h-301.305v-215.218h-86.087v301.305h387.391z" />
<glyph unicode="&#xf109;" glyph-name="fulscreen-back" d="M641.132 781.101h86.087v-215.218h301.305v-86.087h-387.391v301.305zM1028.521 221.536v-86.087h-301.305v-215.218h-86.087v301.305h387.391zM382.869-79.769h-86.087v215.218h-301.305v86.087h387.391v-301.305zM-4.519 479.797v86.087h301.305v215.218h86.087v-301.305h-387.391z" />
<glyph unicode="&#xf10a;" glyph-name="pip" d="M814 696.667h-598q-42 0-71.5-25t-29.5-61v-519q0-36 29.5-61.5t71.5-25.5h598q41 0 68 25.5t27 61.5v519q0 36-27 61t-68 25v0zM843 80.667h-650l-2 540h652v-540zM528 341.667h266v-219h-266v219z" />
<glyph unicode="&#xf10c;" glyph-name="descriptions" d="M858 696.667h-692q-36 0-61.5-25.5t-25.5-60.5v-520q0-35 25.5-60.5t61.5-25.5h692q36 0 61.5 25.5t25.5 60.5v520q0 35-25.5 60.5t-61.5 25.5v0zM166 350.667h173v-87h-173v87zM599 90.667h-433v87h433v-87zM858 90.667h-173v87h173v-87zM858 263.667h-433v87h433v-87z" />
<glyph unicode="&#xf10d;" glyph-name="captions" d="M800.988 680.667h-577.976q-34.336 0-58.18-24.32t-23.844-57.702v-495.954q0-33.382 23.844-57.702t58.18-24.32h577.976q34.336 0 58.18 24.32t23.844 57.702v495.954q0 33.382-23.844 57.702t-58.18 24.32v0zM470.988 391.679h-61.994v20.982h-82.976v-123.988h82.976v20.982h61.994v-41.966q0-16.214-12.398-28.612t-29.566-12.398h-123.034q-17.168 0-29.566 12.398t-12.398 28.612v165.954q0 16.214 12.398 28.612t29.566 12.398h123.034q17.168 0 29.566-12.398t12.398-28.612v-41.966zM759.976 391.679h-61.994v20.982h-82.976v-123.988h82.976v20.982h61.994v-41.966q0-16.214-12.398-28.612t-29.566-12.398h-123.034q-17.168 0-29.566 12.398t-12.398 28.612v165.954q0 16.214 12.398 28.612t29.566 12.398h123.034q17.168 0 29.566-12.398t12.398-28.612v-41.966z" />
<glyph unicode="&#xf10e;" glyph-name="chapters" d="M50.965 299.702h101.925v101.925h-101.925v-101.925zM50.965 94.667h101.925v101.925h-101.925v-101.925zM50.965 504.742h101.925v101.925h-101.925v-101.925zM256 299.702h717.035v101.925h-717.035v-101.925zM256 94.667h717.035v101.925h-717.035v-101.925zM256 606.667v-101.925h717.035v101.925h-717.035z" />
<glyph unicode="&#xf10f;" glyph-name="share" d="M772 171.667q-25 0-47-9t-38-24l-309 180q2 7 3 14.5t1 15.5-1 15.5-3 14.5l305 178q18-16 40.5-25.5t48.5-9.5q53 0 91 38t38 92-38 92-91 38q-54 0-92-38t-38-92q0-8 1-15.5t3-14.5l-305-178q-18 16-40.5 25.5t-48.5 9.5q-53 0-91-38t-38-92 38-92 91-38q26 0 48.5 9.5t40.5 25.5l308-179q-2-7-3-14t-1-15q0-52 37-89t90-37q52 0 89 37t37 89q0 53-37 89.5t-89 36.5v0z" />
<glyph unicode="&#xf110;" glyph-name="cog" d="M813.513 311.089c1.627 12.989 2.843 26.183 2.843 39.578s-1.216 26.586-2.843 39.578l85.853 67.183c7.715 6.088 9.945 17.051 4.872 25.982l-81.188 140.659c-5.073 8.729-15.631 12.38-24.763 8.729l-101.078-40.798c-20.906 16.034-43.842 29.632-68.603 39.986l-15.223 107.575c-1.828 9.538-10.147 17.051-20.296 17.051h-162.375c-10.147 0-18.468-7.508-20.095-17.051l-15.223-107.575c-24.763-10.351-47.695-23.748-68.603-39.986l-101.078 40.798c-9.132 3.45-19.689 0-24.763-8.729l-81.188-140.659c-5.073-8.729-2.843-19.689 4.872-25.982l85.652-67.183c-1.627-12.989-2.843-26.183-2.843-39.578s1.216-26.586 2.843-39.578l-85.652-67.183c-7.715-6.088-9.945-17.051-4.872-25.982l81.188-140.659c5.073-8.729 15.631-12.38 24.763-8.729l101.078 40.798c20.906-16.034 43.842-29.632 68.603-39.986l15.223-107.575c1.627-9.538 9.945-17.051 20.095-17.051h162.375c10.147 0 18.468 7.508 20.095 17.051l15.223 107.575c24.763 10.351 47.695 23.748 68.603 39.986l101.078-40.798c9.132-3.45 19.689 0 24.763 8.729l81.188 140.659c5.073 8.729 2.843 19.689-4.872 25.982l-85.652 67.183zM511.901 208.587c-78.549 0-142.076 63.527-142.076 142.076s63.527 142.076 142.076 142.076 142.076-63.527 142.076-142.076-63.527-142.076-142.076-142.076z" />
<glyph unicode="&#xf111;" glyph-name="volume1" d="M513.262-21.54q-5.881 0-11.762 2.058t-10.782 5.352l-244.061 205.808h-113.698q-13.722 0-23.034 7.821t-9.312 18.523v266.727q0 10.701 9.312 18.523t23.034 7.821h113.698l244.061 205.808q6.861 5.764 16.662 7.409t18.623-1.646 14.213-9.879 5.392-14.819v-693.16q0-8.231-5.392-14.819t-14.213-9.879q-2.94-0.824-6.372-1.234t-6.372-0.412zM735.434 348.612c0 38-10 72.5-30 103.5s-46 54.5-78 70.5v-348c32 16 58 39.5 78 70.5s30 65.5 30 103.5z" />
<glyph unicode="&#xf112;" glyph-name="volume3" d="M513.262-21.54q-5.881 0-11.762 2.058t-10.782 5.352l-244.061 205.808h-113.698q-13.722 0-23.034 7.821t-9.312 18.523v266.727q0 10.701 9.312 18.523t23.034 7.821h113.698l244.061 205.808q6.861 5.764 16.662 7.409t18.623-1.646 14.213-9.879 5.392-14.819v-693.16q0-8.231-5.392-14.819t-14.213-9.879q-2.94-0.824-6.372-1.234t-6.372-0.412zM735.434 348.612c0 38-10 72.5-30 103.5s-46 54.5-78 70.5v-348c32 16 58 39.5 78 70.5s30 65.5 30 103.5zM627.434 727.612v-89c30.667-9.333 59.333-23.333 86-42 26.667-18 49.5-39.833 68.5-65.5s34.167-53.833 45.5-84.5c10.667-31.333 16-64 16-98s-5.333-66.667-16-98c-11.333-30.667-26.5-58.833-45.5-84.5s-41.833-47.5-68.5-65.5c-26.667-18.667-55.333-32.667-86-42v-89c42.667 9.333 82.667 25.667 120 49 36.667 24 68.5 52.667 95.5 86s48.167 70.667 63.5 112c15.333 41.333 23 85.333 23 132s-7.667 90.667-23 132c-15.333 41.333-36.5 78.667-63.5 112s-58.833 62-95.5 86c-37.333 23.333-77.333 39.667-120 49z" />
<glyph unicode="&#xf115;" glyph-name="close" d="M512 783.667q-90 0-168-34-79-34-138-93t-93-138q-34-78-34-168t34-168q34-79 93-138t138-93q78-34 168-34t168 34q79 34 138 93t93 138q34 78 34 168t-34 168q-34 79-93 138t-138 93q-78 34-168 34zM728 195.667l-61-61-155 155-155-155-61 61 155 155-155 155 61 61 155-155 155 155 61-61-155-155z" />
<glyph unicode="&#xf116;" glyph-name="replay" d="M512 610.667v173l-216-217 216-216v173q54 0 101-20 47-21 82.5-56t55.5-82q21-48 21-102 0-53-21-101-20-47-55.5-82t-82.5-56q-47-20-101-20t-101 20q-47 21-82.5 56t-55.5 82q-21 48-21 101h-86q0-71 27-134t74-110 110-74q63-28 135-28t135 28q63 27 110 74t74 110 27 134q0 72-27 135t-74 110-110 74q-63 28-135 28v0z" />
<glyph unicode="&#xf11d;" glyph-name="audio-description" d="M440.136 98.651v505.176q87.808 2.28 155.088-1.14t117.456-38.772q46.756-33.072 78.684-96.36t25.088-146.536q-6.844-88.948-65.572-154.516t-141.972-73.552q-42.192-3.42-104.344-1.712l-62.148 1.712-1.14 2.28t-1.14 3.42v0zM553.028 226.367q54.736-2.28 90.088 26.228t41.052 78.684q6.844 66.14-31.928 105.484t-102.632 34.78v-239.472q0-2.28 1.14-3.992t2.28-1.712v0zM802.768 99.791q22.808-6.844 33.072 11.972t20.528 37.060q21.668 38.772 36.492 88.376t14.824 107.764q1.14 82.104-25.656 143.116t-56.448 102.060h-19.384q-1.14-6.844 2.28-12.544l6.844-11.404q22.808-41.052 40.484-96.36t17.676-121.448q1.14-74.124-20.528-136.844t-50.176-111.756v0zM898.556 99.791q22.808-6.844 33.072 11.972t20.528 37.060q21.668 38.772 36.492 88.376t14.824 107.764q0 82.104-26.228 143.116t-55.876 102.060h-19.384q-1.14-6.844 2.28-12.544t5.7-11.404q23.948-41.052 41.624-96.36t17.676-121.448q1.14-74.124-20.528-136.844t-50.176-111.756v0zM993.204 99.791q22.808-6.844 33.072 11.972t20.528 37.060q21.668 38.772 36.492 88.376t14.824 107.764q1.14 82.104-25.656 143.116t-56.448 102.060h-19.384q-1.14-6.844 2.28-12.544l6.844-11.404q22.808-41.052 40.484-96.36t18.816-121.448q0-74.124-21.668-136.844t-50.176-111.756v0zM-74.164 95.227h157.368l42.192 66.14h148.244l0.572-25.088t0.572-41.052h111.756v515.44h-135.7q-4.56-9.124-55.876-90.088-51.316-82.104-111.184-176.184t-108.904-171.624l-49.036-77.544zM278.204 431.631v-165.352l-93.508 1.14 93.508 164.212z" />
<glyph unicode="&#xf11e;" glyph-name="audio" d="M512 745.667q-77 0-146-30-68-29-118.5-80t-80.5-119q-29-68-29-145v-291q0-52 36.5-88.5t88.5-36.5h124v333h-166v83q0 60 23 113t62.5 92.5 92.5 62.5 113 23 113-23 92.5-62.5 62.5-92.5 23-113v-83h-166v-333h124q52 0 88.5 36.5t36.5 88.5v291q0 77-29 145-30 68-80.5 119t-118.5 80q-69 30-146 30v0z" />
<glyph unicode="&#xf128;" glyph-name="questionmark" horiz-adv-x="636" d="M401.423 144.667v-137q0-9-6.5-16t-16.5-7h-137q-9 0-16 7t-7 16v137q0 10 7 16.5t16 6.5h137q10 0 16.5-6.5t6.5-16.5zM582.423 487.667q0-81-43.5-119.5t-84.5-60.5q-25-15-40-39t-15-37v0q0-9-6.5-18t-16.5-9h-137q-10 0-15.5 11t-5.5 21v26q0 51 40.5 92.5t78.5 58.5q33 15 48 31.5t15 44.5q0 24-27 42t-61 18q-20 0-36.5-5t-25.5-11q-11-8-23.5-21t-37.5-45q-4-4-8.5-6.5t-9.5-2.5q-4 0-7.5 1t-7.5 3l-93 72q-8 5-9.5 13.5t3.5 16.5q46 77 112 114.5t153 37.5q46 0 93-17 46-17 83-48t61-73q23-41 23-91v0z" />
</font>
</defs>
</svg>
