<?xml version="1.0" standalone="no"?>
<!DOCTYPE svg PUBLIC "-//W3C//DTD SVG 1.1//EN" "http://www.w3.org/Graphics/SVG/1.1/DTD/svg11.dtd" >
<svg xmlns="http://www.w3.org/2000/svg">
<metadata>Generated by IcoMoon</metadata>
<defs>
<font id="nuevo" horiz-adv-x="1024">
<font-face units-per-em="1024" ascent="819" descent="-205" />
<missing-glyph horiz-adv-x="1024" />
<glyph unicode="&#x20;" horiz-adv-x="0" d="" />
<glyph unicode="&#xe900;" glyph-name="pip-full" d="M814 657.367h-598q-41 0-70.5-25t-29.5-61v-518q0-36 29.5-61.5t70.5-25.5h598q41 0 67.5 25.5t26.5 61.5v518q0 36-26.5 61t-67.5 25zM843 42.367h-650l-2 540h652v-540zM234 544.367h558v-460h-558v460z" />
<glyph unicode="&#xe901;" glyph-name="rewind" d="M915 521.974v-537c0-5.333-2-10-6-14s-9-6-15-6h-268v83h206v412h-495v-82c0-11.333-3.5-18.833-10.5-22.5s-15.167-2.5-24.5 3.5l-179 120c-4 2-7.333 5-10 9s-4 8.667-4 14c0 2 0.333 4 1 6s1.333 3.667 2 5v0c1.333 2.667 2.833 5 4.5 7s3.833 3.667 6.5 5v0l179 119c9.333 6.667 17.5 8.167 24.5 4.5s10.5-11.167 10.5-22.5v-83h557c6 0 11-2 15-6s6-9 6-15z" />
<glyph unicode="&#xe902;" glyph-name="forward" d="M109.029 522.407v-537c0-5.333 2-10 6-14s9-6 15-6h268v82h-206v413h495v-83c0-11.333 3.5-18.667 10.5-22s15.167-2 24.5 4l179 120c6 2.667 10.167 7.333 12.5 14s1.833 13.333-1.5 20c-1.333 2.667-3 5-5 7s-4 3.333-6 4l-179 120c-9.333 6-17.5 7.167-24.5 3.5s-10.5-11.167-10.5-22.5v-82h-557c-6 0-11-2.167-15-6.5s-6-9.167-6-14.5z" />
<glyph unicode="&#xe903;" glyph-name="skip" d="M161.5-38.633l497 350-497 351v-701zM745.5 662.367v-701h117v701h-117z" />
<glyph unicode="&#xe904;" glyph-name="cast" d="M857.336 657.202h-690.669q-31.244 0-53.854-22.61t-22.61-54.676v-114.289h76.468v114.289h690.669v-536.091h-268.868v-77.29h268.868q31.244 0 53.854 22.61t22.61 54.676v536.091q0 32.066-22.61 54.676t-53.854 22.61v0zM90.2 81.643v-115.111h115.111q0 49.332-33.302 82.222t-81.812 32.888zM90.2 235.402v-77.29q40.29 0 75.646-14.8 34.534-14.8 60.434-40.7t40.7-60.434q14.8-35.356 14.8-75.646h76.468q0 55.912-20.556 105.244t-57.144 85.511-85.102 56.734q-49.332 21.378-105.244 21.378v0zM90.2 388.335v-76.468q71.534 0 134.844-27.132 62.488-27.132 109.356-73.588t74.001-109.766q27.132-62.488 27.132-134.844h76.468q0 87.978-32.888 164.446-32.888 77.29-90.032 134.434t-134.434 90.032q-76.468 32.888-164.446 32.888v0z" />
<glyph unicode="&#xe905;" glyph-name="cast-off" d="M90.716 82.115v-115.082h115.082q0 47.677-33.702 81.379t-81.379 33.702v0zM90.716 235.011v-76.449q39.458 0 74.804-14.798 34.524-14.798 60.416-41.102t41.512-60.83q14.798-35.346 14.798-74.804h76.449q0 55.896-20.55 104.396-21.372 49.322-57.954 85.49t-85.078 57.54q-48.5 20.55-104.396 20.55v0zM780.386 502.989h-536.777v-62.474q57.54-18.083 107.684-49.322t91.242-72.338 72.338-91.242 49.322-106.862h216.19v382.238zM90.716 388.727v-77.269q71.516 0 133.99-26.306 63.296-27.128 109.738-73.982t73.57-110.152q27.128-62.474 27.128-133.99h76.449q0 87.134-32.88 164.402-32.88 76.449-90.011 133.576t-134.399 90.011q-76.449 33.702-163.58 33.702v0zM856.835 656.707h-689.671q-31.236 0-53.842-22.606t-22.606-53.842v-115.082h76.449v115.082h689.671v-536.777h-267.977v-76.449h267.977q31.236 0 53.842 22.606t22.606 53.842v536.777q0 31.236-22.606 53.842t-53.842 22.606v0z" />
<glyph unicode="&#xe906;" glyph-name="theater" d="M795.38 636.534h-561.129c-26.274 0-48.637-7.819-67.092-23.459s-27.681-34.719-27.681-57.239v-487c0-22.52 9.227-41.756 27.681-57.708s40.818-23.928 67.092-23.928h561.129c25.648 0 46.917 7.976 63.807 23.928s25.335 35.188 25.335 57.708v487c0 22.52-8.445 41.6-25.335 57.239s-38.16 23.459-63.807 23.459zM822.592 58.514h-609.923l-1.877 506.705h611.8z" />
<glyph unicode="&#xe907;" glyph-name="theater-min" d="M813.46 450.206h-598c-28 0-51.833-8.333-71.5-25s-29.582-37-29.5-61l1.080-317.008c0.082-24 9.833-44.5 29.5-61.5s43.5-25.5 71.5-25.5h598c27.333 0 50 8.5 68 25.5s27.082 37.5 27 61.5l-1.080 317.008c-0.082 24-9 44.333-27 61s-40.667 25-68 25zM843.54 36.198h-650l-3.080 338.008h652z" />
<glyph unicode="&#xe908;" glyph-name="download" d="M796.653 254.359v-186.118h-569.302v186.118h-109.421v-240.828c0-30.196 24.463-54.683 54.789-54.683h678.561c30.303 0 54.789 24.463 54.789 54.683v240.828zM501.984 164.099l-156.655 189.296c0 0-19.998 8.95 2.010 22.503h88.276v275.562c0 0-3.508 13.428 16.713 13.428h124.258c14.569 0 14.239-11.308 14.239-11.308v-271.999h81.483c31.363 0 7.745-23.563 7.745-23.563s-133.284-176.933-151.872-195.493c-13.372-13.452-26.199 1.575-26.199 1.575z" />
<glyph unicode="&#xe90c;" glyph-name="airplay" d="M842.905 660.867q29.296 0 51.705-22.402t22.402-51.705v-441.202q0-29.296-22.402-50.845t-51.705-21.542h-146.494v72.387h146.494v441.202h-661.81v-441.202h146.494v-72.387h-146.494q-29.296 0-51.705 21.542t-22.402 50.845v441.202q0 29.296 22.402 51.705t51.705 22.402h661.81zM291.399-37.133l220.601 220.601 220.601-220.601h-441.202z" />
<glyph unicode="&#xe960;" glyph-name="snapshot" d="M529.743 418.534c-88.357 0-159.965-71.645-159.965-159.999s71.609-159.999 159.965-159.999c88.32 0 159.965 71.645 159.965 159.999s-71.645 159.999-159.965 159.999zM467.804 365.804c18.277 10.63 39.29 17.173 61.972 17.173 63.681 0 115.769-48.284 122.987-110.116-61.51 47.361-134.223 76.586-184.959 92.943zM885.334 560.755h-171.877l-23.679 71.11h-355.555l-23.679-71.11h-136.32c-39.253 0-88.889-31.857-88.889-71.11v-426.666c0-39.253 49.636-71.11 88.889-71.11h711.111c39.253 0 53.332 31.857 53.332 71.11v426.666c0 39.253-14.079 71.11-53.332 71.11zM529.779 27.423c-127.643 0-231.112 103.466-231.112 231.112s103.466 231.112 231.112 231.112 231.112-103.466 231.112-231.112-103.466-231.112-231.112-231.112zM867.556 418.534h-71.11v71.11h71.11v-71.11z" />
<glyph unicode="&#xe9b3;" glyph-name="center" d="M896.5 360.367h-76q-8 50-31 94-22 44-56.5 78.5t-78.5 56.5q-44 23-94 31v76h-97v-76q-50-8-94-31-44-22-78.5-56.5t-56.5-78.5q-23-44-31-94h-76v-97h76q8-50 31-94 22-44 56.5-78.5t78.5-56.5q44-23 94-31v-76h97v76q50 8 94 31 44 22 78.5 56.5t56.5 78.5q23 44 31 94h76v97zM722.5 360.367h-75q-10 30-33.5 53.5t-53.5 33.5v75q60-13 104.5-57.5t57.5-104.5v0zM512.5 263.367q-20 0-34.5 14.5t-14.5 34.5q0 19 14.5 33.5t33.5 14.5q20 0 34.5-14.5t14.5-33.5q0-20-14.5-34.5t-33.5-14.5zM463.5 522.367v-75q-30-10-53.5-33.5t-33.5-53.5h-75q13 60 57.5 104.5t104.5 57.5zM301.5 263.367h75q10-30 33.5-53.5t53.5-33.5v-75q-60 13-104.5 57.5t-57.5 104.5zM560.5 101.367v75q30 10 53.5 33.5t33.5 53.5h75q-13-60-57.5-104.5t-104.5-57.5z" />
<glyph unicode="&#xea45;" glyph-name="mirror1" d="M823.634 668.37h44.862v-356.847h-44.862v356.847zM155.498 311.523h44.862v-356.154h-44.862v356.154zM378.44 177.619h490.057v-89.040h-490.057v-111.124l-155.99 155.99 155.99 155.99v-111.818zM645.56 445.425h-490.057v89.040h490.057v111.124l155.99-155.99-155.99-155.99v111.818z" />
<glyph unicode="&#xea46;" glyph-name="mirror2" d="M200.363 668.369h-44.862v-356.847h44.862v356.847zM868.502 311.522h-44.862v-356.154h44.862v356.154zM645.557 177.619h-490.058v-89.040h490.058v-111.124l155.99 155.99-155.99 155.99v-111.818zM378.439 445.426h490.058v89.040h-490.058v111.124l-155.99-155.99 155.99-155.99v111.818z" />
<glyph unicode="&#xea47;" glyph-name="replay-big" d="M653.551 540.458l65.237 142.826 96.495-260.602-238.389-44.099 58.557 128.202c-29.72 13.575-63.917 21.183-94.814 21.991-31.148 0.258-78.598-4.852-106.935-15.19s-77.693-42.26-100.518-63.101c-23.625-21.139-47.363-57.818-60.938-87.538-13.324-29.171-22.518-73.521-23.026-105.218-0.809-30.897 4.672-59.314 15.414-87.502s33.129-71.994 53.717-95.367c20.841-22.823 54.9-54.549 84.62-68.124s86.124-23.168 117.020-23.977c31.148-0.258 80.556 12.116 108.893 22.454s59.25 31.649 82.076 52.49c23.625 21.139 46.821 53.654 60.145 82.825l37.252-17.015c-17.849-39.077-42.122-72.558-72.819-100.445s-64.889-48.857-102.574-62.91c-37.685-14.053-77.259-20.591-118.72-19.613-41.714 0.426-82.385 9.689-122.013 27.79s-73.26 42.776-100.895 74.025c-27.887 30.698-48.857 64.889-62.91 102.574s-20.591 77.259-19.613 118.72c0.978 41.462 10.391 81.731 28.24 120.807 18.101 39.629 42.5 73.386 73.197 101.273s64.889 48.857 102.574 62.91c37.685 14.053 77.259 20.591 118.72 19.613 41.714-0.426 82.385-9.689 122.013-27.79v0z" />
<glyph unicode="&#xea48;" glyph-name="brightness" d="M499.63 858.636c-8.049-3.533-16.292-13.537-17.664-21.391-0.584-3.533-0.983-37.284-0.584-75.356 0.584-66.13 0.788-69.274 4.71-74.373 7.649-10.404 13.937-13.537 26.296-13.537s18.637 3.144 26.296 13.537c3.922 5.294 4.116 7.649 4.116 79.667s-0.195 74.373-4.116 79.667c-2.161 2.939-6.277 7.26-9.032 9.226-6.482 4.915-22.18 6.287-30.024 2.56zM169.564 721.86c-8.632-2.55-17.664-12.165-20.408-21.975-4.321-16.292-2.55-18.842 52.787-74.373 41.8-41.8 51.804-50.627 58.286-52.398 22.374-6.083 44.155 15.698 38.072 38.072-1.761 6.472-10.793 16.486-50.432 56.709-55.747 56.115-60.252 59.259-78.305 53.965zM833.229 720.283c-4.905-2.355-25.907-21.975-56.32-52.398-40.233-40.817-48.671-50.237-50.432-56.709-5.888-22.374 15.698-44.155 38.072-38.072 6.472 1.761 16.486 10.793 56.709 50.432 52.193 51.999 57.692 59.064 55.142 72.806-3.738 20.808-25.119 32.778-43.172 23.941zM484.905 609.025c-40.817-5.294-79.872-19.814-113.818-42.578-18.842-12.564-53.576-47.288-66.13-66.13-18.647-27.863-31.99-59.259-39.055-92.232-5.1-23.347-5.1-74.762 0-98.12 10.988-50.821 32.768-90.86 69.663-127.744 36.895-36.895 76.923-58.675 127.744-69.663 23.347-5.1 74.762-5.1 98.12 0 50.432 10.793 91.443 33.167 127.744 69.663 36.506 36.301 58.87 77.312 69.663 127.744 5.1 23.347 5.1 74.762 0 98.12-10.988 50.821-32.768 90.86-69.663 127.744-36.301 36.301-74.373 57.498-123.822 68.68-16.271 3.727-64.942 6.472-80.445 4.516zM557.711 541.718c35.717-9.226 62.792-25.119 89.088-51.999 56.515-57.897 70.062-142.275 33.946-213.903-10.988-22.17-17.664-31.396-35.717-49.449s-27.279-24.73-49.449-35.717c-30.024-15.114-60.436-21.391-93.798-19.425-48.077 2.949-86.538 20.214-120.883 54.354-27.279 26.88-43.172 54.948-52.398 91.443-4.71 18.647-4.71 65.341 0 83.988 8.827 35.123 25.119 64.174 50.432 89.682 28.846 29.44 60.631 46.316 100.669 53.965 19.63 3.727 58.685 2.355 78.111-2.939zM28.662 387.667c-13.148-5.683-20.603-20.797-17.859-35.512 1.761-9.226 11.581-20.019 20.408-22.569 4.71-1.372 31.396-1.966 77.312-1.567 67.113 0.594 70.246 0.788 75.356 4.71 10.404 7.649 13.548 13.926 13.548 26.286s-3.144 18.647-13.537 26.296c-5.1 3.922-8.049 4.116-77.312 4.516-56.914 0.389-73.206 0-77.916-2.161zM844.995 387.667c-13.148-5.693-20.603-20.797-17.859-35.512 1.761-9.226 11.581-20.019 20.408-22.569 4.71-1.372 31.396-1.966 77.312-1.567 67.113 0.594 70.257 0.788 75.356 4.71 10.404 7.649 13.548 13.926 13.548 26.286s-3.144 18.647-13.537 26.296c-5.1 3.922-8.049 4.116-77.312 4.516-56.914 0.389-73.206 0-77.916-2.161zM258.263 144.14c-5.888-2.161-19.825-14.909-57.108-52.398-40.428-40.622-49.848-51.026-51.804-57.498-6.676-22.764 15.503-44.933 38.267-38.267 6.472 1.966 16.876 11.387 58.286 52.593 41.8 41.8 50.627 51.804 52.398 58.286 6.267 23.552-17.080 45.527-40.038 37.284zM746.885 144.14c-15.503-5.499-24.525-21.975-20.408-37.284 1.772-6.472 10.793-16.486 50.432-56.709 52.593-52.787 58.87-57.498 73.39-55.142 10.598 1.966 22.374 12.564 25.313 23.153 4.321 16.087 2.161 19.231-50.821 72.612-26.685 26.88-50.627 49.848-53.371 51.415-8.253 4.311-16.302 4.905-24.535 1.956zM499.63 42.292c-8.049-3.533-16.292-13.537-17.664-21.391-0.584-3.533-0.983-37.284-0.584-75.356 0.584-66.13 0.788-69.274 4.71-74.373 7.649-10.404 13.937-13.537 26.296-13.537s18.637 3.144 26.296 13.537c3.922 5.294 4.116 7.649 4.116 79.667s-0.195 74.373-4.116 79.667c-2.161 2.939-6.277 7.26-9.032 9.226-6.482 4.915-22.18 6.298-30.024 2.56z" />
<glyph unicode="&#xea49;" glyph-name="saturation" d="M512 860.96c-277.094 0-501.76-224.666-501.76-501.76s224.666-501.76 501.76-501.76c277.094 0 501.76 224.666 501.76 501.76s-224.666 501.76-501.76 501.76zM512 805.971c230.912 0 442.675-213.811 442.675-444.723 0 0-86.016 39.731-233.677 39.731-124.518 0-208.998-41.779-208.998-41.779s-126.259-41.779-209.101-41.779c-146.33 0-233.574 49.971-233.574 49.971 0 230.912 211.763 438.579 442.675 438.579z" />
<glyph unicode="&#xea4a;" glyph-name="contrast" d="M512-142.56c-277.094 0-501.76 224.666-501.76 501.76s224.666 501.76 501.76 501.76c277.094 0 501.76-224.666 501.76-501.76s-224.666-501.76-501.76-501.76zM526.336 790.816c-215.562-0.95-448-182.886-448-429.568 0-207.872 227.952-433.723 435.712-435.712 213.914-2.048 441.573 221.973 437.76 431.616-3.746 205.943-207.005 434.627-425.472 433.664zM512 45.549v627.2c173.261 0 313.651-140.39 313.651-313.651 0-173.158-140.39-313.549-313.651-313.549z" />
<glyph unicode="&#xea4b;" glyph-name="filters" d="M682.667 48.756h341.333v-56.889h-341.333zM455.111 48.756h-455.111v-56.889h455.111v-170.667h56.889v341.333h-56.889zM625.777 503.867h56.889v341.333h-56.889v-113.777h-625.777v-56.889h625.777zM853.333 731.423v-56.889h170.667v56.889zM170.667 162.533h56.889v341.333h-56.889v-113.777h-170.667v-56.889h170.667zM398.223 333.2h625.777v56.889h-625.777zM682.667-7.721h341.333v-56.889h-341.333zM511.176-7.721h-511.176v-56.889h511.176v-114.189h56.889v341.333h-56.889zM681.843 503.867h56.889v341.333h-56.889v-170.255h-681.843v-56.889h681.843zM853.333 674.945v-56.889h170.667v56.889zM226.731 162.945h56.889v340.921h-56.889v-170.255h-226.731v-56.889h226.731zM398.223 276.723h625.777v56.889h-625.777z" />
<glyph unicode="&#xf00a;" glyph-name="playlist" d="M291.5 71.867v-110q0-23-16.5-39t-39.5-16h-184q-23 0-39 16t-16 39v110q0 23 16 39.5t39 16.5h184q23 0 39.5-16.5t16.5-39.5zM291.5 366.867v-110q0-23-16.5-39.5t-39.5-16.5h-184q-23 0-39 16.5t-16 39.5v110q0 23 16 39t39 16h184q23 0 39.5-16t16.5-39zM659.5 71.867v-110q0-23-16.5-39t-38.5-16h-185q-22 0-38.5 16t-16.5 39v110q0 23 16.5 39.5t38.5 16.5h185q22 0 38.5-16.5t16.5-39.5zM291.5 661.867v-111q0-23-16.5-39t-39.5-16h-184q-23 0-39 16t-16 39v111q0 22 16 38.5t39 16.5h184q23 0 39.5-16.5t16.5-38.5v0zM659.5 366.867v-110q0-23-16.5-39.5t-38.5-16.5h-185q-22 0-38.5 16.5t-16.5 39.5v110q0 23 16.5 39t38.5 16h185q22 0 38.5-16t16.5-39zM1027.5 71.867v-110q0-23-16-39t-39-16h-184q-23 0-39.5 16t-16.5 39v110q0 23 16.5 39.5t39.5 16.5h184q23 0 39-16.5t16-39.5zM659.5 661.867v-111q0-23-16.5-39t-38.5-16h-185q-22 0-38.5 16t-16.5 39v111q0 22 16.5 38.5t38.5 16.5h185q22 0 38.5-16.5t16.5-38.5v0zM1027.5 366.867v-110q0-23-16-39.5t-39-16.5h-184q-23 0-39.5 16.5t-16.5 39.5v110q0 23 16.5 39t39.5 16h184q23 0 39-16t16-39zM1027.5 661.867v-111q0-23-16-39t-39-16h-184q-23 0-39.5 16t-16.5 39v111q0 22 16.5 38.5t39.5 16.5h184q23 0 39-16.5t16-38.5v0z" />
<glyph unicode="&#xf00c;" glyph-name="checked" d="M957.5 520.367q0-11-4-21.5t-12-17.5l-495-495q-7-8-17.5-12t-21.5-4q-10 0-20.5 4t-18.5 12l-286 286q-8 8-12 18.5t-4 21.5q0 10 4 20.5t12 18.5l78 78q8 8 18 12t21 4 21-4 18-12l169-170 378 378q8 8 18 12t21 4 21-4 18-12l78-78q8-8 12-18t4-21v0z" />
<glyph unicode="&#xf00d;" glyph-name="cancel" horiz-adv-x="818" d="M753 102.867q0-24-16-40l-79-79q-16-16-40-16-23 0-39 16l-170 171-170-171q-16-16-39-16-24 0-40 16l-79 79q-16 16-16 40 0 23 16 39l171 170-171 170q-16 16-16 39 0 24 16 40l79 79q16 16 40 16 23 0 39-16l170-171 170 171q16 16 39 16 24 0 40-16l79-79q16-16 16-40 0-23-16-39l-171-170 171-170q16-16 16-39z" />
<glyph unicode="&#xf012;" glyph-name="volume-bar" d="M52.5 197.367q-23 0-40-17t-17-40v-115q0-24 17-41t40-17q24 0 41 17t17 41v115q0 23-17 40t-41 17zM282.5 312.367q-24 0-40.5-17t-16.5-41v-229q0-24 16.5-41t40.5-17 40.5 17 16.5 41v229q0 24-16.5 41t-40.5 17zM512.5 427.367q-24 0-41-17t-17-41v-344q0-24 17-41t41-17q23 0 40 17t17 41v344q0 24-17 41t-40 17v0zM741.5 541.367q-24 0-40.5-16.5t-16.5-40.5v-459q0-24 16.5-41t40.5-17 40.5 17 16.5 41v459q0 24-16.5 40.5t-40.5 16.5zM971.5 656.367q-24 0-41-17t-17-40v-574q0-24 17-41t41-17q23 0 40 17t17 41v574q0 23-17 40t-40 17z" />
<glyph unicode="&#xf053;" glyph-name="previous" horiz-adv-x="781" d="M679.5 619.367l-308-308 308-307q11-11 11-26t-11-26l-96-96q-11-11-26-11t-26 11l-430 429q-11 11-11 26t11 26l430 430q11 11 26 11t26-11l96-96q11-11 11-26t-11-26v0z" />
<glyph unicode="&#xf054;" glyph-name="next" horiz-adv-x="708" d="M643 285.367l-430-429q-11-11-26-11t-26 11l-96 96q-11 11-11 26t11 26l307 307-307 308q-11 11-11 26t11 26l96 96q11 11 26 11t26-11l430-430q11-11 11-26t-11-26v0z" />
<glyph unicode="&#xf059;" glyph-name="help" horiz-adv-x="889" d="M519 34.367v111q0 8-6 13-5 6-13 6h-111q-8 0-13-6-5-5-5-13v-111q0-8 5-13t13-5h111q8 0 13 5 6 5 6 13zM666 422.367q0 51-32 95-32 43-80 67-48 23-98 23-140 0-214-123-9-14 4-24l77-58q4-3 11-3 9 0 14 7 31 39 50 53t49 14q28 0 50-15t22-34q0-22-12-36-12-13-39-26-37-16-67-50-30-33-30-72v-21q0-8 5-13t13-5h111q8 0 13 5 6 5 6 13 0 11 12 29 12 17 31 28t29 17 26 20q17 14 26 28 9 13 16 35 7 21 7 46v0zM888 311.367q0-120-59-222-60-102-162-162-102-59-222-59-121 0-223 59-102 60-162 162-59 102-59 222 0 121 59 223 60 102 162 162 102 59 223 59 120 0 222-59 102-60 162-162 59-102 59-223z" />
<glyph unicode="&#xf05a;" glyph-name="info" horiz-adv-x="889" d="M592 34.367v93q0 8-5 13t-13 5h-55v296q0 8-6 13-5 5-13 5h-185q-8 0-13-5t-5-13v-93q0-8 5-13t13-5h56v-185h-56q-8 0-13-5t-5-13v-93q0-8 5-13t13-5h259q8 0 13 5t5 13v0zM519 552.367v92q0 8-6 13-5 6-13 6h-111q-8 0-13-6-5-5-5-13v-92q0-8 5-14 5-5 13-5h111q8 0 13 5 6 6 6 14zM888 311.367q0-120-59-222-60-102-162-162-102-59-222-59-121 0-223 59-102 60-162 162-59 102-59 222 0 121 59 223 60 102 162 162 102 59 223 59 120 0 222-59 102-60 162-162 59-102 59-223z" />
<glyph unicode="&#xf065;" glyph-name="fullscreen" horiz-adv-x="889" d="M437.722 228.265q0-6.326-5.422-11.75l-172.624-173.528 75.015-75.015q9.942-9.942 9.942-23.498t-9.942-23.498-23.498-9.942h-234.083q-13.556 0-23.498 9.942t-9.942 23.498v234.083q0 13.556 9.942 23.498t23.498 9.942 23.498-9.942l75.015-75.918 173.528 173.528q5.422 5.422 11.75 5.422 7.23 0 11.75-5.422l59.65-59.65q5.422-4.519 5.422-11.75v0zM845.334 679.259v-234.083q0-13.556-9.942-23.498t-23.498-9.942-23.498 9.942l-75.015 75.918-173.528-173.528q-4.519-5.422-11.75-5.422-6.326 0-11.75 5.422l-59.65 59.65q-5.422 4.519-5.422 11.75 0 6.326 5.422 11.75l173.528 173.528-75.918 75.015q-9.942 9.942-9.942 23.498t9.942 23.498 23.498 9.942h234.083q13.556 0 23.498-9.942t9.942-23.498v0z" />
<glyph unicode="&#xf066;" glyph-name="fullscreen-off" horiz-adv-x="889" d="M444.5 278.935v-233.684q0-13.534-9.924-23.458t-23.458-9.924-23.458 9.924l-75.79 74.887-172.33-173.232q-5.414-5.414-12.632-5.414-6.316 0-11.73 5.414l-59.548 59.548q-4.512 5.414-4.512 11.73 0 7.218 4.512 12.632l173.232 172.33-74.887 75.79q-9.924 9.924-9.924 23.458t9.924 23.458q9.924 9.022 23.458 9.022h233.684q13.534 0 23.458-9.022 9.924-9.924 9.924-23.458v0zM837.882 629.009q0-7.218-5.414-12.632l-173.232-172.33 74.887-75.79q9.924-9.924 9.924-23.458t-9.924-23.458-23.458-9.924h-232.782q-13.534 0-23.458 9.924t-9.924 23.458v233.684q0 13.534 9.924 23.458t23.458 9.924 23.458-9.924l74.887-74.887 172.33 173.232q5.414 5.414 12.632 5.414 6.316 0 11.73-5.414l59.548-59.548q5.414-5.414 5.414-11.73v0z" />
<glyph unicode="&#xf081;" glyph-name="twitter" horiz-adv-x="891" d="M742 477.367q-33-15-70-20 39 23 54 68-38-22-78-30-35 38-89 38-50 0-85-35-36-36-36-86 0-17 3-28-75 4-140 38-66 33-111 89-17-29-17-61 0-66 53-101-28 0-58 15v-1q0-44 29-78 29-33 71-42-17-4-30-4-7 0-22 2 12-36 43-60t70-24q-67-52-151-52-15 0-29 1 86-54 187-54 64 0 121 20 57 21 97 55 41 35 70 80t43 93q15 49 15 98 0 10-1 16 36 26 61 63v0zM890 589.367v-556q0-68-49-117t-118-49h-555q-69 0-118 49t-49 117v556q0 69 49 118t118 49h555q69 0 118-49t49-118v0z" />
<glyph unicode="&#xf082;" glyph-name="facebook" horiz-adv-x="891" d="M723 756.367q69 0 118-49t49-118v-556q0-68-49-117t-118-49h-109v344h116l17 134h-133v86q0 32 14 49 14 16 53 16h71v120q-37 5-103 5-79 0-126-46t-47-131v-99h-116v-134h116v-344h-308q-69 0-118 49t-49 117v556q0 69 49 118t118 49h555z" />
<glyph unicode="&#xf08c;" glyph-name="linked-in" horiz-adv-x="891" d="M138 11.367h134v402h-134v-402zM281 537.367q-1 30-21 50-21 19-54 19-34 0-55-19-21-20-21-50t21-50q20-20 53-20h1q34 0 55 20t21 50v0zM619 11.367h134v231q0 89-42 135-43 45-112 45-79 0-121-67h1v58h-134q2-38 0-402h134v225q0 22 4 32 9 21 26 35t43 14q67 0 67-91v-215zM890 589.367v-556q0-68-49-117t-118-49h-555q-69 0-118 49t-49 117v556q0 69 49 118t118 49h555q69 0 118-49t49-118v0z" />
<glyph unicode="&#xf0d3;" glyph-name="pinterest" horiz-adv-x="891" d="M723 756.367q69 0 118-49t49-118v-556q0-68-49-117t-118-49h-419q49 70 62 121 5 20 31 121 12-22 42-39 31-16 65-16 105 0 172 86 66 85 66 216 0 48-20 94-21 45-56 80-36 35-89 56-52 21-114 21-60 0-112-16-53-16-89-44t-62-64q-26-35-38-74-13-38-13-76 0-59 23-105 23-45 67-63 8-3 14 0t8 11q6 25 9 35 4 13-6 24-29 36-29 87 0 87 60 149 60 61 156 61 86 0 135-47 48-47 48-121 0-97-39-166-39-68-100-68-35 0-56 25-22 25-14 60 5 20 16 54 10 33 17 59 6 25 6 43 0 28-15 47-16 19-44 19-35 0-60-33t-25-81q0-41 14-70l-56-239q-14-58-4-147h-106q-69 0-118 49t-49 117v556q0 69 49 118t118 49h555z" />
<glyph unicode="&#xf101;" glyph-name="play" d="M274.5 614.367v-605l475 302z" />
<glyph unicode="&#xf103;" glyph-name="pause" d="M253 9.367h173v605h-173v-605zM598 614.367v-605h173v605h-173z" />
<glyph unicode="&#xf104;" glyph-name="mute" d="M706 311.867q0 57-30 103.5t-78 70.5v-95l107-106q1 6 1 13v14zM815 311.867q0-30-6.5-58.5t-17.5-55.5l66-65q21 40 32.5 85.5t11.5 93.5q0 70-23 132t-63.5 112-95.5 85q-56 35-121 50v-89q47-14 87-42 40-27 68.5-65t44.5-85q17-46 17-98v0zM178 700.867l-55-55 204-204h-204v-259h173l216-216v290l184-184q-22-16-46.5-29.5t-51.5-21.5v-89q45 10 85.5 30t74.5 48l88-88 55 55-723 723zM512 657.867l-90-90 90-91v181z" />
<glyph unicode="&#xf107;" glyph-name="volume" d="M123 441.867v-259h173l216-216v691l-216-216h-173zM706 311.867q0 57-30 103.5t-78 70.5v-348q48 24 78 70.5t30 103.5zM598 690.867v-89q47-14 87-42 40-27 68.5-65t44.5-85q17-46 17-98 0-51-17-98-16-46-44.5-84t-68.5-66-87-41v-90q65 15 121 50 55 35 95.5 85t63.5 112q23 63 23 132 0 70-23 132t-63.5 112-95.5 85q-56 36-121 50z" />
<glyph unicode="&#xf10a;" glyph-name="pip" d="M814 657.367h-598q-41 0-70.5-25t-29.5-61v-518q0-36 29.5-61.5t70.5-25.5h598q41 0 67.5 25.5t26.5 61.5v518q0 36-26.5 61t-67.5 25zM843 42.367h-650l-2 540h652v-540zM528 303.367h265v-219h-265v219z" />
<glyph unicode="&#xf10c;" glyph-name="descriptions" d="M857.5 657.367h-691q-36 0-61.5-25.5t-25.5-60.5v-519q0-36 25.5-61t61.5-25h691q36 0 61.5 25t25.5 61v519q0 35-25.5 60.5t-61.5 25.5v0zM166.5 311.367h173v-86h-173v86zM598.5 52.367h-432v86h432v-86zM857.5 52.367h-173v86h173v-86zM857.5 225.367h-432v86h432v-86z" />
<glyph unicode="&#xf10d;" glyph-name="captions" d="M814.5 657.367h-605q-36 0-61-25.5t-25-60.5v-519q0-36 25-61t61-25h605q36 0 61 25t25 61v519q0 35-25 60.5t-61 25.5v0zM468.5 355.367h-64v21h-87v-130h87v22h64v-43q0-18-12.5-30.5t-30.5-12.5h-130q-18 0-30.5 12.5t-12.5 30.5v173q0 18 12.5 30.5t30.5 12.5h130q18 0 30.5-12.5t12.5-30.5v-43zM771.5 355.367h-65v21h-86v-130h86v22h65v-43q0-18-12.5-30.5t-30.5-12.5h-130q-18 0-30.5 12.5t-12.5 30.5v173q0 18 12.5 30.5t30.5 12.5h130q18 0 30.5-12.5t12.5-30.5v-43z" />
<glyph unicode="&#xf10e;" glyph-name="chapters" d="M85.13 264.621h94.494v95.593h-94.494v-95.593zM85.13 74.533h94.494v95.593h-94.494v-95.593zM85.13 454.707h94.494v94.494h-94.494v-94.494zM274.117 264.621h664.753v95.593h-664.753v-95.593zM274.117 74.533h664.753v95.593h-664.753v-95.593zM274.117 549.201v-94.494h664.753v94.494h-664.753z" />
<glyph unicode="&#xf10f;" glyph-name="share" d="M771.5 133.367q-25 0-46.5-9t-38.5-24l-308 179q2 7 3 15t1 15q0 8-1 15.5t-3 15.5l305 177q17-16 39.5-25.5t48.5-9.5q53 0 91 38t38 92-38 92-91 38q-54 0-92-38t-38-92q0-8 1-15.5t3-14.5l-305-178q-17 16-39.5 25.5t-48.5 9.5q-53 0-91-38t-38-92q0-53 38-91t91-38q26 0 48.5 9t39.5 26l308-180-2-14t-1-14q0-52 37-89t89-37 89 37 37 89-37 89-89 37v0z" />
<glyph unicode="&#xf110;" glyph-name="settings" d="M805.154 273.918l1.897 18.974t0.949 18.974q0 10.436-0.949 19.923l-1.897 18.974 83.487 65.462q5.692 3.795 7.115 10.91t-2.372 13.756l-78.744 136.615q-3.795 6.641-10.91 9.013t-13.756-0.474l-97.718-38.897q-15.179 11.385-31.782 21.346t-34.628 17.551l-15.179 104.359q-0.949 6.641-6.641 11.385t-13.282 4.744h-157.487q-7.59 0-13.282-4.744t-6.641-11.385l-14.231-104.359q-18.026-7.59-35.103-17.551t-32.256-21.346l-97.718 38.897q-6.641 2.846-13.756 0.474t-10.91-9.013l-78.744-136.615q-3.795-5.692-2.372-12.808t7.115-11.859l83.487-65.462-1.897-18.974t-0.949-19.923q0-9.487 0.949-18.974l1.897-18.974-83.487-65.462q-5.692-4.744-7.115-11.859t2.372-13.756l78.744-136.615q3.795-6.641 10.91-9.013t13.756 0.474l97.718 39.846q15.179-11.385 32.256-21.346t35.103-17.551l14.231-104.359q0.949-7.59 6.641-12.333t13.282-4.744h157.487q7.59 0 12.808 4.744t7.115 12.333l14.231 104.359q18.026 7.59 35.103 17.551t32.256 21.346l97.718-39.846q6.641-1.897 13.756 0t10.91 8.538l78.744 136.615q3.795 6.641 2.372 13.756t-7.115 11.859l-83.487 65.462zM512 174.303q-56.923 0-97.718 40.321t-40.795 97.244q0 57.872 40.795 98.192t97.718 40.321 97.718-40.321 40.795-98.192q0-56.923-40.795-97.244t-97.718-40.321z" />
<glyph unicode="&#xf115;" glyph-name="close" d="M512.5 743.867q-90 0-169-34-78-33-137-92t-93-137q-34-79-34-169 0-89 34-168t93-137.5 137-92.5q79-34 169-34 89 0 168 34 78 34 137 92.5t93 137.5 34 168q0 90-34 169-34 78-93 137t-137 92q-79 34-168 34zM728.5 156.867l-62-61-154 155-155-155-62 61 155 155-155 155 62 61 155-155 154 155 62-61-155-155 155-155z" />
<glyph unicode="&#xf116;" glyph-name="replay" d="M512.5 571.367v173l-217-216 217-216v172q53 0 100-20 48-20 83-55.5t55-82.5q21-47 21-101t-21-101q-20-47-55-82t-83-56q-47-20-100-20-54 0-101 20-48 21-83 56t-55 82q-21 47-21 101h-86q0-72 27-135 27-62 74-109t110-74q63-28 135-28 71 0 134 28 63 27 110 74t74 109q27 63 27 135t-27 135-74 109.5-110 74.5q-63 27-134 27v0z" />
<glyph unicode="&#xf11d;" glyph-name="uniF11D" d="M437.184 50.013v526.082q91.442 1.188 161.506-1.782t122.318-39.782q48.69-34.438 81.346-100.348t26.72-152.6q-8.312-92.628-68.878-160.912t-147.256-76.596q-43.94-3.562-108.66-1.782l-64.722 1.782-1.188 2.376t-1.188 3.562v0zM554.752 181.831q57.002-2.376 93.816 27.908t42.752 81.346q7.126 70.066-33.252 111.036t-106.88 35.032v-248.198q0-3.562 1.188-4.75l2.376-2.376zM813.636 50.013q24.938-5.938 35.626 13.656t20.188 38.596q23.75 40.376 39.19 92.034t15.438 112.224q0 85.504-27.314 149.036t-58.19 106.286h-20.188q-1.188-7.126 2.376-13.656t5.938-11.282q23.75-42.752 42.752-100.942t19-125.88q0-78.378-21.97-143.1t-52.846-116.974v0zM913.39 50.013q23.75-5.938 34.438 13.656t21.376 38.596q23.75 40.376 38.596 92.034t16.032 112.224q0 85.504-27.314 149.036t-58.19 106.286h-21.376q-1.188-7.126 2.968-13.656t6.532-11.282q23.75-42.752 42.752-100.942t19-125.88q0-78.378-21.97-143.1t-52.846-116.974v0zM1011.956 50.013q24.938-5.938 35.626 13.656t20.188 38.596q23.75 40.376 39.19 92.034t15.438 112.224q0 85.504-27.314 149.036t-58.19 106.286h-20.188q-1.188-7.126 2.376-13.656t5.938-11.282q23.75-42.752 42.752-100.942t19-125.88q0-78.378-21.97-143.1t-52.846-116.974v0zM-98.398 46.451h163.882l45.126 68.878h154.38v-68.878h117.568v535.584h-142.506q-4.75-8.312-58.19-93.816-53.44-84.316-115.786-182.288t-113.41-178.726l-51.064-80.754zM268.554 395.589v-171.006l-97.378 1.188 97.378 169.82z" />
<glyph unicode="&#xf11e;" glyph-name="audio" d="M511.527 685.034q-72.836 0-137.159-28.378-64.323-27.432-112.092-75.674t-76.147-112.565q-27.432-64.323-27.432-137.159v-275.264q0-48.242 34.526-82.768t82.768-34.526h118.24v314.046h-157.023v78.512q0 56.755 21.756 106.889t58.647 87.498 87.025 59.12 106.889 21.756q57.701 0 107.835-21.756 49.188-21.756 86.552-59.12t59.12-87.498 21.756-106.889v-78.512h-157.023v-314.046h118.24q48.242 0 82.768 34.526t34.526 82.768v275.264q0 72.836-27.432 137.159-28.378 64.323-76.147 112.565t-112.092 75.674q-64.323 28.378-138.105 28.378v0z" />
<glyph unicode="&#xf128;" glyph-name="uniF128" horiz-adv-x="636" d="M408.596 88.142v-148.789q0-9.773-7.059-17.375t-17.918-7.602h-148.789q-9.773 0-17.375 7.602t-7.602 17.375v148.789q0 10.86 7.602 17.918t17.375 7.059h148.789q10.86 0 17.918-7.059t7.059-17.918zM605.174 460.657q0-87.973-47.242-129.784t-91.774-65.707q-27.153-16.292-43.441-42.357t-16.292-40.182v0q0-9.773-7.059-19.55t-17.918-9.773h-148.789q-10.86 0-16.834 11.948t-5.972 22.807v28.237q0 55.387 43.983 100.458t85.253 63.534q35.839 16.292 52.13 34.211t16.292 48.329q0 26.065-29.322 45.614t-66.247 19.55q-21.72 0-39.64-5.431t-27.696-11.948q-11.948-8.69-25.521-22.807t-40.725-48.872q-4.346-4.346-9.232-7.059t-10.316-2.714q-4.346 0-8.147 1.088t-8.147 3.258l-101.002 78.194q-8.69 5.431-10.316 14.661t3.801 17.918q49.96 83.627 121.639 124.353t166.167 40.725q49.96 0 101.002-18.463 49.96-18.463 90.142-52.13t66.247-79.282q24.977-44.528 24.977-98.832v0z" />
</font>
</defs>
</svg>
