<?xml version="1.0" standalone="no"?>
<!DOCTYPE svg PUBLIC "-//W3C//DTD SVG 1.1//EN" "http://www.w3.org/Graphics/SVG/1.1/DTD/svg11.dtd" >
<svg xmlns="http://www.w3.org/2000/svg">
<metadata>Generated by IcoMoon</metadata>
<defs>
<font id="nuevo" horiz-adv-x="1024">
<font-face units-per-em="1024" ascent="1024" descent="0" />
<missing-glyph horiz-adv-x="1024" />
<glyph unicode="&#x20;" d="" />
<glyph unicode="&#xe900;" glyph-name="pip-full" d="M814 858h-598q-42 0-71.5-25t-29.5-61v-519q0-36 29.5-61.5t71.5-25.5h598q41 0 68 25.5t27 61.5v519q0 36-27 61t-68 25v0zM843 242h-650l-2 540h652v-540zM234 744h558v-460h-558v460z" />
<glyph unicode="&#xe901;" glyph-name="rewind" d="M915 726.774v-537c0-5.333-2-10-6-14s-9-6-15-6h-268v83h206v412h-495v-82c0-11.333-3.5-18.833-10.5-22.5s-15.167-2.5-24.5 3.5l-179 120c-4 2-7.333 5-10 9s-4 8.667-4 14c0 2 0.333 4 1 6s1.333 3.667 2 5v0c1.333 2.667 2.833 5 4.5 7s3.833 3.667 6.5 5v0l179 119c9.333 6.667 17.5 8.167 24.5 4.5s10.5-11.167 10.5-22.5v-83h557c6 0 11-2 15-6s6-9 6-15z" />
<glyph unicode="&#xe902;" glyph-name="forward" d="M109.029 727.207v-537c0-5.333 2-10 6-14s9-6 15-6h268v82h-206v413h495v-83c0-11.333 3.5-18.667 10.5-22s15.167-2 24.5 4l179 120c6 2.667 10.167 7.333 12.5 14s1.833 13.333-1.5 20c-1.333 2.667-3 5-5 7s-4 3.333-6 4l-179 120c-9.333 6-17.5 7.167-24.5 3.5s-10.5-11.167-10.5-22.5v-82h-557c-6 0-11-2.167-15-6.5s-6-9.167-6-14.5z" />
<glyph unicode="&#xe903;" glyph-name="skip" d="M178 178l473.326 334-473.326 334v-668zM735.302 846v-668h110.698v668h-110.698z" />
<glyph unicode="&#xe904;" glyph-name="cast" d="M843.002 843.001h-662q-30.566 0-52.402-21.398t-21.832-51.964v-110.040h74.236v110.040h662v-515.276h-257.638v-73.362h257.638q30.566 0 52.402 21.398t21.832 51.964v515.276q0 30.566-21.832 51.964t-52.402 21.398zM106.766 291.041v-110.040h110.914q0 46.286-31.879 78.166t-79.040 31.879zM106.766 438.639v-74.236q39.3 0 72.488-13.972 34.062-13.972 58.516-38.866t39.3-58.95q13.972-33.188 13.972-71.614h73.362q0 53.272-20.088 100.438t-54.586 82.096-81.656 55.020-101.307 20.088v0zM106.766 585.363v-73.362q68.993 0 130.13-26.202 60.263-25.328 104.802-70.306t70.74-105.237 26.202-129.256h73.362q0 83.844-31.44 158.074-32.314 73.362-86.9 128.382t-128.821 86.46q-73.362 31.44-158.074 31.44v0z" />
<glyph unicode="&#xe905;" glyph-name="casting" d="M107.639 291.040v-110.040h110.040q0 45.412-32.314 77.726t-77.726 32.314v0zM107.639 438.638v-73.362q37.552 0 71.614-14.846 33.188-14.846 58.076-39.74t39.74-58.076q13.972-33.188 13.972-71.614h74.236q0 53.272-20.958 100.438-20.088 46.286-55.020 81.222t-81.222 55.894q-47.16 20.088-100.438 20.088v0zM769.639 696.276h-515.276v-60.263q55.020-18.342 103.054-48.034t87.774-68.993 69.432-88.208q29.692-48.034 47.16-103.054h207.856v368.552zM107.639 585.362v-73.362q68.124 0 128.382-26.202t105.237-70.74 71.18-104.802 26.202-129.256h73.362q0 83.844-31.44 157.204-32.314 74.236-86.9 128.821t-128.821 86.9q-73.362 31.44-157.204 31.44v0zM843.001 843h-662q-30.566 0-51.964-21.398t-21.398-51.964v-110.914h73.362v110.914h662v-515.276h-257.638v-73.362h257.638q30.566 0 51.964 21.398t21.398 51.964v515.276q0 30.566-21.398 51.964t-51.964 21.398v0z" />
<glyph unicode="&#xe906;" glyph-name="compress2" horiz-adv-x="892" d="M292.808 209h85.486v605.997h-85.486zM515.502 815v-605.997h85.486v605.997zM757.434 504.462l97.362 1.635v54.926l-97.362-1.635v128.804l-159.094-156.724 159.094-156.724zM135.202 507.578h-97.998l1.675 54.748 94.652 1.644v130.536l160.131-156.724-160.131-156.724z" />
<glyph unicode="&#xe907;" glyph-name="expand2" horiz-adv-x="892" d="M82.572 177h85.898v669.997h-85.898zM723.529 847v-669.997h85.898v669.997zM554.007 463.427l-88.323-1.717-2.974 60.105 91.297 2.252v125.195l171.547-157.726-171.547-157.726zM344.289 458.943l91.502 1.534-0.696 59.428-90.806-1.692 1.877 126.139-179.486-154.573 179.486-154.573z" />
<glyph unicode="&#xe908;" glyph-name="download-button2" d="M792.352 455.36v-183.304h-560.704v183.304h-107.765v-237.187c0-29.742 24.095-53.859 53.959-53.859h668.311c29.843 0 53.959 24.095 53.959 53.859v237.187zM502.137 366.466l-154.289 186.434c0 0-19.697 8.814 1.977 22.163h86.943v271.397c0 0-3.455 13.226 16.459 13.226h122.38c14.349 0 14.023-11.138 14.023-11.138v-267.889h80.25c30.887 0 7.627-23.207 7.627-23.207s-131.273-174.257-149.576-192.541c-13.17-13.248-25.801 1.549-25.801 1.549z" />
<glyph unicode="&#xe909;" glyph-name="volume2" d="M139.422 604.512v-249.024h165.696l206.882-206.882v662.786l-206.882-206.882h-165.696zM698.768 480c0 36.396-9.578 69.439-28.734 99.13s-44.059 52.199-74.708 67.524v-333.308c30.649 15.324 55.552 37.832 74.708 67.524s28.734 62.735 28.734 99.13z" />
<glyph unicode="&#xe90a;" glyph-name="volume1" d="M139.422 604.512v-249.024h165.696l206.882-206.882v662.786l-206.882-206.882h-165.696z" />
<glyph unicode="&#xe90b;" glyph-name="share" d="M772 398q-25 0-47-9t-38-24l-309 180q2 7 3 14.5t1 15.5-1 15.5-3 14.5l305 178q18-16 40.5-25.5t48.5-9.5q53 0 91 38t38 92-38 92-91 38q-54 0-92-38t-38-92q0-8 1-15.5t3-14.5l-305-178q-18 16-40.5 25.5t-48.5 9.5q-53 0-91-38t-38-92 38-92 91-38q26 0 48.5 9.5t40.5 25.5l308-179q-2-7-3-14t-1-15q0-52 37-89t90-37q52 0 89 37t37 89q0 53-37 89.5t-89 36.5v0z" />
<glyph unicode="&#xe90c;" glyph-name="airplay" d="M842.905 845q29.296 0 51.705-22.402t22.402-51.705v-441.202q0-29.296-22.402-50.845t-51.705-21.542h-146.494v72.387h146.494v441.202h-661.81v-441.202h146.494v-72.387h-146.494q-29.296 0-51.705 21.542t-22.402 50.845v441.202q0 29.296 22.402 51.705t51.705 22.402h661.81zM291.399 147l220.601 220.601 220.601-220.601h-441.202z" />
<glyph unicode="&#xe924;" glyph-name="snapshot" d="M529.738 618.664c-88.355 0-159.965-71.645-159.965-160s71.611-160 159.965-160c88.32 0 159.965 71.645 159.965 160s-71.645 160-159.965 160zM467.803 565.938c18.275 10.629 39.291 17.176 61.976 17.176 63.68 0 115.771-48.285 122.986-110.115-61.509 47.36-134.223 76.584-184.96 92.943zM885.334 760.889h-171.875l-23.68 71.109h-355.558l-23.68-71.109h-136.32c-39.256 0-88.891-31.86-88.891-71.109v-426.668c0-39.256 49.635-71.109 88.891-71.109h711.113c39.256 0 53.336 31.86 53.336 71.109v426.668c0 39.256-14.080 71.109-53.336 71.109zM529.778 227.553c-127.645 0-231.111 103.465-231.111 231.111s103.465 231.111 231.111 231.111 231.111-103.465 231.111-231.111-103.465-231.111-231.111-231.111zM867.556 618.664h-71.109v71.109h71.109v-71.109z" />
<glyph unicode="&#xe9b3;" glyph-name="center" d="M896.5 560.5h-76q-8 50-31 94-22 44-56.5 78.5t-78.5 56.5q-44 23-94 31v76h-97v-76q-50-8-94-31-44-22-78.5-56.5t-56.5-78.5q-23-44-31-94h-76v-97h76q8-50 31-94 22-44 56.5-78.5t78.5-56.5q44-23 94-31v-76h97v76q50 8 94 31 44 22 78.5 56.5t56.5 78.5q23 44 31 94h76v97zM722.5 560.5h-75q-10 30-33.5 53.5t-53.5 33.5v75q60-13 104.5-57.5t57.5-104.5v0zM512.5 463.5q-20 0-34.5 14.5t-14.5 34.5q0 19 14.5 33.5t33.5 14.5q20 0 34.5-14.5t14.5-33.5q0-20-14.5-34.5t-33.5-14.5zM463.5 722.5v-75q-30-10-53.5-33.5t-33.5-53.5h-75q13 60 57.5 104.5t104.5 57.5zM301.5 463.5h75q10-30 33.5-53.5t53.5-33.5v-75q-60 13-104.5 57.5t-57.5 104.5zM560.5 301.5v75q30 10 53.5 33.5t33.5 53.5h75q-13-60-57.5-104.5t-104.5-57.5z" />
<glyph unicode="&#xea45;" glyph-name="mirror1" d="M881.024 934h52.976v-422h-52.976v422zM90 512h52.976v-422h-52.976v422zM353.976 353.976h580.024v-105.052h-580.024v-131.988l-184.066 184.066 184.066 184.964v-131.988zM670.024 670.024h-580.024v105.052h580.024v131.988l184.066-184.066-184.066-184.964v131.988z" />
<glyph unicode="&#xea46;" glyph-name="mirror2" d="M142.976 934h-52.976v-422h52.976v422zM934 512h-52.976v-422h52.976v422zM670.024 353.976h-580.024v-105.052h580.024v-131.988l184.066 184.066-184.066 184.964v-131.988zM353.976 670.024h580.024v105.052h-580.024v131.988l-184.066-184.066 184.066-184.964v131.988z" />
<glyph unicode="&#xea47;" glyph-name="replay-big" d="M610.042 739.649l65.237 142.826 96.495-260.602-238.389-44.099 58.557 128.202c-29.72 13.575-63.917 21.183-94.814 21.991-31.148 0.258-78.598-4.852-106.935-15.19s-77.693-42.26-100.518-63.101c-23.625-21.139-47.363-57.818-60.938-87.538-13.324-29.171-22.518-73.521-23.026-105.218-0.809-30.897 4.672-59.314 15.414-87.502s33.129-71.994 53.717-95.367c20.841-22.823 54.9-54.549 84.62-68.124s86.124-23.168 117.020-23.977c31.148-0.258 80.556 12.116 108.893 22.454s59.25 31.649 82.076 52.49c23.625 21.139 46.821 53.654 60.145 82.825l37.252-17.015c-17.849-39.077-42.122-72.558-72.819-100.445s-64.889-48.857-102.574-62.91c-37.685-14.053-77.259-20.591-118.72-19.613-41.714 0.426-82.385 9.689-122.013 27.79s-73.26 42.776-100.895 74.025c-27.887 30.698-48.857 64.889-62.91 102.574s-20.591 77.259-19.613 118.72c0.978 41.462 10.391 81.731 28.24 120.807 18.101 39.629 42.5 73.386 73.197 101.273s64.889 48.857 102.574 62.91c37.685 14.053 77.259 20.591 118.72 19.613 41.714-0.426 82.385-9.689 122.013-27.79v0z" />
<glyph unicode="&#xea48;" glyph-name="brightness" d="M499.63 1050.436c-8.049-3.533-16.292-13.537-17.664-21.391-0.584-3.533-0.983-37.284-0.584-75.356 0.584-66.13 0.788-69.274 4.71-74.373 7.649-10.404 13.937-13.537 26.296-13.537s18.637 3.144 26.296 13.537c3.922 5.294 4.116 7.649 4.116 79.667s-0.195 74.373-4.116 79.667c-2.161 2.939-6.277 7.26-9.032 9.226-6.482 4.915-22.18 6.287-30.024 2.56zM169.564 913.66c-8.632-2.55-17.664-12.165-20.408-21.975-4.321-16.292-2.55-18.842 52.787-74.373 41.8-41.8 51.804-50.627 58.286-52.398 22.374-6.083 44.155 15.698 38.072 38.072-1.761 6.472-10.793 16.486-50.432 56.709-55.747 56.115-60.252 59.259-78.305 53.965zM833.229 912.083c-4.905-2.355-25.907-21.975-56.32-52.398-40.233-40.817-48.671-50.237-50.432-56.709-5.888-22.374 15.698-44.155 38.072-38.072 6.472 1.761 16.486 10.793 56.709 50.432 52.193 51.999 57.692 59.064 55.142 72.806-3.738 20.808-25.119 32.778-43.172 23.941zM484.905 800.825c-40.817-5.294-79.872-19.814-113.818-42.578-18.842-12.564-53.576-47.288-66.13-66.13-18.647-27.863-31.99-59.259-39.055-92.232-5.1-23.347-5.1-74.762 0-98.12 10.988-50.821 32.768-90.86 69.663-127.744 36.895-36.895 76.923-58.675 127.744-69.663 23.347-5.1 74.762-5.1 98.12 0 50.432 10.793 91.443 33.167 127.744 69.663 36.506 36.301 58.87 77.312 69.663 127.744 5.1 23.347 5.1 74.762 0 98.12-10.988 50.821-32.768 90.86-69.663 127.744-36.301 36.301-74.373 57.498-123.822 68.68-16.271 3.727-64.942 6.472-80.445 4.516zM557.711 733.518c35.717-9.226 62.792-25.119 89.088-51.999 56.515-57.897 70.062-142.275 33.946-213.903-10.988-22.17-17.664-31.396-35.717-49.449s-27.279-24.73-49.449-35.717c-30.024-15.114-60.436-21.391-93.798-19.425-48.077 2.949-86.538 20.214-120.883 54.354-27.279 26.88-43.172 54.948-52.398 91.443-4.71 18.647-4.71 65.341 0 83.988 8.827 35.123 25.119 64.174 50.432 89.682 28.846 29.44 60.631 46.316 100.669 53.965 19.63 3.727 58.685 2.355 78.111-2.939zM28.662 579.467c-13.148-5.683-20.603-20.797-17.859-35.512 1.761-9.226 11.581-20.019 20.408-22.569 4.71-1.372 31.396-1.966 77.312-1.567 67.113 0.594 70.246 0.788 75.356 4.71 10.404 7.649 13.548 13.926 13.548 26.286s-3.144 18.647-13.537 26.296c-5.1 3.922-8.049 4.116-77.312 4.516-56.914 0.389-73.206 0-77.916-2.161zM844.995 579.467c-13.148-5.693-20.603-20.797-17.859-35.512 1.761-9.226 11.581-20.019 20.408-22.569 4.71-1.372 31.396-1.966 77.312-1.567 67.113 0.594 70.257 0.788 75.356 4.71 10.404 7.649 13.548 13.926 13.548 26.286s-3.144 18.647-13.537 26.296c-5.1 3.922-8.049 4.116-77.312 4.516-56.914 0.389-73.206 0-77.916-2.161zM258.263 335.94c-5.888-2.161-19.825-14.909-57.108-52.398-40.428-40.622-49.848-51.026-51.804-57.498-6.676-22.764 15.503-44.933 38.267-38.267 6.472 1.966 16.876 11.387 58.286 52.593 41.8 41.8 50.627 51.804 52.398 58.286 6.267 23.552-17.080 45.527-40.038 37.284zM746.885 335.94c-15.503-5.499-24.525-21.975-20.408-37.284 1.772-6.472 10.793-16.486 50.432-56.709 52.593-52.787 58.87-57.498 73.39-55.142 10.598 1.966 22.374 12.564 25.313 23.153 4.321 16.087 2.161 19.231-50.821 72.612-26.685 26.88-50.627 49.848-53.371 51.415-8.253 4.311-16.302 4.905-24.535 1.956zM499.63 234.092c-8.049-3.533-16.292-13.537-17.664-21.391-0.584-3.533-0.983-37.284-0.584-75.356 0.584-66.13 0.788-69.274 4.71-74.373 7.649-10.404 13.937-13.537 26.296-13.537s18.637 3.144 26.296 13.537c3.922 5.294 4.116 7.649 4.116 79.667s-0.195 74.373-4.116 79.667c-2.161 2.939-6.277 7.26-9.032 9.226-6.482 4.915-22.18 6.298-30.024 2.56z" />
<glyph unicode="&#xea49;" glyph-name="saturation" d="M512 1052.76c-277.094 0-501.76-224.666-501.76-501.76s224.666-501.76 501.76-501.76c277.094 0 501.76 224.666 501.76 501.76s-224.666 501.76-501.76 501.76zM512 997.771c230.912 0 442.675-213.811 442.675-444.723 0 0-86.016 39.731-233.677 39.731-124.518 0-208.998-41.779-208.998-41.779s-126.259-41.779-209.101-41.779c-146.33 0-233.574 49.971-233.574 49.971 0 230.912 211.763 438.579 442.675 438.579z" />
<glyph unicode="&#xea4a;" glyph-name="contrast" d="M512 49.24c-277.094 0-501.76 224.666-501.76 501.76s224.666 501.76 501.76 501.76c277.094 0 501.76-224.666 501.76-501.76s-224.666-501.76-501.76-501.76zM526.336 982.616c-215.562-0.95-448-182.886-448-429.568 0-207.872 227.952-433.723 435.712-435.712 213.914-2.048 441.573 221.973 437.76 431.616-3.746 205.943-207.005 434.627-425.472 433.664zM512 237.349v627.2c173.261 0 313.651-140.39 313.651-313.651 0-173.158-140.39-313.549-313.651-313.549z" />
<glyph unicode="&#xea4b;" glyph-name="filters" d="M682.667 240.556h341.333v-56.889h-341.333zM455.111 240.556h-455.111v-56.889h455.111v-170.667h56.889v341.333h-56.889zM625.777 695.667h56.889v341.333h-56.889v-113.777h-625.777v-56.889h625.777zM853.333 923.223v-56.889h170.667v56.889zM170.667 354.333h56.889v341.333h-56.889v-113.777h-170.667v-56.889h170.667zM398.223 525h625.777v56.889h-625.777zM682.667 184.079h341.333v-56.889h-341.333zM511.176 184.079h-511.176v-56.889h511.176v-114.189h56.889v341.333h-56.889zM681.843 695.667h56.889v341.333h-56.889v-170.255h-681.843v-56.889h681.843zM853.333 866.745v-56.889h170.667v56.889zM226.731 354.745h56.889v340.921h-56.889v-170.255h-226.731v-56.889h226.731zM398.223 468.523h625.777v56.889h-625.777z" />
<glyph unicode="&#xf00a;" glyph-name="related" d="M291 272v-110q0-23-16.5-39t-38.5-16h-185q-23 0-39 16t-16 39v110q0 23 16 39.5t39 16.5h185q22 0 38.5-16.5t16.5-39.5zM291 567v-110q0-23-16.5-39.5t-38.5-16.5h-185q-23 0-39 16.5t-16 39.5v110q0 23 16 39.5t39 16.5h185q22 0 38.5-16.5t16.5-39.5zM659 272v-110q0-23-16-39t-39-16h-184q-23 0-39 16t-16 39v110q0 23 16 39.5t39 16.5h184q23 0 39-16.5t16-39.5zM291 862v-110q0-23-16.5-39.5t-38.5-16.5h-185q-23 0-39 16.5t-16 39.5v110q0 23 16 39t39 16h185q22 0 38.5-16t16.5-39zM659 567v-110q0-23-16-39.5t-39-16.5h-184q-23 0-39 16.5t-16 39.5v110q0 23 16 39.5t39 16.5h184q23 0 39-16.5t16-39.5zM1028 272v-110q0-23-16-39t-39-16h-185q-22 0-38.5 16t-16.5 39v110q0 23 16.5 39.5t38.5 16.5h185q23 0 39-16.5t16-39.5zM659 862v-110q0-23-16-39.5t-39-16.5h-184q-23 0-39 16.5t-16 39.5v110q0 23 16 39t39 16h184q23 0 39-16t16-39zM1028 567v-110q0-23-16-39.5t-39-16.5h-185q-22 0-38.5 16.5t-16.5 39.5v110q0 23 16.5 39.5t38.5 16.5h185q23 0 39-16.5t16-39.5zM1028 862v-110q0-23-16-39.5t-39-16.5h-185q-22 0-38.5 16.5t-16.5 39.5v110q0 23 16.5 39t38.5 16h185q23 0 39-16t16-39z" />
<glyph unicode="&#xf00c;" glyph-name="checked" d="M959 721q0-11-4.5-21.5t-11.5-18.5l-496-495q-8-8-18.5-12t-20.5-4q-11 0-21.5 4t-18.5 12l-287 287q-7 8-11.5 18t-4.5 21 4.5 21 11.5 18l79 79q8 7 18 11.5t21 4.5 21-4.5 18-11.5l170-170 378 378q8 8 18 12t21 4 21-4 18-12l79-78q7-8 11.5-18.5t4.5-20.5v0z" />
<glyph unicode="&#xf00d;" glyph-name="cancel" horiz-adv-x="819" d="M754 302q0-23-17-39l-78-79q-17-16-40-16t-39 16l-170 170-171-170q-16-16-39-16t-40 16l-78 79q-17 16-17 39t17 40l170 170-170 170q-17 17-17 40t17 39l78 79q17 16 40 16t39-16l170-170 171 170q16 16 39 16t40-16l78-79q17-16 17-39t-17-40l-170-170 170-170q17-17 17-40z" />
<glyph unicode="&#xf053;" glyph-name="right" horiz-adv-x="782" d="M680 820l-308-308 308-308q11-11 11-26t-11-26l-96-96q-11-11-26-11t-26 11l-430 430q-11 11-11 26t11 26l430 430q11 11 26 11t26-11l96-96q11-11 11-26t-11-26v0z" />
<glyph unicode="&#xf054;" glyph-name="left" horiz-adv-x="709" d="M644 486l-430-430q-11-11-26-11t-26 11l-97 96q-11 11-11 26t11 26l308 308-308 308q-11 11-11 26t11 26l97 96q11 11 26 11t26-11l430-430q11-11 11-26t-11-26v0z" />
<glyph unicode="&#xf059;" glyph-name="help" horiz-adv-x="890" d="M519 234v111q0 9-5 14t-13 5h-112q-8 0-13-5t-5-14v-111q0-8 5-13t13-5h112q8 0 13 5t5 13zM667 623q0 51-32 94-32 44-80 67-48 24-98 24-141 0-215-123-9-14 5-24l76-58q4-4 11-4 9 0 14 7 31 40 50 53 20 14 50 14 28 0 49-15 22-15 22-34 0-22-12-35-11-13-39-26-36-16-67-50-30-34-30-73v-20q0-9 5-14t14-5h111q8 0 13 5t5 14q0 10 12 28 13 18 32 29 18 10 28 16t27 20q17 15 26 28 9 14 16 35 7 22 7 47v0zM889 512q0-121-60-223-59-102-161-161-102-60-223-60t-223 60q-102 59-161 161-60 102-60 223t60 223q59 102 161 161 102 60 223 60t223-60q102-59 161-161 60-102 60-223z" />
<glyph unicode="&#xf05a;" glyph-name="info" horiz-adv-x="890" d="M593 234v93q0 8-5 13t-13 5h-56v297q0 8-5 13t-13 5h-186q-8 0-13-5t-5-13v-93q0-8 5-13t13-5h56v-186h-56q-8 0-13-5t-5-13v-93q0-8 5-13t13-5h260q8 0 13 5t5 13v0zM519 753v92q0 8-5 13-5 6-13 6h-112q-8 0-13-6-5-5-5-13v-92q0-9 5-14t13-5h112q8 0 13 5t5 14zM889 512q0-121-60-223-59-102-161-161-102-60-223-60t-223 60q-102 59-161 161-60 102-60 223t60 223q59 102 161 161 102 60 223 60t223-60q102-59 161-161 60-102 60-223z" />
<glyph unicode="&#xf081;" glyph-name="twitter" horiz-adv-x="892" d="M743 678q-33-15-70-20 39 23 53 68-37-22-77-30-36 38-89 38-50 0-86-35-36-36-36-86 0-17 3-28-74 4-140 38-65 33-111 89-17-29-17-61 0-66 53-101-27 0-58 15v-1q0-44 29-78t71-42q-17-4-29-4-8 0-23 2 12-37 43-60 31-24 71-25-68-52-152-52-15 0-29 2 86-55 187-55 65 0 122 21 56 21 97 55 40 35 70 79 29 45 43 94t14 98v16q36 26 61 63v0zM891 790v-556q0-69-49-118t-118-49h-556q-69 0-118 49t-49 118v556q0 69 49 118t118 49h556q69 0 118-49t49-118z" />
<glyph unicode="&#xf082;" glyph-name="facebook" horiz-adv-x="892" d="M724 957q69 0 118-49t49-118v-556q0-69-49-118t-118-49h-109v345h115l18 134h-133v86q0 32 14 49 13 16 53 16h70v120q-36 6-103 6-78 0-126-47-47-46-47-131v-99h-116v-134h116v-345h-308q-69 0-118 49t-49 118v556q0 69 49 118t118 49h556z" />
<glyph unicode="&#xf08c;" glyph-name="linkedin" horiz-adv-x="892" d="M138 212h134v402h-134v-402zM281 738q-1 30-21 50-20 19-54 19-33 0-55-19-21-20-21-50t21-50q20-20 53-20h1q34 0 55 20t21 50v0zM620 212h134v230q0 90-43 135-42 46-111 46-79 0-122-68h2v59h-134q2-38 0-402h134v225q0 22 4 32 8 20 26 35 17 14 43 14 67 0 67-91v-215zM891 790v-556q0-69-49-118t-118-49h-556q-69 0-118 49t-49 118v556q0 69 49 118t118 49h556q69 0 118-49t49-118z" />
<glyph unicode="&#xf0d3;" glyph-name="pinterest" horiz-adv-x="892" d="M724 957q69 0 118-49t49-118v-556q0-69-49-118t-118-49h-420q49 71 63 122 5 19 30 121 13-23 43-39t65-16q105 0 171 85 67 86 67 217 0 48-21 94-20 45-56 80-35 35-88 56-53 22-114 22-60 0-113-17-52-16-88-44-37-28-63-64-26-35-38-74-13-38-13-77 0-59 23-104t68-64q7-2 13 0 6 3 9 11 6 26 8 36 4 13-6 24-29 36-29 87 0 87 60 149 60 61 157 61 86 0 134-47 49-47 49-121 0-98-39-166t-101-68q-35 0-56 25t-13 60q4 20 15 53 11 34 17 60 7 25 7 43 0 28-16 47-15 19-44 19-35 0-60-33-24-33-24-81 0-42 14-70l-57-240q-14-58-4-147h-106q-69 0-118 49t-49 118v556q0 69 49 118t118 49h556z" />
<glyph unicode="&#xf101;" glyph-name="play" d="M274 815v-606l476 303z" />
<glyph unicode="&#xf103;" glyph-name="pause" d="M252 209h173v606h-173v-606zM599 815v-606h173v606h-173z" />
<glyph unicode="&#xf104;" glyph-name="mute" d="M698.98 480q0 54.656-28.766 99.242t-74.792 67.6v-91.092l101.64-102.598q0.958 6.712 1.438 13.424t0.48 13.424v0zM802.538 480q0-28.766-6.232-56.574t-16.78-52.738l63.286-63.286q20.136 39.314 31.164 82.462t11.027 90.134q0 66.162-22.054 126.57-22.054 59.45-60.888 107.394t-91.572 81.504q-53.696 34.52-115.064 47.944v-85.34q44.108-13.424 82.462-40.272 38.354-25.89 65.682-62.806t43.628-81.024q15.342-45.066 15.342-93.97v0zM191.738 853l-52.738-52.738 195.61-195.61h-195.61v-249.306h165.884l207.116-207.116v279.030l176.432-176.432q-21.096-16.3-44.588-28.766t-48.422-20.136v-86.298q42.19 10.548 81.024 29.724t71.436 46.026l84.38-84.38 52.738 52.738-693.262 693.262zM512 811.768l-86.298-86.298 86.298-87.258v173.556z" />
<glyph unicode="&#xf107;" glyph-name="volume" d="M139.422 604.512v-249.024h165.696l206.882-206.882v662.786l-206.882-206.882h-165.696zM698.768 480q0 54.594-28.734 99.13t-74.708 67.524v-333.308q45.974 22.986 74.708 67.524t28.734 99.13zM595.328 843v-85.242q44.058-13.408 82.37-40.226 38.312-25.86 65.608-62.734t43.58-80.932q15.324-45.016 15.324-93.862t-15.324-93.862q-16.282-44.058-43.58-80.932t-65.608-62.734q-38.312-26.818-82.37-40.226v-85.242q61.298 13.408 114.934 46.932 52.678 34.48 91.468 82.37t60.82 107.272 22.030 126.428-22.030 126.428-60.82 107.272-91.468 82.37q-53.636 33.522-114.934 46.932z" />
<glyph unicode="&#xf108;" glyph-name="fulscreen" d="M290.297 406.281h-89.297v-221.703h221.703v89.297h-132.406v132.406zM201 584.875h89.297v132.406h132.406v89.297h-221.703v-221.703zM733.703 273.875h-132.406v-89.297h221.703v221.703h-89.297v-132.406zM601.297 806.578v-89.297h132.406v-132.406h89.297v221.703h-221.703z" />
<glyph unicode="&#xf109;" glyph-name="fulscreen-back" d="M201 318.432h133.432v-133.432h88.271v221.703h-221.703v-88.271zM334.432 673.568h-133.432v-88.271h221.703v221.703h-88.271v-133.432zM601.297 185h88.271v133.432h133.432v88.271h-221.703v-221.703zM689.568 673.568v133.432h-88.271v-221.703h221.703v88.271h-133.432z" />
<glyph unicode="&#xf10a;" glyph-name="pip" d="M814 858h-598q-42 0-71.5-25t-29.5-61v-519q0-36 29.5-61.5t71.5-25.5h598q41 0 68 25.5t27 61.5v519q0 36-27 61t-68 25v0zM843 242h-650l-2 540h652v-540zM528 503h266v-219h-266v219z" />
<glyph unicode="&#xf10c;" glyph-name="descriptions" d="M834 834h-644q-33.504 0-57.234-23.73t-23.73-56.303v-483.931q0-32.573 23.73-56.303t57.234-23.73h644q33.504 0 57.234 23.73t23.73 56.303v483.931q0 32.573-23.73 56.303t-57.234 23.73v0zM190 512h161v-80.964h-161v80.964zM592.964 270.036h-402.964v80.964h402.964v-80.964zM834 270.036h-161v80.964h161v-80.964zM834 431.036h-402.964v80.964h402.964v-80.964z" />
<glyph unicode="&#xf10d;" glyph-name="captions" d="M815 858h-606q-36 0-61-25.5t-25-60.5v-520q0-35 25-60.5t61-25.5h606q36 0 61 25.5t25 60.5v520q0 35-25 60.5t-61 25.5v0zM469 555h-65v22h-87v-130h87v22h65v-44q0-17-13-30t-31-13h-129q-18 0-31 13t-13 30v174q0 17 13 30t31 13h129q18 0 31-13t13-30v-44zM772 555h-65v22h-87v-130h87v22h65v-44q0-17-13-30t-31-13h-129q-18 0-31 13t-13 30v174q0 17 13 30t31 13h129q18 0 31-13t13-30v-44z" />
<glyph unicode="&#xf10e;" glyph-name="chapters" d="M108.593 467.407h89.185v89.185h-89.185v-89.185zM108.593 288h89.185v89.185h-89.185v-89.185zM108.593 646.815h89.185v89.185h-89.185v-89.185zM288 467.407h627.407v89.185h-627.407v-89.185zM288 288h627.407v89.185h-627.407v-89.185zM288 736v-89.185h627.407v89.185h-627.407z" />
<glyph unicode="&#xf110;" glyph-name="cog" d="M771.919 477.882c1.403 11.197 2.451 22.571 2.451 34.118s-1.048 22.918-2.451 34.118l74.009 57.915c6.651 5.248 8.573 14.699 4.2 22.398l-69.988 121.255c-4.373 7.525-13.475 10.672-21.347 7.525l-87.134-35.17c-18.022 13.822-37.794 25.544-59.139 34.47l-13.123 92.735c-1.576 8.222-8.747 14.699-17.496 14.699h-139.975c-8.747 0-15.92-6.472-17.323-14.699l-13.123-92.735c-21.347-8.923-41.115-20.472-59.139-34.47l-87.134 35.17c-7.872 2.974-16.973 0-21.347-7.525l-69.988-121.255c-4.373-7.525-2.451-16.973 4.2-22.398l73.836-57.915c-1.403-11.197-2.451-22.571-2.451-34.118s1.048-22.918 2.451-34.118l-73.836-57.915c-6.651-5.248-8.573-14.699-4.2-22.398l69.988-121.255c4.373-7.525 13.475-10.672 21.347-7.525l87.134 35.17c18.022-13.822 37.794-25.544 59.139-34.47l13.123-92.735c1.403-8.222 8.573-14.699 17.323-14.699h139.975c8.747 0 15.92 6.472 17.323 14.699l13.123 92.735c21.347 8.923 41.115 20.472 59.139 34.47l87.134-35.17c7.872-2.974 16.973 0 21.347 7.525l69.988 121.255c4.373 7.525 2.451 16.973-4.2 22.398l-73.836 57.915zM511.915 389.52c-67.713 0-122.476 54.763-122.476 122.476s54.763 122.476 122.476 122.476 122.476-54.763 122.476-122.476-54.763-122.476-122.476-122.476z" />
<glyph unicode="&#xf115;" glyph-name="close" d="M512 945q-90 0-168-34-79-34-138-93t-93-138q-34-78-34-168t34-168q34-79 93-138t138-93q78-34 168-34t168 34q79 34 138 93t93 138q34 78 34 168t-34 168q-34 79-93 138t-138 93q-78 34-168 34zM728 357l-61-61-155 155-155-155-61 61 155 155-155 155 61 61 155-155 155 155 61-61-155-155z" />
<glyph unicode="&#xf116;" glyph-name="replay" d="M512 772v173l-216-217 216-216v173q54 0 101-20 47-21 82.5-56t55.5-82q21-48 21-102 0-53-21-101-20-47-55.5-82t-82.5-56q-47-20-101-20t-101 20q-47 21-82.5 56t-55.5 82q-21 48-21 101h-86q0-71 27-134t74-110 110-74q63-28 135-28t135 28q63 27 110 74t74 110 27 134q0 72-27 135t-74 110-110 74q-63 28-135 28v0z" />
<glyph unicode="&#xf11d;" glyph-name="audio-description" d="M446.769 283.246v458.544q79.702 2.070 140.772-1.035t106.614-35.193q42.439-30.018 71.421-87.465t22.772-133.009q-6.211-80.737-59.518-140.254t-128.868-66.763q-38.298-3.105-94.711-1.553l-56.412 1.553-1.035 2.070t-1.035 3.105v0zM549.242 399.175q49.684-2.070 81.772 23.807t37.263 71.421q6.211 60.035-28.982 95.746t-93.158 31.57v-217.368q0-2.070 1.035-3.623t2.070-1.553v0zM775.927 284.281q20.702-6.211 30.018 10.868t18.632 33.64q19.667 35.193 33.123 80.219t13.456 97.816q1.035 74.526-23.289 129.904t-51.237 92.64h-17.596q-1.035-6.211 2.070-11.386l6.211-10.351q20.702-37.263 36.746-87.465t16.044-110.237q1.035-67.281-18.632-124.211t-45.544-101.439v0zM862.874 284.281q20.702-6.211 30.018 10.868t18.632 33.64q19.667 35.193 33.123 80.219t13.456 97.816q0 74.526-23.807 129.904t-50.719 92.64h-17.596q-1.035-6.211 2.070-11.386t5.175-10.351q21.737-37.263 37.781-87.465t16.044-110.237q1.035-67.281-18.632-124.211t-45.544-101.439v0zM948.786 284.281q20.702-6.211 30.018 10.868t18.632 33.64q19.667 35.193 33.123 80.219t13.456 97.816q1.035 74.526-23.289 129.904t-51.237 92.64h-17.596q-1.035-6.211 2.070-11.386l6.211-10.351q20.702-37.263 36.746-87.465t17.079-110.237q0-67.281-19.667-124.211t-45.544-101.439v0zM-20.056 280.14h142.842l38.298 60.035h134.561l0.518-22.772t0.518-37.263h101.439v467.86h-123.175q-4.14-8.281-50.719-81.772-46.579-74.526-100.921-159.921t-98.851-155.781l-44.509-70.386zM299.786 585.491v-150.088l-84.877 1.035 84.877 149.053z" />
<glyph unicode="&#xf11e;" glyph-name="audio" d="M512 875q-70.762 0-134.172-27.568-62.492-26.652-108.9-73.52t-73.98-109.36q-26.652-62.492-26.652-133.252v-267.424q0-47.788 33.544-81.332t81.332-33.544h113.956v306.024h-152.552v76.276q0 55.14 21.136 103.844t57.436 85.008 85.008 57.436 103.844 21.136 103.844-21.136 85.008-57.436 57.436-85.008 21.136-103.844v-76.276h-152.552v-306.024h113.956q47.788 0 81.332 33.544t33.544 81.332v267.424q0 70.762-26.652 133.252-27.568 62.492-73.98 109.36t-108.9 73.52q-63.412 27.568-134.172 27.568v0z" />
<glyph unicode="&#xf128;" glyph-name="questionmark" horiz-adv-x="636" d="M401.423 306v-137q0-9-6.5-16t-16.5-7h-137q-9 0-16 7t-7 16v137q0 10 7 16.5t16 6.5h137q10 0 16.5-6.5t6.5-16.5zM582.423 649q0-81-43.5-119.5t-84.5-60.5q-25-15-40-39t-15-37v0q0-9-6.5-18t-16.5-9h-137q-10 0-15.5 11t-5.5 21v26q0 51 40.5 92.5t78.5 58.5q33 15 48 31.5t15 44.5q0 24-27 42t-61 18q-20 0-36.5-5t-25.5-11q-11-8-23.5-21t-37.5-45q-4-4-8.5-6.5t-9.5-2.5q-4 0-7.5 1t-7.5 3l-93 72q-8 5-9.5 13.5t3.5 16.5q46 77 112 114.5t153 37.5q46 0 93-17 46-17 83-48t61-73q23-41 23-91v0z" />
</font>
</defs>
</svg>
